999
dxfrw 0.5.11
0
SECTION
2
HEADER
9
$ACADVER
1
AC1021
9
$HANDSEED
5
20000
9
$DWGCODEPAGE
3
ANSI_1252
9
$INSBASE
10
0
20
0
30
0
9
$EXTMIN
10
-368.357142857
20
-187.5
30
0
9
$EXTMAX
10
232.2
20
190.5
30
0
9
$LIMMIN
10
0
20
0
9
$LIMMAX
10
420
20
297
9
$ORTHOMODE
70
0
9
$LTSCALE
40
1
9
$TEXTSTYLE
7
STANDARD
9
$CLAYER
8
befestigung
9
$DIMASZ
40
2.5
9
$DIMLFAC
40
1
9
$DIMSCALE
40
1
9
$DIMEXO
40
0.625
9
$DIMEXE
40
1.25
9
$DIMTXT
40
2.5
9
$DIMTSZ
40
0
9
$DIMAUNIT
70
0
9
$DIMADEC
70
0
9
$DIMLUNIT
70
2
9
$DIMSTYLE
2
Standard
9
$DIMGAP
40
0.625
9
$DIMTIH
70
0
9
$LUNITS
70
2
9
$LUPREC
70
4
9
$AUNITS
70
0
9
$AUPREC
70
2
9
$SPLINESEGS
70
8
9
$SNAPSTYLE
70
0
9
$PINSBASE
10
0
20
0
30
0
9
$PLIMMIN
10
0
20
0
9
$PLIMMAX
10
210
20
297
9
$INSUNITS
70
4
9
$PSVPSCALE
40
1
0
ENDSEC
0
SECTION
2
CLASSES
0
ENDSEC
0
SECTION
2
TABLES
0
TABLE
2
VPORT
5
8
330
0
100
AcDbSymbolTable
70
1
0
VPORT
5
31
330
2
100
AcDbSymbolTableRecord
100
AcDbViewportTableRecord
2
*ACTIVE
70
0
10
0
20
0
11
1
21
1
12
155.008928571
22
97.875
13
0
23
0
14
10
24
10
15
10
25
10
16
0
26
0
36
1
17
0
27
0
37
0
40
387.642857143
41
1.95024875622
42
50
43
0
44
0
50
0
51
0
71
0
72
100
73
1
74
3
75
0
76
1
77
0
78
0
281
0
65
1
110
0
120
0
130
0
111
1
121
0
131
0
112
0
122
1
132
0
79
0
146
0
348
10020
60
7
61
5
292
1
282
1
141
0
142
0
63
250
421
3358443
0
ENDTAB
0
TABLE
2
LTYPE
5
5
330
0
100
AcDbSymbolTable
70
4
0
LTYPE
5
14
330
5
100
AcDbSymbolTableRecord
100
AcDbLinetypeTableRecord
2
ByBlock
70
0
3

72
65
73
0
40
0
0
LTYPE
5
15
330
5
100
AcDbSymbolTableRecord
100
AcDbLinetypeTableRecord
2
ByLayer
70
0
3

72
65
73
0
40
0
0
LTYPE
5
16
330
5
100
AcDbSymbolTableRecord
100
AcDbLinetypeTableRecord
2
Continuous
70
0
3
Solid line
72
65
73
0
40
0
0
LTYPE
5
32
330
5
100
AcDbSymbolTableRecord
100
AcDbLinetypeTableRecord
2
DOT
70
0
3
Dot . . . . . . . . . . . . . . . . . . . . . .
72
65
73
2
40
6.35
49
0
74
0
49
-6.35
74
0
0
LTYPE
5
33
330
5
100
AcDbSymbolTableRecord
100
AcDbLinetypeTableRecord
2
DOT2
70
0
3
Dot (.5x) .....................................
72
65
73
2
40
3.175
49
0
74
0
49
-3.175
74
0
0
LTYPE
5
34
330
5
100
AcDbSymbolTableRecord
100
AcDbLinetypeTableRecord
2
DOTX2
70
0
3
Dot (2x) .  .  .  .  .  .  .  .  .  .  .  .  .
72
65
73
2
40
12.7
49
0
74
0
49
-12.7
74
0
0
LTYPE
5
35
330
5
100
AcDbSymbolTableRecord
100
AcDbLinetypeTableRecord
2
DASHED
70
0
3
Dot . . . . . . . . . . . . . . . . . . . . . .
72
65
73
2
40
19.05
49
12.7
74
0
49
-6.35
74
0
0
LTYPE
5
36
330
5
100
AcDbSymbolTableRecord
100
AcDbLinetypeTableRecord
2
DASHED2
70
0
3
Dashed (.5x) _ _ _ _ _ _ _ _ _ _ _ _ _ _ _ _ _
72
65
73
2
40
9.525
49
6.35
74
0
49
-3.175
74
0
0
LTYPE
5
37
330
5
100
AcDbSymbolTableRecord
100
AcDbLinetypeTableRecord
2
DASHEDX2
70
0
3
Dashed (2x) ____  ____  ____  ____  ____  ___
72
65
73
2
40
38.1
49
25.4
74
0
49
-12.7
74
0
0
LTYPE
5
38
330
5
100
AcDbSymbolTableRecord
100
AcDbLinetypeTableRecord
2
DASHDOT
70
0
3
Dash dot __ . __ . __ . __ . __ . __ . __ . __
72
65
73
4
40
25.4
49
12.7
74
0
49
-6.35
74
0
49
0
74
0
49
-6.35
74
0
0
LTYPE
5
39
330
5
100
AcDbSymbolTableRecord
100
AcDbLinetypeTableRecord
2
DASHDOT2
70
0
3
Dash dot (.5x) _._._._._._._._._._._._._._._.
72
65
73
4
40
12.7
49
6.35
74
0
49
-3.175
74
0
49
0
74
0
49
-3.175
74
0
0
LTYPE
5
3A
330
5
100
AcDbSymbolTableRecord
100
AcDbLinetypeTableRecord
2
DASHDOTX2
70
0
3
Dash dot (2x) ____  .  ____  .  ____  .  ___
72
65
73
4
40
50.8
49
25.4
74
0
49
-12.7
74
0
49
0
74
0
49
-12.7
74
0
0
LTYPE
5
3B
330
5
100
AcDbSymbolTableRecord
100
AcDbLinetypeTableRecord
2
DIVIDE
70
0
3
Divide ____ . . ____ . . ____ . . ____ . . ____
72
65
73
6
40
31.75
49
12.7
74
0
49
-6.35
74
0
49
0
74
0
49
-6.35
74
0
49
0
74
0
49
-6.35
74
0
0
LTYPE
5
3C
330
5
100
AcDbSymbolTableRecord
100
AcDbLinetypeTableRecord
2
DIVIDE2
70
0
3
Divide (.5x) __..__..__..__..__..__..__..__.._
72
65
73
6
40
15.875
49
6.35
74
0
49
-3.175
74
0
49
0
74
0
49
-3.175
74
0
49
0
74
0
49
-3.175
74
0
0
LTYPE
5
3D
330
5
100
AcDbSymbolTableRecord
100
AcDbLinetypeTableRecord
2
DIVIDEX2
70
0
3
Divide (2x) ________  .  .  ________  .  .  _
72
65
73
6
40
63.5
49
25.4
74
0
49
-12.7
74
0
49
0
74
0
49
-12.7
74
0
49
0
74
0
49
-12.7
74
0
0
LTYPE
5
3E
330
5
100
AcDbSymbolTableRecord
100
AcDbLinetypeTableRecord
2
BORDER
70
0
3
Border __ __ . __ __ . __ __ . __ __ . __ __ .
72
65
73
6
40
44.45
49
12.7
74
0
49
-6.35
74
0
49
12.7
74
0
49
-6.35
74
0
49
0
74
0
49
-6.35
74
0
0
LTYPE
5
3F
330
5
100
AcDbSymbolTableRecord
100
AcDbLinetypeTableRecord
2
BORDER2
70
0
3
Border (.5x) __.__.__.__.__.__.__.__.__.__.__.
72
65
73
6
40
22.225
49
6.35
74
0
49
-3.175
74
0
49
6.35
74
0
49
-3.175
74
0
49
0
74
0
49
-3.175
74
0
0
LTYPE
5
40
330
5
100
AcDbSymbolTableRecord
100
AcDbLinetypeTableRecord
2
BORDERX2
70
0
3
Border (2x) ____  ____  .  ____  ____  .  ___
72
65
73
6
40
88.9
49
25.4
74
0
49
-12.7
74
0
49
25.4
74
0
49
-12.7
74
0
49
0
74
0
49
-12.7
74
0
0
LTYPE
5
41
330
5
100
AcDbSymbolTableRecord
100
AcDbLinetypeTableRecord
2
CENTER
70
0
3
Center ____ _ ____ _ ____ _ ____ _ ____ _ ____
72
65
73
4
40
50.8
49
31.75
74
0
49
-6.35
74
0
49
6.35
74
0
49
-6.35
74
0
0
LTYPE
5
42
330
5
100
AcDbSymbolTableRecord
100
AcDbLinetypeTableRecord
2
CENTER2
70
0
3
Center (.5x) ___ _ ___ _ ___ _ ___ _ ___ _ ___
72
65
73
4
40
28.575
49
19.05
74
0
49
-3.175
74
0
49
3.175
74
0
49
-3.175
74
0
0
LTYPE
5
43
330
5
100
AcDbSymbolTableRecord
100
AcDbLinetypeTableRecord
2
CENTERX2
70
0
3
Center (2x) ________  __  ________  __  _____
72
65
73
4
40
101.6
49
63.5
74
0
49
-12.7
74
0
49
12.7
74
0
49
-12.7
74
0
0
ENDTAB
0
TABLE
2
LAYER
5
2
330
0
100
AcDbSymbolTable
70
1
0
LAYER
5
10
330
2
100
AcDbSymbolTableRecord
100
AcDbLayerTableRecord
2
0
70
0
62
7
6
CONTINUOUS
370
0
390
F
0
LAYER
5
44
330
2
100
AcDbSymbolTableRecord
100
AcDbLayerTableRecord
2
befestigung
70
0
62
3
6
CONTINUOUS
370
0
390
F
0
LAYER
5
45
330
2
100
AcDbSymbolTableRecord
100
AcDbLayerTableRecord
2
inside-cut
70
0
62
2
6
CONTINUOUS
370
0
390
F
0
ENDTAB
0
TABLE
2
STYLE
5
3
330
0
100
AcDbSymbolTable
70
3
0
STYLE
5
46
330
2
100
AcDbSymbolTableRecord
100
AcDbTextStyleTableRecord
2
Standard
70
0
40
0
41
1
50
0
71
0
42
1
3
txt
4

0
ENDTAB
0
TABLE
2
VIEW
5
6
330
0
100
AcDbSymbolTable
70
0
0
ENDTAB
0
TABLE
2
UCS
5
7
330
0
100
AcDbSymbolTable
70
0
0
ENDTAB
0
TABLE
2
APPID
5
9
330
0
100
AcDbSymbolTable
70
1
0
APPID
5
12
330
9
100
AcDbSymbolTableRecord
100
AcDbRegAppTableRecord
2
ACAD
70
0
0
ENDTAB
0
TABLE
2
DIMSTYLE
5
A
330
0
100
AcDbSymbolTable
70
1
100
AcDbDimStyleTable
71
1
0
DIMSTYLE
105
47
330
A
100
AcDbSymbolTableRecord
100
AcDbDimStyleTableRecord
2
Standard
70
0
40
1
41
2.5
42
0.625
43
0.38
44
1.25
45
0
46
0
47
0
48
0
140
2.5
141
0.09
142
0
143
25.4
144
1
145
0
146
1
147
0.625
148
0
71
0
72
0
73
0
74
1
75
0
76
0
77
0
78
0
79
0
170
0
171
2
172
0
173
0
174
0
175
0
176
0
177
0
178
0
179
0
271
4
272
4
273
2
274
2
275
0
276
0
277
2
278
46
279
0
280
0
281
0
282
0
283
1
284
0
285
0
286
0
288
0
289
3
340
Standard
341

371
-2
372
-2
0
ENDTAB
0
TABLE
2
BLOCK_RECORD
5
1
330
0
100
AcDbSymbolTable
70
2
0
BLOCK_RECORD
5
1F
330
1
100
AcDbSymbolTableRecord
100
AcDbBlockTableRecord
2
*Model_Space
70
0
280
1
281
0
0
BLOCK_RECORD
5
1E
330
1
100
AcDbSymbolTableRecord
100
AcDbBlockTableRecord
2
*Paper_Space
70
0
280
1
281
0
0
ENDTAB
0
ENDSEC
0
SECTION
2
BLOCKS
0
BLOCK
5
20
330
1F
100
AcDbEntity
8
0
100
AcDbBlockBegin
2
*Model_Space
70
0
10
0
20
0
30
0
3
*Model_Space
1

0
ENDBLK
5
21
330
1F
100
AcDbEntity
8
0
100
AcDbBlockEnd
0
BLOCK
5
1C
330
1B
100
AcDbEntity
8
0
100
AcDbBlockBegin
2
*Paper_Space
70
0
10
0
20
0
30
0
3
*Paper_Space
1

0
ENDBLK
5
1D
330
1F
100
AcDbEntity
8
0
100
AcDbBlockEnd
0
ENDSEC
0
SECTION
2
ENTITIES
0
LINE
5
48
100
AcDbEntity
8
0
6
ByLayer
62
256
370
-1
100
AcDbLine
10
-365.5
20
-125.54
11
-365.5
21
-83.957
0
LINE
5
49
100
AcDbEntity
8
0
6
ByLayer
62
256
370
-1
100
AcDbLine
10
-365.5
20
-83.957
11
-359.494
21
-83.957
0
LINE
5
4A
100
AcDbEntity
8
0
6
ByLayer
62
256
370
-1
100
AcDbLine
10
-359.494
20
-83.957
11
-359.494
21
-42.374
0
LINE
5
4B
100
AcDbEntity
8
0
6
ByLayer
62
256
370
-1
100
AcDbLine
10
-359.494
20
-42.374
11
-365.5
21
-42.374
0
LINE
5
4C
100
AcDbEntity
8
0
6
ByLayer
62
256
370
-1
100
AcDbLine
10
-365.5
20
-42.374
11
-365.5
21
-0.791
0
LINE
5
4D
100
AcDbEntity
8
0
6
ByLayer
62
256
370
-1
100
AcDbLine
10
-365.5
20
-0.791
11
-359.494
21
-0.791
0
LINE
5
4E
100
AcDbEntity
8
0
6
ByLayer
62
256
370
-1
100
AcDbLine
10
-359.494
20
-0.791
11
-359.494
21
40.792
0
LINE
5
4F
100
AcDbEntity
8
0
6
ByLayer
62
256
370
-1
100
AcDbLine
10
-359.494
20
40.792
11
-365.5
21
40.792
0
LINE
5
50
100
AcDbEntity
8
0
6
ByLayer
62
256
370
-1
100
AcDbLine
10
-365.5
20
40.792
11
-365.5
21
82.375
0
LINE
5
51
100
AcDbEntity
8
0
6
ByLayer
62
256
370
-1
100
AcDbLine
10
-365.5
20
82.375
11
-359.494
21
82.375
0
LINE
5
52
100
AcDbEntity
8
0
6
ByLayer
62
256
370
-1
100
AcDbLine
10
-359.494
20
82.375
11
-359.494
21
123.958
0
LINE
5
53
100
AcDbEntity
8
0
6
ByLayer
62
256
370
-1
100
AcDbLine
10
-359.494
20
123.958
11
-365.5
21
123.958
0
LINE
5
54
100
AcDbEntity
8
0
6
ByLayer
62
256
370
-1
100
AcDbLine
10
-365.5
20
123.958
11
-365.5
21
165.541
0
LINE
5
55
100
AcDbEntity
8
0
6
ByLayer
62
256
370
-1
100
AcDbLine
10
-365.5
20
165.541
11
-359.494
21
165.541
0
LINE
5
56
100
AcDbEntity
8
0
6
ByLayer
62
256
370
-1
100
AcDbLine
10
-359.494
20
165.541
11
-359.494
21
179.994
0
LINE
5
57
100
AcDbEntity
8
0
6
ByLayer
62
256
370
-1
100
AcDbLine
10
-359.494
20
179.994
11
-351.392
21
179.994
0
LINE
5
58
100
AcDbEntity
8
0
6
ByLayer
62
256
370
-1
100
AcDbLine
10
-351.392
20
179.994
11
-351.392
21
186
0
LINE
5
59
100
AcDbEntity
8
0
6
ByLayer
62
256
370
-1
100
AcDbLine
10
-351.392
20
186
11
-322.835
21
186
0
LINE
5
5A
100
AcDbEntity
8
0
6
ByLayer
62
256
370
-1
100
AcDbLine
10
-322.835
20
186
11
-322.835
21
179.994
0
LINE
5
5B
100
AcDbEntity
8
0
6
ByLayer
62
256
370
-1
100
AcDbLine
10
-322.835
20
179.994
11
-294.278
21
179.994
0
LINE
5
5C
100
AcDbEntity
8
0
6
ByLayer
62
256
370
-1
100
AcDbLine
10
-294.278
20
179.994
11
-294.278
21
186
0
LINE
5
5D
100
AcDbEntity
8
0
6
ByLayer
62
256
370
-1
100
AcDbLine
10
-294.278
20
186
11
-265.721
21
186
0
LINE
5
5E
100
AcDbEntity
8
0
6
ByLayer
62
256
370
-1
100
AcDbLine
10
-265.721
20
186
11
-265.721
21
179.994
0
LINE
5
5F
100
AcDbEntity
8
0
6
ByLayer
62
256
370
-1
100
AcDbLine
10
-265.721
20
179.994
11
-237.164
21
179.994
0
LINE
5
60
100
AcDbEntity
8
0
6
ByLayer
62
256
370
-1
100
AcDbLine
10
-237.164
20
179.994
11
-237.164
21
186
0
LINE
5
61
100
AcDbEntity
8
0
6
ByLayer
62
256
370
-1
100
AcDbLine
10
-237.164
20
186
11
-208.607
21
186
0
LINE
5
62
100
AcDbEntity
8
0
6
ByLayer
62
256
370
-1
100
AcDbLine
10
-208.607
20
186
11
-208.607
21
179.994
0
LINE
5
63
100
AcDbEntity
8
0
6
ByLayer
62
256
370
-1
100
AcDbLine
10
-208.607
20
179.994
11
-200.506
21
179.994
0
LINE
5
64
100
AcDbEntity
8
0
6
ByLayer
62
256
370
-1
100
AcDbLine
10
-200.506
20
179.994
11
-200.506
21
165.54
0
LINE
5
65
100
AcDbEntity
8
0
6
ByLayer
62
256
370
-1
100
AcDbLine
10
-200.506
20
165.54
11
-194.5
21
165.54
0
LINE
5
66
100
AcDbEntity
8
0
6
ByLayer
62
256
370
-1
100
AcDbLine
10
-194.5
20
165.54
11
-194.5
21
123.957
0
LINE
5
67
100
AcDbEntity
8
0
6
ByLayer
62
256
370
-1
100
AcDbLine
10
-194.5
20
123.957
11
-200.506
21
123.957
0
LINE
5
68
100
AcDbEntity
8
0
6
ByLayer
62
256
370
-1
100
AcDbLine
10
-200.506
20
123.957
11
-200.506
21
82.374
0
LINE
5
69
100
AcDbEntity
8
0
6
ByLayer
62
256
370
-1
100
AcDbLine
10
-200.506
20
82.374
11
-194.5
21
82.374
0
LINE
5
6A
100
AcDbEntity
8
0
6
ByLayer
62
256
370
-1
100
AcDbLine
10
-194.5
20
82.374
11
-194.5
21
40.791
0
LINE
5
6B
100
AcDbEntity
8
0
6
ByLayer
62
256
370
-1
100
AcDbLine
10
-194.5
20
40.791
11
-200.506
21
40.791
0
LINE
5
6C
100
AcDbEntity
8
0
6
ByLayer
62
256
370
-1
100
AcDbLine
10
-200.506
20
40.791
11
-200.506
21
-0.792
0
LINE
5
6D
100
AcDbEntity
8
0
6
ByLayer
62
256
370
-1
100
AcDbLine
10
-200.506
20
-0.792
11
-194.5
21
-0.792
0
LINE
5
6E
100
AcDbEntity
8
0
6
ByLayer
62
256
370
-1
100
AcDbLine
10
-194.5
20
-0.792
11
-194.5
21
-42.375
0
LINE
5
6F
100
AcDbEntity
8
0
6
ByLayer
62
256
370
-1
100
AcDbLine
10
-194.5
20
-42.375
11
-200.506
21
-42.375
0
LINE
5
70
100
AcDbEntity
8
0
6
ByLayer
62
256
370
-1
100
AcDbLine
10
-200.506
20
-42.375
11
-200.506
21
-83.958
0
LINE
5
71
100
AcDbEntity
8
0
6
ByLayer
62
256
370
-1
100
AcDbLine
10
-200.506
20
-83.958
11
-194.5
21
-83.958
0
LINE
5
72
100
AcDbEntity
8
0
6
ByLayer
62
256
370
-1
100
AcDbLine
10
-194.5
20
-83.958
11
-194.5
21
-125.541
0
LINE
5
73
100
AcDbEntity
8
0
6
ByLayer
62
256
370
-1
100
AcDbLine
10
-194.5
20
-125.541
11
-200.506
21
-125.541
0
LINE
5
74
100
AcDbEntity
8
0
6
ByLayer
62
256
370
-1
100
AcDbLine
10
-200.506
20
-125.541
11
-200.506
21
-139.994
0
LINE
5
75
100
AcDbEntity
8
0
6
ByLayer
62
256
370
-1
100
AcDbLine
10
-200.506
20
-139.994
11
-208.608
21
-139.994
0
LINE
5
76
100
AcDbEntity
8
0
6
ByLayer
62
256
370
-1
100
AcDbLine
10
-208.608
20
-139.994
11
-208.608
21
-146
0
LINE
5
77
100
AcDbEntity
8
0
6
ByLayer
62
256
370
-1
100
AcDbLine
10
-208.608
20
-146
11
-237.165
21
-146
0
LINE
5
78
100
AcDbEntity
8
0
6
ByLayer
62
256
370
-1
100
AcDbLine
10
-237.165
20
-146
11
-237.165
21
-139.994
0
LINE
5
79
100
AcDbEntity
8
0
6
ByLayer
62
256
370
-1
100
AcDbLine
10
-237.165
20
-139.994
11
-265.722
21
-139.994
0
LINE
5
7A
100
AcDbEntity
8
0
6
ByLayer
62
256
370
-1
100
AcDbLine
10
-265.722
20
-139.994
11
-265.722
21
-146
0
LINE
5
7B
100
AcDbEntity
8
0
6
ByLayer
62
256
370
-1
100
AcDbLine
10
-265.722
20
-146
11
-294.279
21
-146
0
LINE
5
7C
100
AcDbEntity
8
0
6
ByLayer
62
256
370
-1
100
AcDbLine
10
-294.279
20
-146
11
-294.279
21
-139.994
0
LINE
5
7D
100
AcDbEntity
8
0
6
ByLayer
62
256
370
-1
100
AcDbLine
10
-294.279
20
-139.994
11
-322.836
21
-139.994
0
LINE
5
7E
100
AcDbEntity
8
0
6
ByLayer
62
256
370
-1
100
AcDbLine
10
-322.836
20
-139.994
11
-322.836
21
-146
0
LINE
5
7F
100
AcDbEntity
8
0
6
ByLayer
62
256
370
-1
100
AcDbLine
10
-322.836
20
-146
11
-351.393
21
-146
0
LINE
5
80
100
AcDbEntity
8
0
6
ByLayer
62
256
370
-1
100
AcDbLine
10
-351.393
20
-146
11
-351.393
21
-139.994
0
LINE
5
81
100
AcDbEntity
8
0
6
ByLayer
62
256
370
-1
100
AcDbLine
10
-351.393
20
-139.994
11
-359.494
21
-139.994
0
LINE
5
82
100
AcDbEntity
8
0
6
ByLayer
62
256
370
-1
100
AcDbLine
10
-359.494
20
-139.994
11
-359.494
21
-125.54
0
LINE
5
83
100
AcDbEntity
8
0
6
ByLayer
62
256
370
-1
100
AcDbLine
10
-359.494
20
-125.54
11
-365.5
21
-125.54
0
LINE
5
84
100
AcDbEntity
8
0
6
ByLayer
62
256
370
-1
100
AcDbLine
10
-362.5
20
-177.5
11
-362.5
21
-152.5
0
LINE
5
85
100
AcDbEntity
8
0
6
ByLayer
62
256
370
-1
100
AcDbLine
10
-362.5
20
-152.5
11
-356.75
21
-152.5
0
LINE
5
86
100
AcDbEntity
8
0
6
ByLayer
62
256
370
-1
100
AcDbLine
10
-356.75
20
-152.5
11
-356.75
21
-158.499
0
LINE
5
87
100
AcDbEntity
8
0
6
ByLayer
62
256
370
-1
100
AcDbLine
10
-356.75
20
-158.499
11
-345.25
21
-158.499
0
LINE
5
88
100
AcDbEntity
8
0
6
ByLayer
62
256
370
-1
100
AcDbLine
10
-345.25
20
-158.499
11
-345.25
21
-152.5
0
LINE
5
89
100
AcDbEntity
8
0
6
ByLayer
62
256
370
-1
100
AcDbLine
10
-345.25
20
-152.5
11
-333.75
21
-152.5
0
LINE
5
8A
100
AcDbEntity
8
0
6
ByLayer
62
256
370
-1
100
AcDbLine
10
-333.75
20
-152.5
11
-333.75
21
-158.499
0
LINE
5
8B
100
AcDbEntity
8
0
6
ByLayer
62
256
370
-1
100
AcDbLine
10
-333.75
20
-158.499
11
-322.25
21
-158.499
0
LINE
5
8C
100
AcDbEntity
8
0
6
ByLayer
62
256
370
-1
100
AcDbLine
10
-322.25
20
-158.499
11
-322.25
21
-152.5
0
LINE
5
8D
100
AcDbEntity
8
0
6
ByLayer
62
256
370
-1
100
AcDbLine
10
-322.25
20
-152.5
11
-310.75
21
-152.5
0
LINE
5
8E
100
AcDbEntity
8
0
6
ByLayer
62
256
370
-1
100
AcDbLine
10
-310.75
20
-152.5
11
-310.75
21
-158.499
0
LINE
5
8F
100
AcDbEntity
8
0
6
ByLayer
62
256
370
-1
100
AcDbLine
10
-310.75
20
-158.499
11
-299.25
21
-158.499
0
LINE
5
90
100
AcDbEntity
8
0
6
ByLayer
62
256
370
-1
100
AcDbLine
10
-299.25
20
-158.499
11
-299.25
21
-152.5
0
LINE
5
91
100
AcDbEntity
8
0
6
ByLayer
62
256
370
-1
100
AcDbLine
10
-299.25
20
-152.5
11
-287.75
21
-152.5
0
LINE
5
92
100
AcDbEntity
8
0
6
ByLayer
62
256
370
-1
100
AcDbLine
10
-287.75
20
-152.5
11
-287.75
21
-158.499
0
LINE
5
93
100
AcDbEntity
8
0
6
ByLayer
62
256
370
-1
100
AcDbLine
10
-287.75
20
-158.499
11
-276.25
21
-158.499
0
LINE
5
94
100
AcDbEntity
8
0
6
ByLayer
62
256
370
-1
100
AcDbLine
10
-276.25
20
-158.499
11
-276.25
21
-152.5
0
LINE
5
95
100
AcDbEntity
8
0
6
ByLayer
62
256
370
-1
100
AcDbLine
10
-276.25
20
-152.5
11
-264.75
21
-152.5
0
LINE
5
96
100
AcDbEntity
8
0
6
ByLayer
62
256
370
-1
100
AcDbLine
10
-264.75
20
-152.5
11
-264.75
21
-158.499
0
LINE
5
97
100
AcDbEntity
8
0
6
ByLayer
62
256
370
-1
100
AcDbLine
10
-264.75
20
-158.499
11
-253.25
21
-158.499
0
LINE
5
98
100
AcDbEntity
8
0
6
ByLayer
62
256
370
-1
100
AcDbLine
10
-253.25
20
-158.499
11
-253.25
21
-152.5
0
LINE
5
99
100
AcDbEntity
8
0
6
ByLayer
62
256
370
-1
100
AcDbLine
10
-253.25
20
-152.5
11
-247.5
21
-152.5
0
LINE
5
9A
100
AcDbEntity
8
0
6
ByLayer
62
256
370
-1
100
AcDbLine
10
-247.5
20
-152.5
11
-247.5
21
-177.5
0
LINE
5
9B
100
AcDbEntity
8
0
6
ByLayer
62
256
370
-1
100
AcDbLine
10
-247.5
20
-177.5
11
-362.5
21
-177.5
0
LINE
5
9C
100
AcDbEntity
8
0
6
ByLayer
62
256
370
-1
100
AcDbLine
10
-242.5
20
-177.5
11
-242.5
21
-152.5
0
LINE
5
9D
100
AcDbEntity
8
0
6
ByLayer
62
256
370
-1
100
AcDbLine
10
-242.5
20
-152.5
11
-236.75
21
-152.5
0
LINE
5
9E
100
AcDbEntity
8
0
6
ByLayer
62
256
370
-1
100
AcDbLine
10
-236.75
20
-152.5
11
-236.75
21
-158.499
0
LINE
5
9F
100
AcDbEntity
8
0
6
ByLayer
62
256
370
-1
100
AcDbLine
10
-236.75
20
-158.499
11
-225.25
21
-158.499
0
LINE
5
A0
100
AcDbEntity
8
0
6
ByLayer
62
256
370
-1
100
AcDbLine
10
-225.25
20
-158.499
11
-225.25
21
-152.5
0
LINE
5
A1
100
AcDbEntity
8
0
6
ByLayer
62
256
370
-1
100
AcDbLine
10
-225.25
20
-152.5
11
-213.75
21
-152.5
0
LINE
5
A2
100
AcDbEntity
8
0
6
ByLayer
62
256
370
-1
100
AcDbLine
10
-213.75
20
-152.5
11
-213.75
21
-158.499
0
LINE
5
A3
100
AcDbEntity
8
0
6
ByLayer
62
256
370
-1
100
AcDbLine
10
-213.75
20
-158.499
11
-202.25
21
-158.499
0
LINE
5
A4
100
AcDbEntity
8
0
6
ByLayer
62
256
370
-1
100
AcDbLine
10
-202.25
20
-158.499
11
-202.25
21
-152.5
0
LINE
5
A5
100
AcDbEntity
8
0
6
ByLayer
62
256
370
-1
100
AcDbLine
10
-202.25
20
-152.5
11
-190.75
21
-152.5
0
LINE
5
A6
100
AcDbEntity
8
0
6
ByLayer
62
256
370
-1
100
AcDbLine
10
-190.75
20
-152.5
11
-190.75
21
-158.499
0
LINE
5
A7
100
AcDbEntity
8
0
6
ByLayer
62
256
370
-1
100
AcDbLine
10
-190.75
20
-158.499
11
-179.25
21
-158.499
0
LINE
5
A8
100
AcDbEntity
8
0
6
ByLayer
62
256
370
-1
100
AcDbLine
10
-179.25
20
-158.499
11
-179.25
21
-152.5
0
LINE
5
A9
100
AcDbEntity
8
0
6
ByLayer
62
256
370
-1
100
AcDbLine
10
-179.25
20
-152.5
11
-167.75
21
-152.5
0
LINE
5
AA
100
AcDbEntity
8
0
6
ByLayer
62
256
370
-1
100
AcDbLine
10
-167.75
20
-152.5
11
-167.75
21
-158.499
0
LINE
5
AB
100
AcDbEntity
8
0
6
ByLayer
62
256
370
-1
100
AcDbLine
10
-167.75
20
-158.499
11
-156.25
21
-158.499
0
LINE
5
AC
100
AcDbEntity
8
0
6
ByLayer
62
256
370
-1
100
AcDbLine
10
-156.25
20
-158.499
11
-156.25
21
-152.5
0
LINE
5
AD
100
AcDbEntity
8
0
6
ByLayer
62
256
370
-1
100
AcDbLine
10
-156.25
20
-152.5
11
-144.75
21
-152.5
0
LINE
5
AE
100
AcDbEntity
8
0
6
ByLayer
62
256
370
-1
100
AcDbLine
10
-144.75
20
-152.5
11
-144.75
21
-158.499
0
LINE
5
AF
100
AcDbEntity
8
0
6
ByLayer
62
256
370
-1
100
AcDbLine
10
-144.75
20
-158.499
11
-133.25
21
-158.499
0
LINE
5
B0
100
AcDbEntity
8
0
6
ByLayer
62
256
370
-1
100
AcDbLine
10
-133.25
20
-158.499
11
-133.25
21
-152.5
0
LINE
5
B1
100
AcDbEntity
8
0
6
ByLayer
62
256
370
-1
100
AcDbLine
10
-133.25
20
-152.5
11
-127.5
21
-152.5
0
LINE
5
B2
100
AcDbEntity
8
0
6
ByLayer
62
256
370
-1
100
AcDbLine
10
-127.5
20
-152.5
11
-127.5
21
-177.5
0
LINE
5
B3
100
AcDbEntity
8
0
6
ByLayer
62
256
370
-1
100
AcDbLine
10
-127.5
20
-177.5
11
-242.5
21
-177.5
0
LINE
5
B4
100
AcDbEntity
8
0
6
ByLayer
62
256
370
-1
100
AcDbLine
10
-185
20
-139.994
11
-185
21
179.994
0
LINE
5
B5
100
AcDbEntity
8
0
6
ByLayer
62
256
370
-1
100
AcDbLine
10
-185
20
179.994
11
-178.617
21
179.994
0
LINE
5
B6
100
AcDbEntity
8
0
6
ByLayer
62
256
370
-1
100
AcDbLine
10
-178.617
20
179.994
11
-178.617
21
186
0
LINE
5
B7
100
AcDbEntity
8
0
6
ByLayer
62
256
370
-1
100
AcDbLine
10
-178.617
20
186
11
-165.591
21
186
0
LINE
5
B8
100
AcDbEntity
8
0
6
ByLayer
62
256
370
-1
100
AcDbLine
10
-165.591
20
186
11
-165.591
21
179.994
0
LINE
5
B9
100
AcDbEntity
8
0
6
ByLayer
62
256
370
-1
100
AcDbLine
10
-165.591
20
179.994
11
-152.565
21
179.994
0
LINE
5
BA
100
AcDbEntity
8
0
6
ByLayer
62
256
370
-1
100
AcDbLine
10
-152.565
20
179.994
11
-152.565
21
186
0
LINE
5
BB
100
AcDbEntity
8
0
6
ByLayer
62
256
370
-1
100
AcDbLine
10
-152.565
20
186
11
-139.539
21
186
0
LINE
5
BC
100
AcDbEntity
8
0
6
ByLayer
62
256
370
-1
100
AcDbLine
10
-139.539
20
186
11
-139.539
21
179.994
0
LINE
5
BD
100
AcDbEntity
8
0
6
ByLayer
62
256
370
-1
100
AcDbLine
10
-139.539
20
179.994
11
-126.513
21
179.994
0
LINE
5
BE
100
AcDbEntity
8
0
6
ByLayer
62
256
370
-1
100
AcDbLine
10
-126.513
20
179.994
11
-126.513
21
186
0
LINE
5
BF
100
AcDbEntity
8
0
6
ByLayer
62
256
370
-1
100
AcDbLine
10
-126.513
20
186
11
-113.487
21
186
0
LINE
5
C0
100
AcDbEntity
8
0
6
ByLayer
62
256
370
-1
100
AcDbLine
10
-113.487
20
186
11
-113.487
21
179.994
0
LINE
5
C1
100
AcDbEntity
8
0
6
ByLayer
62
256
370
-1
100
AcDbLine
10
-113.487
20
179.994
11
-100.461
21
179.994
0
LINE
5
C2
100
AcDbEntity
8
0
6
ByLayer
62
256
370
-1
100
AcDbLine
10
-100.461
20
179.994
11
-100.461
21
186
0
LINE
5
C3
100
AcDbEntity
8
0
6
ByLayer
62
256
370
-1
100
AcDbLine
10
-100.461
20
186
11
-87.435
21
186
0
LINE
5
C4
100
AcDbEntity
8
0
6
ByLayer
62
256
370
-1
100
AcDbLine
10
-87.435
20
186
11
-87.435
21
179.994
0
LINE
5
C5
100
AcDbEntity
8
0
6
ByLayer
62
256
370
-1
100
AcDbLine
10
-87.435
20
179.994
11
-74.409
21
179.994
0
LINE
5
C6
100
AcDbEntity
8
0
6
ByLayer
62
256
370
-1
100
AcDbLine
10
-74.409
20
179.994
11
-74.409
21
186
0
LINE
5
C7
100
AcDbEntity
8
0
6
ByLayer
62
256
370
-1
100
AcDbLine
10
-74.409
20
186
11
-61.383
21
186
0
LINE
5
C8
100
AcDbEntity
8
0
6
ByLayer
62
256
370
-1
100
AcDbLine
10
-61.383
20
186
11
-61.383
21
179.994
0
LINE
5
C9
100
AcDbEntity
8
0
6
ByLayer
62
256
370
-1
100
AcDbLine
10
-61.383
20
179.994
11
-55
21
179.994
0
LINE
5
CA
100
AcDbEntity
8
0
6
ByLayer
62
256
370
-1
100
AcDbLine
10
-55
20
179.994
11
-55
21
165.25
0
LINE
5
CB
100
AcDbEntity
8
0
6
ByLayer
62
256
370
-1
100
AcDbLine
10
-55
20
165.25
11
-60.999
21
165.25
0
LINE
5
CC
100
AcDbEntity
8
0
6
ByLayer
62
256
370
-1
100
AcDbLine
10
-60.999
20
165.25
11
-60.999
21
123.75
0
LINE
5
CD
100
AcDbEntity
8
0
6
ByLayer
62
256
370
-1
100
AcDbLine
10
-60.999
20
123.75
11
-55
21
123.75
0
LINE
5
CE
100
AcDbEntity
8
0
6
ByLayer
62
256
370
-1
100
AcDbLine
10
-55
20
123.75
11
-55
21
82.25
0
LINE
5
CF
100
AcDbEntity
8
0
6
ByLayer
62
256
370
-1
100
AcDbLine
10
-55
20
82.25
11
-60.999
21
82.25
0
LINE
5
D0
100
AcDbEntity
8
0
6
ByLayer
62
256
370
-1
100
AcDbLine
10
-60.999
20
82.25
11
-60.999
21
40.75
0
LINE
5
D1
100
AcDbEntity
8
0
6
ByLayer
62
256
370
-1
100
AcDbLine
10
-60.999
20
40.75
11
-55
21
40.75
0
LINE
5
D2
100
AcDbEntity
8
0
6
ByLayer
62
256
370
-1
100
AcDbLine
10
-55
20
40.75
11
-55
21
-0.75
0
LINE
5
D3
100
AcDbEntity
8
0
6
ByLayer
62
256
370
-1
100
AcDbLine
10
-55
20
-0.75
11
-60.999
21
-0.75
0
LINE
5
D4
100
AcDbEntity
8
0
6
ByLayer
62
256
370
-1
100
AcDbLine
10
-60.999
20
-0.75
11
-60.999
21
-42.25
0
LINE
5
D5
100
AcDbEntity
8
0
6
ByLayer
62
256
370
-1
100
AcDbLine
10
-60.999
20
-42.25
11
-55
21
-42.25
0
LINE
5
D6
100
AcDbEntity
8
0
6
ByLayer
62
256
370
-1
100
AcDbLine
10
-55
20
-42.25
11
-55
21
-83.75
0
LINE
5
D7
100
AcDbEntity
8
0
6
ByLayer
62
256
370
-1
100
AcDbLine
10
-55
20
-83.75
11
-60.999
21
-83.75
0
LINE
5
D8
100
AcDbEntity
8
0
6
ByLayer
62
256
370
-1
100
AcDbLine
10
-60.999
20
-83.75
11
-60.999
21
-125.25
0
LINE
5
D9
100
AcDbEntity
8
0
6
ByLayer
62
256
370
-1
100
AcDbLine
10
-60.999
20
-125.25
11
-55
21
-125.25
0
LINE
5
DA
100
AcDbEntity
8
0
6
ByLayer
62
256
370
-1
100
AcDbLine
10
-55
20
-125.25
11
-55
21
-139.994
0
LINE
5
DB
100
AcDbEntity
8
0
6
ByLayer
62
256
370
-1
100
AcDbLine
10
-55
20
-139.994
11
-61.383
21
-139.994
0
LINE
5
DC
100
AcDbEntity
8
0
6
ByLayer
62
256
370
-1
100
AcDbLine
10
-61.383
20
-139.994
11
-61.383
21
-146
0
LINE
5
DD
100
AcDbEntity
8
0
6
ByLayer
62
256
370
-1
100
AcDbLine
10
-61.383
20
-146
11
-74.409
21
-146
0
LINE
5
DE
100
AcDbEntity
8
0
6
ByLayer
62
256
370
-1
100
AcDbLine
10
-74.409
20
-146
11
-74.409
21
-139.994
0
LINE
5
DF
100
AcDbEntity
8
0
6
ByLayer
62
256
370
-1
100
AcDbLine
10
-74.409
20
-139.994
11
-87.435
21
-139.994
0
LINE
5
E0
100
AcDbEntity
8
0
6
ByLayer
62
256
370
-1
100
AcDbLine
10
-87.435
20
-139.994
11
-87.435
21
-146
0
LINE
5
E1
100
AcDbEntity
8
0
6
ByLayer
62
256
370
-1
100
AcDbLine
10
-87.435
20
-146
11
-100.461
21
-146
0
LINE
5
E2
100
AcDbEntity
8
0
6
ByLayer
62
256
370
-1
100
AcDbLine
10
-100.461
20
-146
11
-100.461
21
-139.994
0
LINE
5
E3
100
AcDbEntity
8
0
6
ByLayer
62
256
370
-1
100
AcDbLine
10
-100.461
20
-139.994
11
-113.487
21
-139.994
0
LINE
5
E4
100
AcDbEntity
8
0
6
ByLayer
62
256
370
-1
100
AcDbLine
10
-113.487
20
-139.994
11
-113.487
21
-146
0
LINE
5
E5
100
AcDbEntity
8
0
6
ByLayer
62
256
370
-1
100
AcDbLine
10
-113.487
20
-146
11
-126.513
21
-146
0
LINE
5
E6
100
AcDbEntity
8
0
6
ByLayer
62
256
370
-1
100
AcDbLine
10
-126.513
20
-146
11
-126.513
21
-139.994
0
LINE
5
E7
100
AcDbEntity
8
0
6
ByLayer
62
256
370
-1
100
AcDbLine
10
-126.513
20
-139.994
11
-139.539
21
-139.994
0
LINE
5
E8
100
AcDbEntity
8
0
6
ByLayer
62
256
370
-1
100
AcDbLine
10
-139.539
20
-139.994
11
-139.539
21
-146
0
LINE
5
E9
100
AcDbEntity
8
0
6
ByLayer
62
256
370
-1
100
AcDbLine
10
-139.539
20
-146
11
-152.565
21
-146
0
LINE
5
EA
100
AcDbEntity
8
0
6
ByLayer
62
256
370
-1
100
AcDbLine
10
-152.565
20
-146
11
-152.565
21
-139.994
0
LINE
5
EB
100
AcDbEntity
8
0
6
ByLayer
62
256
370
-1
100
AcDbLine
10
-152.565
20
-139.994
11
-165.591
21
-139.994
0
LINE
5
EC
100
AcDbEntity
8
0
6
ByLayer
62
256
370
-1
100
AcDbLine
10
-165.591
20
-139.994
11
-165.591
21
-146
0
LINE
5
ED
100
AcDbEntity
8
0
6
ByLayer
62
256
370
-1
100
AcDbLine
10
-165.591
20
-146
11
-178.617
21
-146
0
LINE
5
EE
100
AcDbEntity
8
0
6
ByLayer
62
256
370
-1
100
AcDbLine
10
-178.617
20
-146
11
-178.617
21
-139.994
0
LINE
5
EF
100
AcDbEntity
8
0
6
ByLayer
62
256
370
-1
100
AcDbLine
10
-178.617
20
-139.994
11
-185
21
-139.994
0
LINE
5
F0
100
AcDbEntity
8
0
6
ByLayer
62
256
370
-1
100
AcDbLine
10
-122.5
20
-177.5
11
-122.5
21
-152.5
0
LINE
5
F1
100
AcDbEntity
8
0
6
ByLayer
62
256
370
-1
100
AcDbLine
10
-122.5
20
-152.5
11
-116.75
21
-152.5
0
LINE
5
F2
100
AcDbEntity
8
0
6
ByLayer
62
256
370
-1
100
AcDbLine
10
-116.75
20
-152.5
11
-116.75
21
-158.499
0
LINE
5
F3
100
AcDbEntity
8
0
6
ByLayer
62
256
370
-1
100
AcDbLine
10
-116.75
20
-158.499
11
-105.25
21
-158.499
0
LINE
5
F4
100
AcDbEntity
8
0
6
ByLayer
62
256
370
-1
100
AcDbLine
10
-105.25
20
-158.499
11
-105.25
21
-152.5
0
LINE
5
F5
100
AcDbEntity
8
0
6
ByLayer
62
256
370
-1
100
AcDbLine
10
-105.25
20
-152.5
11
-93.75
21
-152.5
0
LINE
5
F6
100
AcDbEntity
8
0
6
ByLayer
62
256
370
-1
100
AcDbLine
10
-93.75
20
-152.5
11
-93.75
21
-158.499
0
LINE
5
F7
100
AcDbEntity
8
0
6
ByLayer
62
256
370
-1
100
AcDbLine
10
-93.75
20
-158.499
11
-82.25
21
-158.499
0
LINE
5
F8
100
AcDbEntity
8
0
6
ByLayer
62
256
370
-1
100
AcDbLine
10
-82.25
20
-158.499
11
-82.25
21
-152.5
0
LINE
5
F9
100
AcDbEntity
8
0
6
ByLayer
62
256
370
-1
100
AcDbLine
10
-82.25
20
-152.5
11
-70.75
21
-152.5
0
LINE
5
FA
100
AcDbEntity
8
0
6
ByLayer
62
256
370
-1
100
AcDbLine
10
-70.75
20
-152.5
11
-70.75
21
-158.499
0
LINE
5
FB
100
AcDbEntity
8
0
6
ByLayer
62
256
370
-1
100
AcDbLine
10
-70.75
20
-158.499
11
-59.25
21
-158.499
0
LINE
5
FC
100
AcDbEntity
8
0
6
ByLayer
62
256
370
-1
100
AcDbLine
10
-59.25
20
-158.499
11
-59.25
21
-152.5
0
LINE
5
FD
100
AcDbEntity
8
0
6
ByLayer
62
256
370
-1
100
AcDbLine
10
-59.25
20
-152.5
11
-47.75
21
-152.5
0
LINE
5
FE
100
AcDbEntity
8
0
6
ByLayer
62
256
370
-1
100
AcDbLine
10
-47.75
20
-152.5
11
-47.75
21
-158.499
0
LINE
5
FF
100
AcDbEntity
8
0
6
ByLayer
62
256
370
-1
100
AcDbLine
10
-47.75
20
-158.499
11
-36.25
21
-158.499
0
LINE
5
100
100
AcDbEntity
8
0
6
ByLayer
62
256
370
-1
100
AcDbLine
10
-36.25
20
-158.499
11
-36.25
21
-152.5
0
LINE
5
101
100
AcDbEntity
8
0
6
ByLayer
62
256
370
-1
100
AcDbLine
10
-36.25
20
-152.5
11
-24.75
21
-152.5
0
LINE
5
102
100
AcDbEntity
8
0
6
ByLayer
62
256
370
-1
100
AcDbLine
10
-24.75
20
-152.5
11
-24.75
21
-158.499
0
LINE
5
103
100
AcDbEntity
8
0
6
ByLayer
62
256
370
-1
100
AcDbLine
10
-24.75
20
-158.499
11
-13.25
21
-158.499
0
LINE
5
104
100
AcDbEntity
8
0
6
ByLayer
62
256
370
-1
100
AcDbLine
10
-13.25
20
-158.499
11
-13.25
21
-152.5
0
LINE
5
105
100
AcDbEntity
8
0
6
ByLayer
62
256
370
-1
100
AcDbLine
10
-13.25
20
-152.5
11
-7.5
21
-152.5
0
LINE
5
106
100
AcDbEntity
8
0
6
ByLayer
62
256
370
-1
100
AcDbLine
10
-7.5
20
-152.5
11
-7.5
21
-177.5
0
LINE
5
107
100
AcDbEntity
8
0
6
ByLayer
62
256
370
-1
100
AcDbLine
10
-7.5
20
-177.5
11
-122.5
21
-177.5
0
LINE
5
108
100
AcDbEntity
8
0
6
ByLayer
62
256
370
-1
100
AcDbLine
10
-45
20
-139.994
11
-45
21
179.994
0
LINE
5
109
100
AcDbEntity
8
0
6
ByLayer
62
256
370
-1
100
AcDbLine
10
-45
20
179.994
11
-38.617
21
179.994
0
LINE
5
10A
100
AcDbEntity
8
0
6
ByLayer
62
256
370
-1
100
AcDbLine
10
-38.617
20
179.994
11
-38.617
21
186
0
LINE
5
10B
100
AcDbEntity
8
0
6
ByLayer
62
256
370
-1
100
AcDbLine
10
-38.617
20
186
11
-25.591
21
186
0
LINE
5
10C
100
AcDbEntity
8
0
6
ByLayer
62
256
370
-1
100
AcDbLine
10
-25.591
20
186
11
-25.591
21
179.994
0
LINE
5
10D
100
AcDbEntity
8
0
6
ByLayer
62
256
370
-1
100
AcDbLine
10
-25.591
20
179.994
11
-12.565
21
179.994
0
LINE
5
10E
100
AcDbEntity
8
0
6
ByLayer
62
256
370
-1
100
AcDbLine
10
-12.565
20
179.994
11
-12.565
21
186
0
LINE
5
10F
100
AcDbEntity
8
0
6
ByLayer
62
256
370
-1
100
AcDbLine
10
-12.565
20
186
11
0.461
21
186
0
LINE
5
110
100
AcDbEntity
8
0
6
ByLayer
62
256
370
-1
100
AcDbLine
10
0.461
20
186
11
0.461
21
179.994
0
LINE
5
111
100
AcDbEntity
8
0
6
ByLayer
62
256
370
-1
100
AcDbLine
10
0.461
20
179.994
11
13.487
21
179.994
0
LINE
5
112
100
AcDbEntity
8
0
6
ByLayer
62
256
370
-1
100
AcDbLine
10
13.487
20
179.994
11
13.487
21
186
0
LINE
5
113
100
AcDbEntity
8
0
6
ByLayer
62
256
370
-1
100
AcDbLine
10
13.487
20
186
11
26.513
21
186
0
LINE
5
114
100
AcDbEntity
8
0
6
ByLayer
62
256
370
-1
100
AcDbLine
10
26.513
20
186
11
26.513
21
179.994
0
LINE
5
115
100
AcDbEntity
8
0
6
ByLayer
62
256
370
-1
100
AcDbLine
10
26.513
20
179.994
11
39.539
21
179.994
0
LINE
5
116
100
AcDbEntity
8
0
6
ByLayer
62
256
370
-1
100
AcDbLine
10
39.539
20
179.994
11
39.539
21
186
0
LINE
5
117
100
AcDbEntity
8
0
6
ByLayer
62
256
370
-1
100
AcDbLine
10
39.539
20
186
11
52.565
21
186
0
LINE
5
118
100
AcDbEntity
8
0
6
ByLayer
62
256
370
-1
100
AcDbLine
10
52.565
20
186
11
52.565
21
179.994
0
LINE
5
119
100
AcDbEntity
8
0
6
ByLayer
62
256
370
-1
100
AcDbLine
10
52.565
20
179.994
11
65.591
21
179.994
0
LINE
5
11A
100
AcDbEntity
8
0
6
ByLayer
62
256
370
-1
100
AcDbLine
10
65.591
20
179.994
11
65.591
21
186
0
LINE
5
11B
100
AcDbEntity
8
0
6
ByLayer
62
256
370
-1
100
AcDbLine
10
65.591
20
186
11
78.617
21
186
0
LINE
5
11C
100
AcDbEntity
8
0
6
ByLayer
62
256
370
-1
100
AcDbLine
10
78.617
20
186
11
78.617
21
179.994
0
LINE
5
11D
100
AcDbEntity
8
0
6
ByLayer
62
256
370
-1
100
AcDbLine
10
78.617
20
179.994
11
85
21
179.994
0
LINE
5
11E
100
AcDbEntity
8
0
6
ByLayer
62
256
370
-1
100
AcDbLine
10
85
20
179.994
11
85
21
165.25
0
LINE
5
11F
100
AcDbEntity
8
0
6
ByLayer
62
256
370
-1
100
AcDbLine
10
85
20
165.25
11
79.001
21
165.25
0
LINE
5
120
100
AcDbEntity
8
0
6
ByLayer
62
256
370
-1
100
AcDbLine
10
79.001
20
165.25
11
79.001
21
123.75
0
LINE
5
121
100
AcDbEntity
8
0
6
ByLayer
62
256
370
-1
100
AcDbLine
10
79.001
20
123.75
11
85
21
123.75
0
LINE
5
122
100
AcDbEntity
8
0
6
ByLayer
62
256
370
-1
100
AcDbLine
10
85
20
123.75
11
85
21
82.25
0
LINE
5
123
100
AcDbEntity
8
0
6
ByLayer
62
256
370
-1
100
AcDbLine
10
85
20
82.25
11
79.001
21
82.25
0
LINE
5
124
100
AcDbEntity
8
0
6
ByLayer
62
256
370
-1
100
AcDbLine
10
79.001
20
82.25
11
79.001
21
40.75
0
LINE
5
125
100
AcDbEntity
8
0
6
ByLayer
62
256
370
-1
100
AcDbLine
10
79.001
20
40.75
11
85
21
40.75
0
LINE
5
126
100
AcDbEntity
8
0
6
ByLayer
62
256
370
-1
100
AcDbLine
10
85
20
40.75
11
85
21
-0.75
0
LINE
5
127
100
AcDbEntity
8
0
6
ByLayer
62
256
370
-1
100
AcDbLine
10
85
20
-0.75
11
79.001
21
-0.75
0
LINE
5
128
100
AcDbEntity
8
0
6
ByLayer
62
256
370
-1
100
AcDbLine
10
79.001
20
-0.75
11
79.001
21
-42.25
0
LINE
5
129
100
AcDbEntity
8
0
6
ByLayer
62
256
370
-1
100
AcDbLine
10
79.001
20
-42.25
11
85
21
-42.25
0
LINE
5
12A
100
AcDbEntity
8
0
6
ByLayer
62
256
370
-1
100
AcDbLine
10
85
20
-42.25
11
85
21
-83.75
0
LINE
5
12B
100
AcDbEntity
8
0
6
ByLayer
62
256
370
-1
100
AcDbLine
10
85
20
-83.75
11
79.001
21
-83.75
0
LINE
5
12C
100
AcDbEntity
8
0
6
ByLayer
62
256
370
-1
100
AcDbLine
10
79.001
20
-83.75
11
79.001
21
-125.25
0
LINE
5
12D
100
AcDbEntity
8
0
6
ByLayer
62
256
370
-1
100
AcDbLine
10
79.001
20
-125.25
11
85
21
-125.25
0
LINE
5
12E
100
AcDbEntity
8
0
6
ByLayer
62
256
370
-1
100
AcDbLine
10
85
20
-125.25
11
85
21
-139.994
0
LINE
5
12F
100
AcDbEntity
8
0
6
ByLayer
62
256
370
-1
100
AcDbLine
10
85
20
-139.994
11
78.617
21
-139.994
0
LINE
5
130
100
AcDbEntity
8
0
6
ByLayer
62
256
370
-1
100
AcDbLine
10
78.617
20
-139.994
11
78.617
21
-146
0
LINE
5
131
100
AcDbEntity
8
0
6
ByLayer
62
256
370
-1
100
AcDbLine
10
78.617
20
-146
11
65.591
21
-146
0
LINE
5
132
100
AcDbEntity
8
0
6
ByLayer
62
256
370
-1
100
AcDbLine
10
65.591
20
-146
11
65.591
21
-139.994
0
LINE
5
133
100
AcDbEntity
8
0
6
ByLayer
62
256
370
-1
100
AcDbLine
10
65.591
20
-139.994
11
52.565
21
-139.994
0
LINE
5
134
100
AcDbEntity
8
0
6
ByLayer
62
256
370
-1
100
AcDbLine
10
52.565
20
-139.994
11
52.565
21
-146
0
LINE
5
135
100
AcDbEntity
8
0
6
ByLayer
62
256
370
-1
100
AcDbLine
10
52.565
20
-146
11
39.539
21
-146
0
LINE
5
136
100
AcDbEntity
8
0
6
ByLayer
62
256
370
-1
100
AcDbLine
10
39.539
20
-146
11
39.539
21
-139.994
0
LINE
5
137
100
AcDbEntity
8
0
6
ByLayer
62
256
370
-1
100
AcDbLine
10
39.539
20
-139.994
11
26.513
21
-139.994
0
LINE
5
138
100
AcDbEntity
8
0
6
ByLayer
62
256
370
-1
100
AcDbLine
10
26.513
20
-139.994
11
26.513
21
-146
0
LINE
5
139
100
AcDbEntity
8
0
6
ByLayer
62
256
370
-1
100
AcDbLine
10
26.513
20
-146
11
13.487
21
-146
0
LINE
5
13A
100
AcDbEntity
8
0
6
ByLayer
62
256
370
-1
100
AcDbLine
10
13.487
20
-146
11
13.487
21
-139.994
0
LINE
5
13B
100
AcDbEntity
8
0
6
ByLayer
62
256
370
-1
100
AcDbLine
10
13.487
20
-139.994
11
0.461
21
-139.994
0
LINE
5
13C
100
AcDbEntity
8
0
6
ByLayer
62
256
370
-1
100
AcDbLine
10
0.461
20
-139.994
11
0.461
21
-146
0
LINE
5
13D
100
AcDbEntity
8
0
6
ByLayer
62
256
370
-1
100
AcDbLine
10
0.461
20
-146
11
-12.565
21
-146
0
LINE
5
13E
100
AcDbEntity
8
0
6
ByLayer
62
256
370
-1
100
AcDbLine
10
-12.565
20
-146
11
-12.565
21
-139.994
0
LINE
5
13F
100
AcDbEntity
8
0
6
ByLayer
62
256
370
-1
100
AcDbLine
10
-12.565
20
-139.994
11
-25.591
21
-139.994
0
LINE
5
140
100
AcDbEntity
8
0
6
ByLayer
62
256
370
-1
100
AcDbLine
10
-25.591
20
-139.994
11
-25.591
21
-146
0
LINE
5
141
100
AcDbEntity
8
0
6
ByLayer
62
256
370
-1
100
AcDbLine
10
-25.591
20
-146
11
-38.617
21
-146
0
LINE
5
142
100
AcDbEntity
8
0
6
ByLayer
62
256
370
-1
100
AcDbLine
10
-38.617
20
-146
11
-38.617
21
-139.994
0
LINE
5
143
100
AcDbEntity
8
0
6
ByLayer
62
256
370
-1
100
AcDbLine
10
-38.617
20
-139.994
11
-45
21
-139.994
0
LINE
5
144
100
AcDbEntity
8
0
6
ByLayer
62
256
370
-1
100
AcDbLine
10
-2.5
20
-187.5
11
-2.5
21
-162.5
0
LINE
5
145
100
AcDbEntity
8
0
6
ByLayer
62
256
370
-1
100
AcDbLine
10
-2.5
20
-162.5
11
3.25
21
-162.5
0
LINE
5
146
100
AcDbEntity
8
0
6
ByLayer
62
256
370
-1
100
AcDbLine
10
3.25
20
-162.5
11
3.25
21
-168.499
0
LINE
5
147
100
AcDbEntity
8
0
6
ByLayer
62
256
370
-1
100
AcDbLine
10
3.25
20
-168.499
11
14.75
21
-168.499
0
LINE
5
148
100
AcDbEntity
8
0
6
ByLayer
62
256
370
-1
100
AcDbLine
10
14.75
20
-168.499
11
14.75
21
-162.5
0
LINE
5
149
100
AcDbEntity
8
0
6
ByLayer
62
256
370
-1
100
AcDbLine
10
14.75
20
-162.5
11
26.25
21
-162.5
0
LINE
5
14A
100
AcDbEntity
8
0
6
ByLayer
62
256
370
-1
100
AcDbLine
10
26.25
20
-162.5
11
26.25
21
-168.499
0
LINE
5
14B
100
AcDbEntity
8
0
6
ByLayer
62
256
370
-1
100
AcDbLine
10
26.25
20
-168.499
11
37.75
21
-168.499
0
LINE
5
14C
100
AcDbEntity
8
0
6
ByLayer
62
256
370
-1
100
AcDbLine
10
37.75
20
-168.499
11
37.75
21
-162.5
0
LINE
5
14D
100
AcDbEntity
8
0
6
ByLayer
62
256
370
-1
100
AcDbLine
10
37.75
20
-162.5
11
49.25
21
-162.5
0
LINE
5
14E
100
AcDbEntity
8
0
6
ByLayer
62
256
370
-1
100
AcDbLine
10
49.25
20
-162.5
11
49.25
21
-168.499
0
LINE
5
14F
100
AcDbEntity
8
0
6
ByLayer
62
256
370
-1
100
AcDbLine
10
49.25
20
-168.499
11
60.75
21
-168.499
0
LINE
5
150
100
AcDbEntity
8
0
6
ByLayer
62
256
370
-1
100
AcDbLine
10
60.75
20
-168.499
11
60.75
21
-162.5
0
LINE
5
151
100
AcDbEntity
8
0
6
ByLayer
62
256
370
-1
100
AcDbLine
10
60.75
20
-162.5
11
72.25
21
-162.5
0
LINE
5
152
100
AcDbEntity
8
0
6
ByLayer
62
256
370
-1
100
AcDbLine
10
72.25
20
-162.5
11
72.25
21
-168.499
0
LINE
5
153
100
AcDbEntity
8
0
6
ByLayer
62
256
370
-1
100
AcDbLine
10
72.25
20
-168.499
11
83.75
21
-168.499
0
LINE
5
154
100
AcDbEntity
8
0
6
ByLayer
62
256
370
-1
100
AcDbLine
10
83.75
20
-168.499
11
83.75
21
-162.5
0
LINE
5
155
100
AcDbEntity
8
0
6
ByLayer
62
256
370
-1
100
AcDbLine
10
83.75
20
-162.5
11
95.25
21
-162.5
0
LINE
5
156
100
AcDbEntity
8
0
6
ByLayer
62
256
370
-1
100
AcDbLine
10
95.25
20
-162.5
11
95.25
21
-168.499
0
LINE
5
157
100
AcDbEntity
8
0
6
ByLayer
62
256
370
-1
100
AcDbLine
10
95.25
20
-168.499
11
106.75
21
-168.499
0
LINE
5
158
100
AcDbEntity
8
0
6
ByLayer
62
256
370
-1
100
AcDbLine
10
106.75
20
-168.499
11
106.75
21
-162.5
0
LINE
5
159
100
AcDbEntity
8
0
6
ByLayer
62
256
370
-1
100
AcDbLine
10
106.75
20
-162.5
11
112.5
21
-162.5
0
LINE
5
15A
100
AcDbEntity
8
0
6
ByLayer
62
256
370
-1
100
AcDbLine
10
112.5
20
-162.5
11
112.5
21
-187.5
0
LINE
5
15B
100
AcDbEntity
8
0
6
ByLayer
62
256
370
-1
100
AcDbLine
10
112.5
20
-187.5
11
-2.5
21
-187.5
0
LINE
5
15C
100
AcDbEntity
8
0
6
ByLayer
62
256
370
-1
100
AcDbLine
10
95
20
-158.5
11
95
21
-144.25
0
LINE
5
15D
100
AcDbEntity
8
0
6
ByLayer
62
256
370
-1
100
AcDbLine
10
95
20
-144.25
11
100.999
21
-144.25
0
LINE
5
15E
100
AcDbEntity
8
0
6
ByLayer
62
256
370
-1
100
AcDbLine
10
100.999
20
-144.25
11
100.999
21
-115.75
0
LINE
5
15F
100
AcDbEntity
8
0
6
ByLayer
62
256
370
-1
100
AcDbLine
10
100.999
20
-115.75
11
95
21
-115.75
0
LINE
5
160
100
AcDbEntity
8
0
6
ByLayer
62
256
370
-1
100
AcDbLine
10
95
20
-115.75
11
95
21
-87.25
0
LINE
5
161
100
AcDbEntity
8
0
6
ByLayer
62
256
370
-1
100
AcDbLine
10
95
20
-87.25
11
100.999
21
-87.25
0
LINE
5
162
100
AcDbEntity
8
0
6
ByLayer
62
256
370
-1
100
AcDbLine
10
100.999
20
-87.25
11
100.999
21
-58.75
0
LINE
5
163
100
AcDbEntity
8
0
6
ByLayer
62
256
370
-1
100
AcDbLine
10
100.999
20
-58.75
11
95
21
-58.75
0
LINE
5
164
100
AcDbEntity
8
0
6
ByLayer
62
256
370
-1
100
AcDbLine
10
95
20
-58.75
11
95
21
-30.25
0
LINE
5
165
100
AcDbEntity
8
0
6
ByLayer
62
256
370
-1
100
AcDbLine
10
95
20
-30.25
11
100.999
21
-30.25
0
LINE
5
166
100
AcDbEntity
8
0
6
ByLayer
62
256
370
-1
100
AcDbLine
10
100.999
20
-30.25
11
100.999
21
-1.75
0
LINE
5
167
100
AcDbEntity
8
0
6
ByLayer
62
256
370
-1
100
AcDbLine
10
100.999
20
-1.75
11
95
21
-1.75
0
LINE
5
168
100
AcDbEntity
8
0
6
ByLayer
62
256
370
-1
100
AcDbLine
10
95
20
-1.75
11
95
21
12.5
0
LINE
5
169
100
AcDbEntity
8
0
6
ByLayer
62
256
370
-1
100
AcDbLine
10
95
20
12.5
11
101.5
21
12.5
0
LINE
5
16A
100
AcDbEntity
8
0
6
ByLayer
62
256
370
-1
100
AcDbLine
10
101.5
20
12.5
11
101.5
21
6.5
0
LINE
5
16B
100
AcDbEntity
8
0
6
ByLayer
62
256
370
-1
100
AcDbLine
10
101.5
20
6.5
11
114.5
21
6.5
0
LINE
5
16C
100
AcDbEntity
8
0
6
ByLayer
62
256
370
-1
100
AcDbLine
10
114.5
20
6.5
11
114.5
21
12.5
0
LINE
5
16D
100
AcDbEntity
8
0
6
ByLayer
62
256
370
-1
100
AcDbLine
10
114.5
20
12.5
11
127.5
21
12.5
0
LINE
5
16E
100
AcDbEntity
8
0
6
ByLayer
62
256
370
-1
100
AcDbLine
10
127.5
20
12.5
11
127.5
21
6.5
0
LINE
5
16F
100
AcDbEntity
8
0
6
ByLayer
62
256
370
-1
100
AcDbLine
10
127.5
20
6.5
11
140.5
21
6.5
0
LINE
5
170
100
AcDbEntity
8
0
6
ByLayer
62
256
370
-1
100
AcDbLine
10
140.5
20
6.5
11
140.5
21
12.5
0
LINE
5
171
100
AcDbEntity
8
0
6
ByLayer
62
256
370
-1
100
AcDbLine
10
140.5
20
12.5
11
153.5
21
12.5
0
LINE
5
172
100
AcDbEntity
8
0
6
ByLayer
62
256
370
-1
100
AcDbLine
10
153.5
20
12.5
11
153.5
21
6.5
0
LINE
5
173
100
AcDbEntity
8
0
6
ByLayer
62
256
370
-1
100
AcDbLine
10
153.5
20
6.5
11
166.5
21
6.5
0
LINE
5
174
100
AcDbEntity
8
0
6
ByLayer
62
256
370
-1
100
AcDbLine
10
166.5
20
6.5
11
166.5
21
12.5
0
LINE
5
175
100
AcDbEntity
8
0
6
ByLayer
62
256
370
-1
100
AcDbLine
10
166.5
20
12.5
11
179.5
21
12.5
0
LINE
5
176
100
AcDbEntity
8
0
6
ByLayer
62
256
370
-1
100
AcDbLine
10
179.5
20
12.5
11
179.5
21
6.5
0
LINE
5
177
100
AcDbEntity
8
0
6
ByLayer
62
256
370
-1
100
AcDbLine
10
179.5
20
6.5
11
192.5
21
6.5
0
LINE
5
178
100
AcDbEntity
8
0
6
ByLayer
62
256
370
-1
100
AcDbLine
10
192.5
20
6.5
11
192.5
21
12.5
0
LINE
5
179
100
AcDbEntity
8
0
6
ByLayer
62
256
370
-1
100
AcDbLine
10
192.5
20
12.5
11
205.5
21
12.5
0
LINE
5
17A
100
AcDbEntity
8
0
6
ByLayer
62
256
370
-1
100
AcDbLine
10
205.5
20
12.5
11
205.5
21
6.5
0
LINE
5
17B
100
AcDbEntity
8
0
6
ByLayer
62
256
370
-1
100
AcDbLine
10
205.5
20
6.5
11
218.5
21
6.5
0
LINE
5
17C
100
AcDbEntity
8
0
6
ByLayer
62
256
370
-1
100
AcDbLine
10
218.5
20
6.5
11
218.5
21
12.5
0
LINE
5
17D
100
AcDbEntity
8
0
6
ByLayer
62
256
370
-1
100
AcDbLine
10
218.5
20
12.5
11
225
21
12.5
0
LINE
5
17E
100
AcDbEntity
8
0
6
ByLayer
62
256
370
-1
100
AcDbLine
10
225
20
12.5
11
225
21
-158.5
0
LINE
5
17F
100
AcDbEntity
8
0
6
ByLayer
62
256
370
-1
100
AcDbLine
10
225
20
-158.5
11
218.5
21
-158.5
0
LINE
5
180
100
AcDbEntity
8
0
6
ByLayer
62
256
370
-1
100
AcDbLine
10
218.5
20
-158.5
11
218.5
21
-152.5
0
LINE
5
181
100
AcDbEntity
8
0
6
ByLayer
62
256
370
-1
100
AcDbLine
10
218.5
20
-152.5
11
205.5
21
-152.5
0
LINE
5
182
100
AcDbEntity
8
0
6
ByLayer
62
256
370
-1
100
AcDbLine
10
205.5
20
-152.5
11
205.5
21
-158.5
0
LINE
5
183
100
AcDbEntity
8
0
6
ByLayer
62
256
370
-1
100
AcDbLine
10
205.5
20
-158.5
11
192.5
21
-158.5
0
LINE
5
184
100
AcDbEntity
8
0
6
ByLayer
62
256
370
-1
100
AcDbLine
10
192.5
20
-158.5
11
192.5
21
-152.5
0
LINE
5
185
100
AcDbEntity
8
0
6
ByLayer
62
256
370
-1
100
AcDbLine
10
192.5
20
-152.5
11
179.5
21
-152.5
0
LINE
5
186
100
AcDbEntity
8
0
6
ByLayer
62
256
370
-1
100
AcDbLine
10
179.5
20
-152.5
11
179.5
21
-158.5
0
LINE
5
187
100
AcDbEntity
8
0
6
ByLayer
62
256
370
-1
100
AcDbLine
10
179.5
20
-158.5
11
166.5
21
-158.5
0
LINE
5
188
100
AcDbEntity
8
0
6
ByLayer
62
256
370
-1
100
AcDbLine
10
166.5
20
-158.5
11
166.5
21
-152.5
0
LINE
5
189
100
AcDbEntity
8
0
6
ByLayer
62
256
370
-1
100
AcDbLine
10
166.5
20
-152.5
11
153.5
21
-152.5
0
LINE
5
18A
100
AcDbEntity
8
0
6
ByLayer
62
256
370
-1
100
AcDbLine
10
153.5
20
-152.5
11
153.5
21
-158.5
0
LINE
5
18B
100
AcDbEntity
8
0
6
ByLayer
62
256
370
-1
100
AcDbLine
10
153.5
20
-158.5
11
140.5
21
-158.5
0
LINE
5
18C
100
AcDbEntity
8
0
6
ByLayer
62
256
370
-1
100
AcDbLine
10
140.5
20
-158.5
11
140.5
21
-152.5
0
LINE
5
18D
100
AcDbEntity
8
0
6
ByLayer
62
256
370
-1
100
AcDbLine
10
140.5
20
-152.5
11
127.5
21
-152.5
0
LINE
5
18E
100
AcDbEntity
8
0
6
ByLayer
62
256
370
-1
100
AcDbLine
10
127.5
20
-152.5
11
127.5
21
-158.5
0
LINE
5
18F
100
AcDbEntity
8
0
6
ByLayer
62
256
370
-1
100
AcDbLine
10
127.5
20
-158.5
11
114.5
21
-158.5
0
LINE
5
190
100
AcDbEntity
8
0
6
ByLayer
62
256
370
-1
100
AcDbLine
10
114.5
20
-158.5
11
114.5
21
-152.5
0
LINE
5
191
100
AcDbEntity
8
0
6
ByLayer
62
256
370
-1
100
AcDbLine
10
114.5
20
-152.5
11
101.5
21
-152.5
0
LINE
5
192
100
AcDbEntity
8
0
6
ByLayer
62
256
370
-1
100
AcDbLine
10
101.5
20
-152.5
11
101.5
21
-158.5
0
LINE
5
193
100
AcDbEntity
8
0
6
ByLayer
62
256
370
-1
100
AcDbLine
10
101.5
20
-158.5
11
95
21
-158.5
0
LINE
5
194
100
AcDbEntity
8
0
6
ByLayer
62
256
370
-1
100
AcDbLine
10
95
20
19.5
11
95
21
33.75
0
LINE
5
195
100
AcDbEntity
8
0
6
ByLayer
62
256
370
-1
100
AcDbLine
10
95
20
33.75
11
100.999
21
33.75
0
LINE
5
196
100
AcDbEntity
8
0
6
ByLayer
62
256
370
-1
100
AcDbLine
10
100.999
20
33.75
11
100.999
21
62.25
0
LINE
5
197
100
AcDbEntity
8
0
6
ByLayer
62
256
370
-1
100
AcDbLine
10
100.999
20
62.25
11
95
21
62.25
0
LINE
5
198
100
AcDbEntity
8
0
6
ByLayer
62
256
370
-1
100
AcDbLine
10
95
20
62.25
11
95
21
90.75
0
LINE
5
199
100
AcDbEntity
8
0
6
ByLayer
62
256
370
-1
100
AcDbLine
10
95
20
90.75
11
100.999
21
90.75
0
LINE
5
19A
100
AcDbEntity
8
0
6
ByLayer
62
256
370
-1
100
AcDbLine
10
100.999
20
90.75
11
100.999
21
119.25
0
LINE
5
19B
100
AcDbEntity
8
0
6
ByLayer
62
256
370
-1
100
AcDbLine
10
100.999
20
119.25
11
95
21
119.25
0
LINE
5
19C
100
AcDbEntity
8
0
6
ByLayer
62
256
370
-1
100
AcDbLine
10
95
20
119.25
11
95
21
147.75
0
LINE
5
19D
100
AcDbEntity
8
0
6
ByLayer
62
256
370
-1
100
AcDbLine
10
95
20
147.75
11
100.999
21
147.75
0
LINE
5
19E
100
AcDbEntity
8
0
6
ByLayer
62
256
370
-1
100
AcDbLine
10
100.999
20
147.75
11
100.999
21
176.25
0
LINE
5
19F
100
AcDbEntity
8
0
6
ByLayer
62
256
370
-1
100
AcDbLine
10
100.999
20
176.25
11
95
21
176.25
0
LINE
5
1A0
100
AcDbEntity
8
0
6
ByLayer
62
256
370
-1
100
AcDbLine
10
95
20
176.25
11
95
21
190.5
0
LINE
5
1A1
100
AcDbEntity
8
0
6
ByLayer
62
256
370
-1
100
AcDbLine
10
95
20
190.5
11
101.5
21
190.5
0
LINE
5
1A2
100
AcDbEntity
8
0
6
ByLayer
62
256
370
-1
100
AcDbLine
10
101.5
20
190.5
11
101.5
21
184.5
0
LINE
5
1A3
100
AcDbEntity
8
0
6
ByLayer
62
256
370
-1
100
AcDbLine
10
101.5
20
184.5
11
114.5
21
184.5
0
LINE
5
1A4
100
AcDbEntity
8
0
6
ByLayer
62
256
370
-1
100
AcDbLine
10
114.5
20
184.5
11
114.5
21
190.5
0
LINE
5
1A5
100
AcDbEntity
8
0
6
ByLayer
62
256
370
-1
100
AcDbLine
10
114.5
20
190.5
11
127.5
21
190.5
0
LINE
5
1A6
100
AcDbEntity
8
0
6
ByLayer
62
256
370
-1
100
AcDbLine
10
127.5
20
190.5
11
127.5
21
184.5
0
LINE
5
1A7
100
AcDbEntity
8
0
6
ByLayer
62
256
370
-1
100
AcDbLine
10
127.5
20
184.5
11
140.5
21
184.5
0
LINE
5
1A8
100
AcDbEntity
8
0
6
ByLayer
62
256
370
-1
100
AcDbLine
10
140.5
20
184.5
11
140.5
21
190.5
0
LINE
5
1A9
100
AcDbEntity
8
0
6
ByLayer
62
256
370
-1
100
AcDbLine
10
140.5
20
190.5
11
153.5
21
190.5
0
LINE
5
1AA
100
AcDbEntity
8
0
6
ByLayer
62
256
370
-1
100
AcDbLine
10
153.5
20
190.5
11
153.5
21
184.5
0
LINE
5
1AB
100
AcDbEntity
8
0
6
ByLayer
62
256
370
-1
100
AcDbLine
10
153.5
20
184.5
11
166.5
21
184.5
0
LINE
5
1AC
100
AcDbEntity
8
0
6
ByLayer
62
256
370
-1
100
AcDbLine
10
166.5
20
184.5
11
166.5
21
190.5
0
LINE
5
1AD
100
AcDbEntity
8
0
6
ByLayer
62
256
370
-1
100
AcDbLine
10
166.5
20
190.5
11
179.5
21
190.5
0
LINE
5
1AE
100
AcDbEntity
8
0
6
ByLayer
62
256
370
-1
100
AcDbLine
10
179.5
20
190.5
11
179.5
21
184.5
0
LINE
5
1AF
100
AcDbEntity
8
0
6
ByLayer
62
256
370
-1
100
AcDbLine
10
179.5
20
184.5
11
192.5
21
184.5
0
LINE
5
1B0
100
AcDbEntity
8
0
6
ByLayer
62
256
370
-1
100
AcDbLine
10
192.5
20
184.5
11
192.5
21
190.5
0
LINE
5
1B1
100
AcDbEntity
8
0
6
ByLayer
62
256
370
-1
100
AcDbLine
10
192.5
20
190.5
11
205.5
21
190.5
0
LINE
5
1B2
100
AcDbEntity
8
0
6
ByLayer
62
256
370
-1
100
AcDbLine
10
205.5
20
190.5
11
205.5
21
184.5
0
LINE
5
1B3
100
AcDbEntity
8
0
6
ByLayer
62
256
370
-1
100
AcDbLine
10
205.5
20
184.5
11
218.5
21
184.5
0
LINE
5
1B4
100
AcDbEntity
8
0
6
ByLayer
62
256
370
-1
100
AcDbLine
10
218.5
20
184.5
11
218.5
21
190.5
0
LINE
5
1B5
100
AcDbEntity
8
0
6
ByLayer
62
256
370
-1
100
AcDbLine
10
218.5
20
190.5
11
225
21
190.5
0
LINE
5
1B6
100
AcDbEntity
8
0
6
ByLayer
62
256
370
-1
100
AcDbLine
10
225
20
190.5
11
225
21
19.5
0
LINE
5
1B7
100
AcDbEntity
8
0
6
ByLayer
62
256
370
-1
100
AcDbLine
10
225
20
19.5
11
218.5
21
19.5
0
LINE
5
1B8
100
AcDbEntity
8
0
6
ByLayer
62
256
370
-1
100
AcDbLine
10
218.5
20
19.5
11
218.5
21
25.5
0
LINE
5
1B9
100
AcDbEntity
8
0
6
ByLayer
62
256
370
-1
100
AcDbLine
10
218.5
20
25.5
11
205.5
21
25.5
0
LINE
5
1BA
100
AcDbEntity
8
0
6
ByLayer
62
256
370
-1
100
AcDbLine
10
205.5
20
25.5
11
205.5
21
19.5
0
LINE
5
1BB
100
AcDbEntity
8
0
6
ByLayer
62
256
370
-1
100
AcDbLine
10
205.5
20
19.5
11
192.5
21
19.5
0
LINE
5
1BC
100
AcDbEntity
8
0
6
ByLayer
62
256
370
-1
100
AcDbLine
10
192.5
20
19.5
11
192.5
21
25.5
0
LINE
5
1BD
100
AcDbEntity
8
0
6
ByLayer
62
256
370
-1
100
AcDbLine
10
192.5
20
25.5
11
179.5
21
25.5
0
LINE
5
1BE
100
AcDbEntity
8
0
6
ByLayer
62
256
370
-1
100
AcDbLine
10
179.5
20
25.5
11
179.5
21
19.5
0
LINE
5
1BF
100
AcDbEntity
8
0
6
ByLayer
62
256
370
-1
100
AcDbLine
10
179.5
20
19.5
11
166.5
21
19.5
0
LINE
5
1C0
100
AcDbEntity
8
0
6
ByLayer
62
256
370
-1
100
AcDbLine
10
166.5
20
19.5
11
166.5
21
25.5
0
LINE
5
1C1
100
AcDbEntity
8
0
6
ByLayer
62
256
370
-1
100
AcDbLine
10
166.5
20
25.5
11
153.5
21
25.5
0
LINE
5
1C2
100
AcDbEntity
8
0
6
ByLayer
62
256
370
-1
100
AcDbLine
10
153.5
20
25.5
11
153.5
21
19.5
0
LINE
5
1C3
100
AcDbEntity
8
0
6
ByLayer
62
256
370
-1
100
AcDbLine
10
153.5
20
19.5
11
140.5
21
19.5
0
LINE
5
1C4
100
AcDbEntity
8
0
6
ByLayer
62
256
370
-1
100
AcDbLine
10
140.5
20
19.5
11
140.5
21
25.5
0
LINE
5
1C5
100
AcDbEntity
8
0
6
ByLayer
62
256
370
-1
100
AcDbLine
10
140.5
20
25.5
11
127.5
21
25.5
0
LINE
5
1C6
100
AcDbEntity
8
0
6
ByLayer
62
256
370
-1
100
AcDbLine
10
127.5
20
25.5
11
127.5
21
19.5
0
LINE
5
1C7
100
AcDbEntity
8
0
6
ByLayer
62
256
370
-1
100
AcDbLine
10
127.5
20
19.5
11
114.5
21
19.5
0
LINE
5
1C8
100
AcDbEntity
8
0
6
ByLayer
62
256
370
-1
100
AcDbLine
10
114.5
20
19.5
11
114.5
21
25.5
0
LINE
5
1C9
100
AcDbEntity
8
0
6
ByLayer
62
256
370
-1
100
AcDbLine
10
114.5
20
25.5
11
101.5
21
25.5
0
LINE
5
1CA
100
AcDbEntity
8
0
6
ByLayer
62
256
370
-1
100
AcDbLine
10
101.5
20
25.5
11
101.5
21
19.5
0
LINE
5
1CB
100
AcDbEntity
8
0
6
ByLayer
62
256
370
-1
100
AcDbLine
10
101.5
20
19.5
11
95
21
19.5
0
LINE
5
1CC
100
AcDbEntity
8
inside-cut
6
ByLayer
62
256
370
-1
100
AcDbLine
10
-349.3
20
-169.5
11
-349.212
21
-168.944
0
LINE
5
1CD
100
AcDbEntity
8
inside-cut
6
ByLayer
62
256
370
-1
100
AcDbLine
10
-349.212
20
-168.944
11
-348.956
21
-168.442
0
LINE
5
1CE
100
AcDbEntity
8
inside-cut
6
ByLayer
62
256
370
-1
100
AcDbLine
10
-348.956
20
-168.442
11
-348.558
21
-168.044
0
LINE
5
1CF
100
AcDbEntity
8
inside-cut
6
ByLayer
62
256
370
-1
100
AcDbLine
10
-348.558
20
-168.044
11
-348.056
21
-167.788
0
LINE
5
1D0
100
AcDbEntity
8
inside-cut
6
ByLayer
62
256
370
-1
100
AcDbLine
10
-348.056
20
-167.788
11
-347.5
21
-167.7
0
LINE
5
1D1
100
AcDbEntity
8
inside-cut
6
ByLayer
62
256
370
-1
100
AcDbLine
10
-347.5
20
-167.7
11
-346.944
21
-167.788
0
LINE
5
1D2
100
AcDbEntity
8
inside-cut
6
ByLayer
62
256
370
-1
100
AcDbLine
10
-346.944
20
-167.788
11
-346.442
21
-168.044
0
LINE
5
1D3
100
AcDbEntity
8
inside-cut
6
ByLayer
62
256
370
-1
100
AcDbLine
10
-346.442
20
-168.044
11
-346.044
21
-168.442
0
LINE
5
1D4
100
AcDbEntity
8
inside-cut
6
ByLayer
62
256
370
-1
100
AcDbLine
10
-346.044
20
-168.442
11
-345.788
21
-168.944
0
LINE
5
1D5
100
AcDbEntity
8
inside-cut
6
ByLayer
62
256
370
-1
100
AcDbLine
10
-345.788
20
-168.944
11
-345.7
21
-169.5
0
LINE
5
1D6
100
AcDbEntity
8
inside-cut
6
ByLayer
62
256
370
-1
100
AcDbLine
10
-345.7
20
-169.5
11
-345.788
21
-170.056
0
LINE
5
1D7
100
AcDbEntity
8
inside-cut
6
ByLayer
62
256
370
-1
100
AcDbLine
10
-345.788
20
-170.056
11
-346.044
21
-170.558
0
LINE
5
1D8
100
AcDbEntity
8
inside-cut
6
ByLayer
62
256
370
-1
100
AcDbLine
10
-346.044
20
-170.558
11
-346.442
21
-170.956
0
LINE
5
1D9
100
AcDbEntity
8
inside-cut
6
ByLayer
62
256
370
-1
100
AcDbLine
10
-346.442
20
-170.956
11
-346.944
21
-171.212
0
LINE
5
1DA
100
AcDbEntity
8
inside-cut
6
ByLayer
62
256
370
-1
100
AcDbLine
10
-346.944
20
-171.212
11
-347.5
21
-171.3
0
LINE
5
1DB
100
AcDbEntity
8
inside-cut
6
ByLayer
62
256
370
-1
100
AcDbLine
10
-347.5
20
-171.3
11
-348.056
21
-171.212
0
LINE
5
1DC
100
AcDbEntity
8
inside-cut
6
ByLayer
62
256
370
-1
100
AcDbLine
10
-348.056
20
-171.212
11
-348.558
21
-170.956
0
LINE
5
1DD
100
AcDbEntity
8
inside-cut
6
ByLayer
62
256
370
-1
100
AcDbLine
10
-348.558
20
-170.956
11
-348.956
21
-170.558
0
LINE
5
1DE
100
AcDbEntity
8
inside-cut
6
ByLayer
62
256
370
-1
100
AcDbLine
10
-348.956
20
-170.558
11
-349.212
21
-170.056
0
LINE
5
1DF
100
AcDbEntity
8
inside-cut
6
ByLayer
62
256
370
-1
100
AcDbLine
10
-349.212
20
-170.056
11
-349.3
21
-169.5
0
LINE
5
1E0
100
AcDbEntity
8
inside-cut
6
ByLayer
62
256
370
-1
100
AcDbLine
10
-306.8
20
-169.5
11
-306.712
21
-168.944
0
LINE
5
1E1
100
AcDbEntity
8
inside-cut
6
ByLayer
62
256
370
-1
100
AcDbLine
10
-306.712
20
-168.944
11
-306.456
21
-168.442
0
LINE
5
1E2
100
AcDbEntity
8
inside-cut
6
ByLayer
62
256
370
-1
100
AcDbLine
10
-306.456
20
-168.442
11
-306.058
21
-168.044
0
LINE
5
1E3
100
AcDbEntity
8
inside-cut
6
ByLayer
62
256
370
-1
100
AcDbLine
10
-306.058
20
-168.044
11
-305.556
21
-167.788
0
LINE
5
1E4
100
AcDbEntity
8
inside-cut
6
ByLayer
62
256
370
-1
100
AcDbLine
10
-305.556
20
-167.788
11
-305
21
-167.7
0
LINE
5
1E5
100
AcDbEntity
8
inside-cut
6
ByLayer
62
256
370
-1
100
AcDbLine
10
-305
20
-167.7
11
-304.444
21
-167.788
0
LINE
5
1E6
100
AcDbEntity
8
inside-cut
6
ByLayer
62
256
370
-1
100
AcDbLine
10
-304.444
20
-167.788
11
-303.942
21
-168.044
0
LINE
5
1E7
100
AcDbEntity
8
inside-cut
6
ByLayer
62
256
370
-1
100
AcDbLine
10
-303.942
20
-168.044
11
-303.544
21
-168.442
0
LINE
5
1E8
100
AcDbEntity
8
inside-cut
6
ByLayer
62
256
370
-1
100
AcDbLine
10
-303.544
20
-168.442
11
-303.288
21
-168.944
0
LINE
5
1E9
100
AcDbEntity
8
inside-cut
6
ByLayer
62
256
370
-1
100
AcDbLine
10
-303.288
20
-168.944
11
-303.2
21
-169.5
0
LINE
5
1EA
100
AcDbEntity
8
inside-cut
6
ByLayer
62
256
370
-1
100
AcDbLine
10
-303.2
20
-169.5
11
-303.288
21
-170.056
0
LINE
5
1EB
100
AcDbEntity
8
inside-cut
6
ByLayer
62
256
370
-1
100
AcDbLine
10
-303.288
20
-170.056
11
-303.544
21
-170.558
0
LINE
5
1EC
100
AcDbEntity
8
inside-cut
6
ByLayer
62
256
370
-1
100
AcDbLine
10
-303.544
20
-170.558
11
-303.942
21
-170.956
0
LINE
5
1ED
100
AcDbEntity
8
inside-cut
6
ByLayer
62
256
370
-1
100
AcDbLine
10
-303.942
20
-170.956
11
-304.444
21
-171.212
0
LINE
5
1EE
100
AcDbEntity
8
inside-cut
6
ByLayer
62
256
370
-1
100
AcDbLine
10
-304.444
20
-171.212
11
-305
21
-171.3
0
LINE
5
1EF
100
AcDbEntity
8
inside-cut
6
ByLayer
62
256
370
-1
100
AcDbLine
10
-305
20
-171.3
11
-305.556
21
-171.212
0
LINE
5
1F0
100
AcDbEntity
8
inside-cut
6
ByLayer
62
256
370
-1
100
AcDbLine
10
-305.556
20
-171.212
11
-306.058
21
-170.956
0
LINE
5
1F1
100
AcDbEntity
8
inside-cut
6
ByLayer
62
256
370
-1
100
AcDbLine
10
-306.058
20
-170.956
11
-306.456
21
-170.558
0
LINE
5
1F2
100
AcDbEntity
8
inside-cut
6
ByLayer
62
256
370
-1
100
AcDbLine
10
-306.456
20
-170.558
11
-306.712
21
-170.056
0
LINE
5
1F3
100
AcDbEntity
8
inside-cut
6
ByLayer
62
256
370
-1
100
AcDbLine
10
-306.712
20
-170.056
11
-306.8
21
-169.5
0
LINE
5
1F4
100
AcDbEntity
8
inside-cut
6
ByLayer
62
256
370
-1
100
AcDbLine
10
-264.3
20
-169.5
11
-264.212
21
-168.944
0
LINE
5
1F5
100
AcDbEntity
8
inside-cut
6
ByLayer
62
256
370
-1
100
AcDbLine
10
-264.212
20
-168.944
11
-263.956
21
-168.442
0
LINE
5
1F6
100
AcDbEntity
8
inside-cut
6
ByLayer
62
256
370
-1
100
AcDbLine
10
-263.956
20
-168.442
11
-263.558
21
-168.044
0
LINE
5
1F7
100
AcDbEntity
8
inside-cut
6
ByLayer
62
256
370
-1
100
AcDbLine
10
-263.558
20
-168.044
11
-263.056
21
-167.788
0
LINE
5
1F8
100
AcDbEntity
8
inside-cut
6
ByLayer
62
256
370
-1
100
AcDbLine
10
-263.056
20
-167.788
11
-262.5
21
-167.7
0
LINE
5
1F9
100
AcDbEntity
8
inside-cut
6
ByLayer
62
256
370
-1
100
AcDbLine
10
-262.5
20
-167.7
11
-261.944
21
-167.788
0
LINE
5
1FA
100
AcDbEntity
8
inside-cut
6
ByLayer
62
256
370
-1
100
AcDbLine
10
-261.944
20
-167.788
11
-261.442
21
-168.044
0
LINE
5
1FB
100
AcDbEntity
8
inside-cut
6
ByLayer
62
256
370
-1
100
AcDbLine
10
-261.442
20
-168.044
11
-261.044
21
-168.442
0
LINE
5
1FC
100
AcDbEntity
8
inside-cut
6
ByLayer
62
256
370
-1
100
AcDbLine
10
-261.044
20
-168.442
11
-260.788
21
-168.944
0
LINE
5
1FD
100
AcDbEntity
8
inside-cut
6
ByLayer
62
256
370
-1
100
AcDbLine
10
-260.788
20
-168.944
11
-260.7
21
-169.5
0
LINE
5
1FE
100
AcDbEntity
8
inside-cut
6
ByLayer
62
256
370
-1
100
AcDbLine
10
-260.7
20
-169.5
11
-260.788
21
-170.056
0
LINE
5
1FF
100
AcDbEntity
8
inside-cut
6
ByLayer
62
256
370
-1
100
AcDbLine
10
-260.788
20
-170.056
11
-261.044
21
-170.558
0
LINE
5
200
100
AcDbEntity
8
inside-cut
6
ByLayer
62
256
370
-1
100
AcDbLine
10
-261.044
20
-170.558
11
-261.442
21
-170.956
0
LINE
5
201
100
AcDbEntity
8
inside-cut
6
ByLayer
62
256
370
-1
100
AcDbLine
10
-261.442
20
-170.956
11
-261.944
21
-171.212
0
LINE
5
202
100
AcDbEntity
8
inside-cut
6
ByLayer
62
256
370
-1
100
AcDbLine
10
-261.944
20
-171.212
11
-262.5
21
-171.3
0
LINE
5
203
100
AcDbEntity
8
inside-cut
6
ByLayer
62
256
370
-1
100
AcDbLine
10
-262.5
20
-171.3
11
-263.056
21
-171.212
0
LINE
5
204
100
AcDbEntity
8
inside-cut
6
ByLayer
62
256
370
-1
100
AcDbLine
10
-263.056
20
-171.212
11
-263.558
21
-170.956
0
LINE
5
205
100
AcDbEntity
8
inside-cut
6
ByLayer
62
256
370
-1
100
AcDbLine
10
-263.558
20
-170.956
11
-263.956
21
-170.558
0
LINE
5
206
100
AcDbEntity
8
inside-cut
6
ByLayer
62
256
370
-1
100
AcDbLine
10
-263.956
20
-170.558
11
-264.212
21
-170.056
0
LINE
5
207
100
AcDbEntity
8
inside-cut
6
ByLayer
62
256
370
-1
100
AcDbLine
10
-264.212
20
-170.056
11
-264.3
21
-169.5
0
LINE
5
208
100
AcDbEntity
8
inside-cut
6
ByLayer
62
256
370
-1
100
AcDbLine
10
-261.99
20
-85.449
11
-261.99
21
125.449
0
LINE
5
209
100
AcDbEntity
8
inside-cut
6
ByLayer
62
256
370
-1
100
AcDbLine
10
-261.99
20
125.449
11
-261.909
21
126.342
0
LINE
5
20A
100
AcDbEntity
8
inside-cut
6
ByLayer
62
256
370
-1
100
AcDbLine
10
-261.909
20
126.342
11
-261.749
21
127.225
0
LINE
5
20B
100
AcDbEntity
8
inside-cut
6
ByLayer
62
256
370
-1
100
AcDbLine
10
-261.749
20
127.225
11
-261.511
21
128.09
0
LINE
5
20C
100
AcDbEntity
8
inside-cut
6
ByLayer
62
256
370
-1
100
AcDbLine
10
-261.511
20
128.09
11
-261.195
21
128.93
0
LINE
5
20D
100
AcDbEntity
8
inside-cut
6
ByLayer
62
256
370
-1
100
AcDbLine
10
-261.195
20
128.93
11
-260.806
21
129.739
0
LINE
5
20E
100
AcDbEntity
8
inside-cut
6
ByLayer
62
256
370
-1
100
AcDbLine
10
-260.806
20
129.739
11
-260.346
21
130.509
0
LINE
5
20F
100
AcDbEntity
8
inside-cut
6
ByLayer
62
256
370
-1
100
AcDbLine
10
-260.346
20
130.509
11
-259.818
21
131.235
0
LINE
5
210
100
AcDbEntity
8
inside-cut
6
ByLayer
62
256
370
-1
100
AcDbLine
10
-259.818
20
131.235
11
-259.228
21
131.911
0
LINE
5
211
100
AcDbEntity
8
inside-cut
6
ByLayer
62
256
370
-1
100
AcDbLine
10
-259.228
20
131.911
11
-258.579
21
132.531
0
LINE
5
212
100
AcDbEntity
8
inside-cut
6
ByLayer
62
256
370
-1
100
AcDbLine
10
-258.579
20
132.531
11
-257.878
21
133.09
0
LINE
5
213
100
AcDbEntity
8
inside-cut
6
ByLayer
62
256
370
-1
100
AcDbLine
10
-257.878
20
133.09
11
-257.129
21
133.584
0
LINE
5
214
100
AcDbEntity
8
inside-cut
6
ByLayer
62
256
370
-1
100
AcDbLine
10
-257.129
20
133.584
11
-256.339
21
134.01
0
LINE
5
215
100
AcDbEntity
8
inside-cut
6
ByLayer
62
256
370
-1
100
AcDbLine
10
-256.339
20
134.01
11
-255.514
21
134.362
0
LINE
5
216
100
AcDbEntity
8
inside-cut
6
ByLayer
62
256
370
-1
100
AcDbLine
10
-255.514
20
134.362
11
-254.66
21
134.64
0
LINE
5
217
100
AcDbEntity
8
inside-cut
6
ByLayer
62
256
370
-1
100
AcDbLine
10
-254.66
20
134.64
11
-253.786
21
134.839
0
LINE
5
218
100
AcDbEntity
8
inside-cut
6
ByLayer
62
256
370
-1
100
AcDbLine
10
-253.786
20
134.839
11
-252.896
21
134.96
0
LINE
5
219
100
AcDbEntity
8
inside-cut
6
ByLayer
62
256
370
-1
100
AcDbLine
10
-252.896
20
134.96
11
-252
21
135
0
LINE
5
21A
100
AcDbEntity
8
inside-cut
6
ByLayer
62
256
370
-1
100
AcDbLine
10
-252
20
135
11
-231
21
135
0
LINE
5
21B
100
AcDbEntity
8
inside-cut
6
ByLayer
62
256
370
-1
100
AcDbLine
10
-231
20
135
11
-230.104
21
134.96
0
LINE
5
21C
100
AcDbEntity
8
inside-cut
6
ByLayer
62
256
370
-1
100
AcDbLine
10
-230.104
20
134.96
11
-229.214
21
134.839
0
LINE
5
21D
100
AcDbEntity
8
inside-cut
6
ByLayer
62
256
370
-1
100
AcDbLine
10
-229.214
20
134.839
11
-228.34
21
134.64
0
LINE
5
21E
100
AcDbEntity
8
inside-cut
6
ByLayer
62
256
370
-1
100
AcDbLine
10
-228.34
20
134.64
11
-227.486
21
134.362
0
LINE
5
21F
100
AcDbEntity
8
inside-cut
6
ByLayer
62
256
370
-1
100
AcDbLine
10
-227.486
20
134.362
11
-226.661
21
134.01
0
LINE
5
220
100
AcDbEntity
8
inside-cut
6
ByLayer
62
256
370
-1
100
AcDbLine
10
-226.661
20
134.01
11
-225.871
21
133.584
0
LINE
5
221
100
AcDbEntity
8
inside-cut
6
ByLayer
62
256
370
-1
100
AcDbLine
10
-225.871
20
133.584
11
-225.122
21
133.09
0
LINE
5
222
100
AcDbEntity
8
inside-cut
6
ByLayer
62
256
370
-1
100
AcDbLine
10
-225.122
20
133.09
11
-224.421
21
132.531
0
LINE
5
223
100
AcDbEntity
8
inside-cut
6
ByLayer
62
256
370
-1
100
AcDbLine
10
-224.421
20
132.531
11
-223.772
21
131.911
0
LINE
5
224
100
AcDbEntity
8
inside-cut
6
ByLayer
62
256
370
-1
100
AcDbLine
10
-223.772
20
131.911
11
-223.182
21
131.235
0
LINE
5
225
100
AcDbEntity
8
inside-cut
6
ByLayer
62
256
370
-1
100
AcDbLine
10
-223.182
20
131.235
11
-222.654
21
130.509
0
LINE
5
226
100
AcDbEntity
8
inside-cut
6
ByLayer
62
256
370
-1
100
AcDbLine
10
-222.654
20
130.509
11
-222.194
21
129.739
0
LINE
5
227
100
AcDbEntity
8
inside-cut
6
ByLayer
62
256
370
-1
100
AcDbLine
10
-222.194
20
129.739
11
-221.805
21
128.93
0
LINE
5
228
100
AcDbEntity
8
inside-cut
6
ByLayer
62
256
370
-1
100
AcDbLine
10
-221.805
20
128.93
11
-221.489
21
128.09
0
LINE
5
229
100
AcDbEntity
8
inside-cut
6
ByLayer
62
256
370
-1
100
AcDbLine
10
-221.489
20
128.09
11
-221.251
21
127.225
0
LINE
5
22A
100
AcDbEntity
8
inside-cut
6
ByLayer
62
256
370
-1
100
AcDbLine
10
-221.251
20
127.225
11
-221.091
21
126.342
0
LINE
5
22B
100
AcDbEntity
8
inside-cut
6
ByLayer
62
256
370
-1
100
AcDbLine
10
-221.091
20
126.342
11
-221.01
21
125.449
0
LINE
5
22C
100
AcDbEntity
8
inside-cut
6
ByLayer
62
256
370
-1
100
AcDbLine
10
-221.01
20
125.449
11
-221.01
21
-85.449
0
LINE
5
22D
100
AcDbEntity
8
inside-cut
6
ByLayer
62
256
370
-1
100
AcDbLine
10
-221.01
20
-85.449
11
-221.091
21
-86.342
0
LINE
5
22E
100
AcDbEntity
8
inside-cut
6
ByLayer
62
256
370
-1
100
AcDbLine
10
-221.091
20
-86.342
11
-221.251
21
-87.225
0
LINE
5
22F
100
AcDbEntity
8
inside-cut
6
ByLayer
62
256
370
-1
100
AcDbLine
10
-221.251
20
-87.225
11
-221.489
21
-88.09
0
LINE
5
230
100
AcDbEntity
8
inside-cut
6
ByLayer
62
256
370
-1
100
AcDbLine
10
-221.489
20
-88.09
11
-221.805
21
-88.93
0
LINE
5
231
100
AcDbEntity
8
inside-cut
6
ByLayer
62
256
370
-1
100
AcDbLine
10
-221.805
20
-88.93
11
-222.194
21
-89.739
0
LINE
5
232
100
AcDbEntity
8
inside-cut
6
ByLayer
62
256
370
-1
100
AcDbLine
10
-222.194
20
-89.739
11
-222.654
21
-90.509
0
LINE
5
233
100
AcDbEntity
8
inside-cut
6
ByLayer
62
256
370
-1
100
AcDbLine
10
-222.654
20
-90.509
11
-223.182
21
-91.235
0
LINE
5
234
100
AcDbEntity
8
inside-cut
6
ByLayer
62
256
370
-1
100
AcDbLine
10
-223.182
20
-91.235
11
-223.772
21
-91.911
0
LINE
5
235
100
AcDbEntity
8
inside-cut
6
ByLayer
62
256
370
-1
100
AcDbLine
10
-223.772
20
-91.911
11
-224.421
21
-92.531
0
LINE
5
236
100
AcDbEntity
8
inside-cut
6
ByLayer
62
256
370
-1
100
AcDbLine
10
-224.421
20
-92.531
11
-225.122
21
-93.09
0
LINE
5
237
100
AcDbEntity
8
inside-cut
6
ByLayer
62
256
370
-1
100
AcDbLine
10
-225.122
20
-93.09
11
-225.871
21
-93.584
0
LINE
5
238
100
AcDbEntity
8
inside-cut
6
ByLayer
62
256
370
-1
100
AcDbLine
10
-225.871
20
-93.584
11
-226.661
21
-94.01
0
LINE
5
239
100
AcDbEntity
8
inside-cut
6
ByLayer
62
256
370
-1
100
AcDbLine
10
-226.661
20
-94.01
11
-227.486
21
-94.362
0
LINE
5
23A
100
AcDbEntity
8
inside-cut
6
ByLayer
62
256
370
-1
100
AcDbLine
10
-227.486
20
-94.362
11
-228.34
21
-94.64
0
LINE
5
23B
100
AcDbEntity
8
inside-cut
6
ByLayer
62
256
370
-1
100
AcDbLine
10
-228.34
20
-94.64
11
-229.214
21
-94.839
0
LINE
5
23C
100
AcDbEntity
8
inside-cut
6
ByLayer
62
256
370
-1
100
AcDbLine
10
-229.214
20
-94.839
11
-230.104
21
-94.96
0
LINE
5
23D
100
AcDbEntity
8
inside-cut
6
ByLayer
62
256
370
-1
100
AcDbLine
10
-230.104
20
-94.96
11
-231
21
-95
0
LINE
5
23E
100
AcDbEntity
8
inside-cut
6
ByLayer
62
256
370
-1
100
AcDbLine
10
-231
20
-95
11
-252
21
-95
0
LINE
5
23F
100
AcDbEntity
8
inside-cut
6
ByLayer
62
256
370
-1
100
AcDbLine
10
-252
20
-95
11
-252.896
21
-94.96
0
LINE
5
240
100
AcDbEntity
8
inside-cut
6
ByLayer
62
256
370
-1
100
AcDbLine
10
-252.896
20
-94.96
11
-253.786
21
-94.839
0
LINE
5
241
100
AcDbEntity
8
inside-cut
6
ByLayer
62
256
370
-1
100
AcDbLine
10
-253.786
20
-94.839
11
-254.66
21
-94.64
0
LINE
5
242
100
AcDbEntity
8
inside-cut
6
ByLayer
62
256
370
-1
100
AcDbLine
10
-254.66
20
-94.64
11
-255.514
21
-94.362
0
LINE
5
243
100
AcDbEntity
8
inside-cut
6
ByLayer
62
256
370
-1
100
AcDbLine
10
-255.514
20
-94.362
11
-256.339
21
-94.01
0
LINE
5
244
100
AcDbEntity
8
inside-cut
6
ByLayer
62
256
370
-1
100
AcDbLine
10
-256.339
20
-94.01
11
-257.129
21
-93.584
0
LINE
5
245
100
AcDbEntity
8
inside-cut
6
ByLayer
62
256
370
-1
100
AcDbLine
10
-257.129
20
-93.584
11
-257.878
21
-93.09
0
LINE
5
246
100
AcDbEntity
8
inside-cut
6
ByLayer
62
256
370
-1
100
AcDbLine
10
-257.878
20
-93.09
11
-258.579
21
-92.531
0
LINE
5
247
100
AcDbEntity
8
inside-cut
6
ByLayer
62
256
370
-1
100
AcDbLine
10
-258.579
20
-92.531
11
-259.228
21
-91.911
0
LINE
5
248
100
AcDbEntity
8
inside-cut
6
ByLayer
62
256
370
-1
100
AcDbLine
10
-259.228
20
-91.911
11
-259.818
21
-91.235
0
LINE
5
249
100
AcDbEntity
8
inside-cut
6
ByLayer
62
256
370
-1
100
AcDbLine
10
-259.818
20
-91.235
11
-260.346
21
-90.509
0
LINE
5
24A
100
AcDbEntity
8
inside-cut
6
ByLayer
62
256
370
-1
100
AcDbLine
10
-260.346
20
-90.509
11
-260.806
21
-89.739
0
LINE
5
24B
100
AcDbEntity
8
inside-cut
6
ByLayer
62
256
370
-1
100
AcDbLine
10
-260.806
20
-89.739
11
-261.195
21
-88.93
0
LINE
5
24C
100
AcDbEntity
8
inside-cut
6
ByLayer
62
256
370
-1
100
AcDbLine
10
-261.195
20
-88.93
11
-261.511
21
-88.09
0
LINE
5
24D
100
AcDbEntity
8
inside-cut
6
ByLayer
62
256
370
-1
100
AcDbLine
10
-261.511
20
-88.09
11
-261.749
21
-87.225
0
LINE
5
24E
100
AcDbEntity
8
inside-cut
6
ByLayer
62
256
370
-1
100
AcDbLine
10
-261.749
20
-87.225
11
-261.909
21
-86.342
0
LINE
5
24F
100
AcDbEntity
8
inside-cut
6
ByLayer
62
256
370
-1
100
AcDbLine
10
-261.909
20
-86.342
11
-261.99
21
-85.449
0
LINE
5
250
100
AcDbEntity
8
inside-cut
6
ByLayer
62
256
370
-1
100
AcDbLine
10
-229.3
20
-169.5
11
-229.212
21
-168.944
0
LINE
5
251
100
AcDbEntity
8
inside-cut
6
ByLayer
62
256
370
-1
100
AcDbLine
10
-229.212
20
-168.944
11
-228.956
21
-168.442
0
LINE
5
252
100
AcDbEntity
8
inside-cut
6
ByLayer
62
256
370
-1
100
AcDbLine
10
-228.956
20
-168.442
11
-228.558
21
-168.044
0
LINE
5
253
100
AcDbEntity
8
inside-cut
6
ByLayer
62
256
370
-1
100
AcDbLine
10
-228.558
20
-168.044
11
-228.056
21
-167.788
0
LINE
5
254
100
AcDbEntity
8
inside-cut
6
ByLayer
62
256
370
-1
100
AcDbLine
10
-228.056
20
-167.788
11
-227.5
21
-167.7
0
LINE
5
255
100
AcDbEntity
8
inside-cut
6
ByLayer
62
256
370
-1
100
AcDbLine
10
-227.5
20
-167.7
11
-226.944
21
-167.788
0
LINE
5
256
100
AcDbEntity
8
inside-cut
6
ByLayer
62
256
370
-1
100
AcDbLine
10
-226.944
20
-167.788
11
-226.442
21
-168.044
0
LINE
5
257
100
AcDbEntity
8
inside-cut
6
ByLayer
62
256
370
-1
100
AcDbLine
10
-226.442
20
-168.044
11
-226.044
21
-168.442
0
LINE
5
258
100
AcDbEntity
8
inside-cut
6
ByLayer
62
256
370
-1
100
AcDbLine
10
-226.044
20
-168.442
11
-225.788
21
-168.944
0
LINE
5
259
100
AcDbEntity
8
inside-cut
6
ByLayer
62
256
370
-1
100
AcDbLine
10
-225.788
20
-168.944
11
-225.7
21
-169.5
0
LINE
5
25A
100
AcDbEntity
8
inside-cut
6
ByLayer
62
256
370
-1
100
AcDbLine
10
-225.7
20
-169.5
11
-225.788
21
-170.056
0
LINE
5
25B
100
AcDbEntity
8
inside-cut
6
ByLayer
62
256
370
-1
100
AcDbLine
10
-225.788
20
-170.056
11
-226.044
21
-170.558
0
LINE
5
25C
100
AcDbEntity
8
inside-cut
6
ByLayer
62
256
370
-1
100
AcDbLine
10
-226.044
20
-170.558
11
-226.442
21
-170.956
0
LINE
5
25D
100
AcDbEntity
8
inside-cut
6
ByLayer
62
256
370
-1
100
AcDbLine
10
-226.442
20
-170.956
11
-226.944
21
-171.212
0
LINE
5
25E
100
AcDbEntity
8
inside-cut
6
ByLayer
62
256
370
-1
100
AcDbLine
10
-226.944
20
-171.212
11
-227.5
21
-171.3
0
LINE
5
25F
100
AcDbEntity
8
inside-cut
6
ByLayer
62
256
370
-1
100
AcDbLine
10
-227.5
20
-171.3
11
-228.056
21
-171.212
0
LINE
5
260
100
AcDbEntity
8
inside-cut
6
ByLayer
62
256
370
-1
100
AcDbLine
10
-228.056
20
-171.212
11
-228.558
21
-170.956
0
LINE
5
261
100
AcDbEntity
8
inside-cut
6
ByLayer
62
256
370
-1
100
AcDbLine
10
-228.558
20
-170.956
11
-228.956
21
-170.558
0
LINE
5
262
100
AcDbEntity
8
inside-cut
6
ByLayer
62
256
370
-1
100
AcDbLine
10
-228.956
20
-170.558
11
-229.212
21
-170.056
0
LINE
5
263
100
AcDbEntity
8
inside-cut
6
ByLayer
62
256
370
-1
100
AcDbLine
10
-229.212
20
-170.056
11
-229.3
21
-169.5
0
LINE
5
264
100
AcDbEntity
8
inside-cut
6
ByLayer
62
256
370
-1
100
AcDbLine
10
-186.8
20
-169.5
11
-186.712
21
-168.944
0
LINE
5
265
100
AcDbEntity
8
inside-cut
6
ByLayer
62
256
370
-1
100
AcDbLine
10
-186.712
20
-168.944
11
-186.456
21
-168.442
0
LINE
5
266
100
AcDbEntity
8
inside-cut
6
ByLayer
62
256
370
-1
100
AcDbLine
10
-186.456
20
-168.442
11
-186.058
21
-168.044
0
LINE
5
267
100
AcDbEntity
8
inside-cut
6
ByLayer
62
256
370
-1
100
AcDbLine
10
-186.058
20
-168.044
11
-185.556
21
-167.788
0
LINE
5
268
100
AcDbEntity
8
inside-cut
6
ByLayer
62
256
370
-1
100
AcDbLine
10
-185.556
20
-167.788
11
-185
21
-167.7
0
LINE
5
269
100
AcDbEntity
8
inside-cut
6
ByLayer
62
256
370
-1
100
AcDbLine
10
-185
20
-167.7
11
-184.444
21
-167.788
0
LINE
5
26A
100
AcDbEntity
8
inside-cut
6
ByLayer
62
256
370
-1
100
AcDbLine
10
-184.444
20
-167.788
11
-183.942
21
-168.044
0
LINE
5
26B
100
AcDbEntity
8
inside-cut
6
ByLayer
62
256
370
-1
100
AcDbLine
10
-183.942
20
-168.044
11
-183.544
21
-168.442
0
LINE
5
26C
100
AcDbEntity
8
inside-cut
6
ByLayer
62
256
370
-1
100
AcDbLine
10
-183.544
20
-168.442
11
-183.288
21
-168.944
0
LINE
5
26D
100
AcDbEntity
8
inside-cut
6
ByLayer
62
256
370
-1
100
AcDbLine
10
-183.288
20
-168.944
11
-183.2
21
-169.5
0
LINE
5
26E
100
AcDbEntity
8
inside-cut
6
ByLayer
62
256
370
-1
100
AcDbLine
10
-183.2
20
-169.5
11
-183.288
21
-170.056
0
LINE
5
26F
100
AcDbEntity
8
inside-cut
6
ByLayer
62
256
370
-1
100
AcDbLine
10
-183.288
20
-170.056
11
-183.544
21
-170.558
0
LINE
5
270
100
AcDbEntity
8
inside-cut
6
ByLayer
62
256
370
-1
100
AcDbLine
10
-183.544
20
-170.558
11
-183.942
21
-170.956
0
LINE
5
271
100
AcDbEntity
8
inside-cut
6
ByLayer
62
256
370
-1
100
AcDbLine
10
-183.942
20
-170.956
11
-184.444
21
-171.212
0
LINE
5
272
100
AcDbEntity
8
inside-cut
6
ByLayer
62
256
370
-1
100
AcDbLine
10
-184.444
20
-171.212
11
-185
21
-171.3
0
LINE
5
273
100
AcDbEntity
8
inside-cut
6
ByLayer
62
256
370
-1
100
AcDbLine
10
-185
20
-171.3
11
-185.556
21
-171.212
0
LINE
5
274
100
AcDbEntity
8
inside-cut
6
ByLayer
62
256
370
-1
100
AcDbLine
10
-185.556
20
-171.212
11
-186.058
21
-170.956
0
LINE
5
275
100
AcDbEntity
8
inside-cut
6
ByLayer
62
256
370
-1
100
AcDbLine
10
-186.058
20
-170.956
11
-186.456
21
-170.558
0
LINE
5
276
100
AcDbEntity
8
inside-cut
6
ByLayer
62
256
370
-1
100
AcDbLine
10
-186.456
20
-170.558
11
-186.712
21
-170.056
0
LINE
5
277
100
AcDbEntity
8
inside-cut
6
ByLayer
62
256
370
-1
100
AcDbLine
10
-186.712
20
-170.056
11
-186.8
21
-169.5
0
LINE
5
278
100
AcDbEntity
8
inside-cut
6
ByLayer
62
256
370
-1
100
AcDbLine
10
-171.006
20
-37.615
11
-171.006
21
-31.853
0
LINE
5
279
100
AcDbEntity
8
inside-cut
6
ByLayer
62
256
370
-1
100
AcDbLine
10
-171.006
20
-31.853
11
-164.994
21
-31.853
0
LINE
5
27A
100
AcDbEntity
8
inside-cut
6
ByLayer
62
256
370
-1
100
AcDbLine
10
-164.994
20
-31.853
11
-164.994
21
-37.615
0
LINE
5
27B
100
AcDbEntity
8
inside-cut
6
ByLayer
62
256
370
-1
100
AcDbLine
10
-164.994
20
-37.615
11
-171.006
21
-37.615
0
LINE
5
27C
100
AcDbEntity
8
inside-cut
6
ByLayer
62
256
370
-1
100
AcDbLine
10
-171.006
20
-20.33
11
-171.006
21
-8.807
0
LINE
5
27D
100
AcDbEntity
8
inside-cut
6
ByLayer
62
256
370
-1
100
AcDbLine
10
-171.006
20
-8.807
11
-164.994
21
-8.807
0
LINE
5
27E
100
AcDbEntity
8
inside-cut
6
ByLayer
62
256
370
-1
100
AcDbLine
10
-164.994
20
-8.807
11
-164.994
21
-20.33
0
LINE
5
27F
100
AcDbEntity
8
inside-cut
6
ByLayer
62
256
370
-1
100
AcDbLine
10
-164.994
20
-20.33
11
-171.006
21
-20.33
0
LINE
5
280
100
AcDbEntity
8
inside-cut
6
ByLayer
62
256
370
-1
100
AcDbLine
10
-171.006
20
2.716
11
-171.006
21
14.239
0
LINE
5
281
100
AcDbEntity
8
inside-cut
6
ByLayer
62
256
370
-1
100
AcDbLine
10
-171.006
20
14.239
11
-164.994
21
14.239
0
LINE
5
282
100
AcDbEntity
8
inside-cut
6
ByLayer
62
256
370
-1
100
AcDbLine
10
-164.994
20
14.239
11
-164.994
21
2.716
0
LINE
5
283
100
AcDbEntity
8
inside-cut
6
ByLayer
62
256
370
-1
100
AcDbLine
10
-164.994
20
2.716
11
-171.006
21
2.716
0
LINE
5
284
100
AcDbEntity
8
inside-cut
6
ByLayer
62
256
370
-1
100
AcDbLine
10
-171.006
20
25.762
11
-171.006
21
37.285
0
LINE
5
285
100
AcDbEntity
8
inside-cut
6
ByLayer
62
256
370
-1
100
AcDbLine
10
-171.006
20
37.285
11
-164.994
21
37.285
0
LINE
5
286
100
AcDbEntity
8
inside-cut
6
ByLayer
62
256
370
-1
100
AcDbLine
10
-164.994
20
37.285
11
-164.994
21
25.762
0
LINE
5
287
100
AcDbEntity
8
inside-cut
6
ByLayer
62
256
370
-1
100
AcDbLine
10
-164.994
20
25.762
11
-171.006
21
25.762
0
LINE
5
288
100
AcDbEntity
8
inside-cut
6
ByLayer
62
256
370
-1
100
AcDbLine
10
-171.006
20
48.808
11
-171.006
21
60.331
0
LINE
5
289
100
AcDbEntity
8
inside-cut
6
ByLayer
62
256
370
-1
100
AcDbLine
10
-171.006
20
60.331
11
-164.994
21
60.331
0
LINE
5
28A
100
AcDbEntity
8
inside-cut
6
ByLayer
62
256
370
-1
100
AcDbLine
10
-164.994
20
60.331
11
-164.994
21
48.808
0
LINE
5
28B
100
AcDbEntity
8
inside-cut
6
ByLayer
62
256
370
-1
100
AcDbLine
10
-164.994
20
48.808
11
-171.006
21
48.808
0
LINE
5
28C
100
AcDbEntity
8
inside-cut
6
ByLayer
62
256
370
-1
100
AcDbLine
10
-171.006
20
71.854
11
-171.006
21
77.615
0
LINE
5
28D
100
AcDbEntity
8
inside-cut
6
ByLayer
62
256
370
-1
100
AcDbLine
10
-171.006
20
77.615
11
-164.994
21
77.615
0
LINE
5
28E
100
AcDbEntity
8
inside-cut
6
ByLayer
62
256
370
-1
100
AcDbLine
10
-164.994
20
77.615
11
-164.994
21
71.854
0
LINE
5
28F
100
AcDbEntity
8
inside-cut
6
ByLayer
62
256
370
-1
100
AcDbLine
10
-164.994
20
71.854
11
-171.006
21
71.854
0
LINE
5
290
100
AcDbEntity
8
inside-cut
6
ByLayer
62
256
370
-1
100
AcDbLine
10
-144.3
20
-169.5
11
-144.212
21
-168.944
0
LINE
5
291
100
AcDbEntity
8
inside-cut
6
ByLayer
62
256
370
-1
100
AcDbLine
10
-144.212
20
-168.944
11
-143.956
21
-168.442
0
LINE
5
292
100
AcDbEntity
8
inside-cut
6
ByLayer
62
256
370
-1
100
AcDbLine
10
-143.956
20
-168.442
11
-143.558
21
-168.044
0
LINE
5
293
100
AcDbEntity
8
inside-cut
6
ByLayer
62
256
370
-1
100
AcDbLine
10
-143.558
20
-168.044
11
-143.056
21
-167.788
0
LINE
5
294
100
AcDbEntity
8
inside-cut
6
ByLayer
62
256
370
-1
100
AcDbLine
10
-143.056
20
-167.788
11
-142.5
21
-167.7
0
LINE
5
295
100
AcDbEntity
8
inside-cut
6
ByLayer
62
256
370
-1
100
AcDbLine
10
-142.5
20
-167.7
11
-141.944
21
-167.788
0
LINE
5
296
100
AcDbEntity
8
inside-cut
6
ByLayer
62
256
370
-1
100
AcDbLine
10
-141.944
20
-167.788
11
-141.442
21
-168.044
0
LINE
5
297
100
AcDbEntity
8
inside-cut
6
ByLayer
62
256
370
-1
100
AcDbLine
10
-141.442
20
-168.044
11
-141.044
21
-168.442
0
LINE
5
298
100
AcDbEntity
8
inside-cut
6
ByLayer
62
256
370
-1
100
AcDbLine
10
-141.044
20
-168.442
11
-140.788
21
-168.944
0
LINE
5
299
100
AcDbEntity
8
inside-cut
6
ByLayer
62
256
370
-1
100
AcDbLine
10
-140.788
20
-168.944
11
-140.7
21
-169.5
0
LINE
5
29A
100
AcDbEntity
8
inside-cut
6
ByLayer
62
256
370
-1
100
AcDbLine
10
-140.7
20
-169.5
11
-140.788
21
-170.056
0
LINE
5
29B
100
AcDbEntity
8
inside-cut
6
ByLayer
62
256
370
-1
100
AcDbLine
10
-140.788
20
-170.056
11
-141.044
21
-170.558
0
LINE
5
29C
100
AcDbEntity
8
inside-cut
6
ByLayer
62
256
370
-1
100
AcDbLine
10
-141.044
20
-170.558
11
-141.442
21
-170.956
0
LINE
5
29D
100
AcDbEntity
8
inside-cut
6
ByLayer
62
256
370
-1
100
AcDbLine
10
-141.442
20
-170.956
11
-141.944
21
-171.212
0
LINE
5
29E
100
AcDbEntity
8
inside-cut
6
ByLayer
62
256
370
-1
100
AcDbLine
10
-141.944
20
-171.212
11
-142.5
21
-171.3
0
LINE
5
29F
100
AcDbEntity
8
inside-cut
6
ByLayer
62
256
370
-1
100
AcDbLine
10
-142.5
20
-171.3
11
-143.056
21
-171.212
0
LINE
5
2A0
100
AcDbEntity
8
inside-cut
6
ByLayer
62
256
370
-1
100
AcDbLine
10
-143.056
20
-171.212
11
-143.558
21
-170.956
0
LINE
5
2A1
100
AcDbEntity
8
inside-cut
6
ByLayer
62
256
370
-1
100
AcDbLine
10
-143.558
20
-170.956
11
-143.956
21
-170.558
0
LINE
5
2A2
100
AcDbEntity
8
inside-cut
6
ByLayer
62
256
370
-1
100
AcDbLine
10
-143.956
20
-170.558
11
-144.212
21
-170.056
0
LINE
5
2A3
100
AcDbEntity
8
inside-cut
6
ByLayer
62
256
370
-1
100
AcDbLine
10
-144.212
20
-170.056
11
-144.3
21
-169.5
0
LINE
5
2A4
100
AcDbEntity
8
inside-cut
6
ByLayer
62
256
370
-1
100
AcDbLine
10
-111.5
20
3.25
11
-111.5
21
36.75
0
LINE
5
2A5
100
AcDbEntity
8
inside-cut
6
ByLayer
62
256
370
-1
100
AcDbLine
10
-111.5
20
36.75
11
-78
21
36.75
0
LINE
5
2A6
100
AcDbEntity
8
inside-cut
6
ByLayer
62
256
370
-1
100
AcDbLine
10
-78
20
36.75
11
-78
21
3.25
0
LINE
5
2A7
100
AcDbEntity
8
inside-cut
6
ByLayer
62
256
370
-1
100
AcDbLine
10
-78
20
3.25
11
-111.5
21
3.25
0
LINE
5
2A8
100
AcDbEntity
8
inside-cut
6
ByLayer
62
256
370
-1
100
AcDbLine
10
-109.3
20
-169.5
11
-109.212
21
-168.944
0
LINE
5
2A9
100
AcDbEntity
8
inside-cut
6
ByLayer
62
256
370
-1
100
AcDbLine
10
-109.212
20
-168.944
11
-108.956
21
-168.442
0
LINE
5
2AA
100
AcDbEntity
8
inside-cut
6
ByLayer
62
256
370
-1
100
AcDbLine
10
-108.956
20
-168.442
11
-108.558
21
-168.044
0
LINE
5
2AB
100
AcDbEntity
8
inside-cut
6
ByLayer
62
256
370
-1
100
AcDbLine
10
-108.558
20
-168.044
11
-108.056
21
-167.788
0
LINE
5
2AC
100
AcDbEntity
8
inside-cut
6
ByLayer
62
256
370
-1
100
AcDbLine
10
-108.056
20
-167.788
11
-107.5
21
-167.7
0
LINE
5
2AD
100
AcDbEntity
8
inside-cut
6
ByLayer
62
256
370
-1
100
AcDbLine
10
-107.5
20
-167.7
11
-106.944
21
-167.788
0
LINE
5
2AE
100
AcDbEntity
8
inside-cut
6
ByLayer
62
256
370
-1
100
AcDbLine
10
-106.944
20
-167.788
11
-106.442
21
-168.044
0
LINE
5
2AF
100
AcDbEntity
8
inside-cut
6
ByLayer
62
256
370
-1
100
AcDbLine
10
-106.442
20
-168.044
11
-106.044
21
-168.442
0
LINE
5
2B0
100
AcDbEntity
8
inside-cut
6
ByLayer
62
256
370
-1
100
AcDbLine
10
-106.044
20
-168.442
11
-105.788
21
-168.944
0
LINE
5
2B1
100
AcDbEntity
8
inside-cut
6
ByLayer
62
256
370
-1
100
AcDbLine
10
-105.788
20
-168.944
11
-105.7
21
-169.5
0
LINE
5
2B2
100
AcDbEntity
8
inside-cut
6
ByLayer
62
256
370
-1
100
AcDbLine
10
-105.7
20
-169.5
11
-105.788
21
-170.056
0
LINE
5
2B3
100
AcDbEntity
8
inside-cut
6
ByLayer
62
256
370
-1
100
AcDbLine
10
-105.788
20
-170.056
11
-106.044
21
-170.558
0
LINE
5
2B4
100
AcDbEntity
8
inside-cut
6
ByLayer
62
256
370
-1
100
AcDbLine
10
-106.044
20
-170.558
11
-106.442
21
-170.956
0
LINE
5
2B5
100
AcDbEntity
8
inside-cut
6
ByLayer
62
256
370
-1
100
AcDbLine
10
-106.442
20
-170.956
11
-106.944
21
-171.212
0
LINE
5
2B6
100
AcDbEntity
8
inside-cut
6
ByLayer
62
256
370
-1
100
AcDbLine
10
-106.944
20
-171.212
11
-107.5
21
-171.3
0
LINE
5
2B7
100
AcDbEntity
8
inside-cut
6
ByLayer
62
256
370
-1
100
AcDbLine
10
-107.5
20
-171.3
11
-108.056
21
-171.212
0
LINE
5
2B8
100
AcDbEntity
8
inside-cut
6
ByLayer
62
256
370
-1
100
AcDbLine
10
-108.056
20
-171.212
11
-108.558
21
-170.956
0
LINE
5
2B9
100
AcDbEntity
8
inside-cut
6
ByLayer
62
256
370
-1
100
AcDbLine
10
-108.558
20
-170.956
11
-108.956
21
-170.558
0
LINE
5
2BA
100
AcDbEntity
8
inside-cut
6
ByLayer
62
256
370
-1
100
AcDbLine
10
-108.956
20
-170.558
11
-109.212
21
-170.056
0
LINE
5
2BB
100
AcDbEntity
8
inside-cut
6
ByLayer
62
256
370
-1
100
AcDbLine
10
-109.212
20
-170.056
11
-109.3
21
-169.5
0
LINE
5
2BC
100
AcDbEntity
8
inside-cut
6
ByLayer
62
256
370
-1
100
AcDbLine
10
-66.8
20
-169.5
11
-66.712
21
-168.944
0
LINE
5
2BD
100
AcDbEntity
8
inside-cut
6
ByLayer
62
256
370
-1
100
AcDbLine
10
-66.712
20
-168.944
11
-66.456
21
-168.442
0
LINE
5
2BE
100
AcDbEntity
8
inside-cut
6
ByLayer
62
256
370
-1
100
AcDbLine
10
-66.456
20
-168.442
11
-66.058
21
-168.044
0
LINE
5
2BF
100
AcDbEntity
8
inside-cut
6
ByLayer
62
256
370
-1
100
AcDbLine
10
-66.058
20
-168.044
11
-65.556
21
-167.788
0
LINE
5
2C0
100
AcDbEntity
8
inside-cut
6
ByLayer
62
256
370
-1
100
AcDbLine
10
-65.556
20
-167.788
11
-65
21
-167.7
0
LINE
5
2C1
100
AcDbEntity
8
inside-cut
6
ByLayer
62
256
370
-1
100
AcDbLine
10
-65
20
-167.7
11
-64.444
21
-167.788
0
LINE
5
2C2
100
AcDbEntity
8
inside-cut
6
ByLayer
62
256
370
-1
100
AcDbLine
10
-64.444
20
-167.788
11
-63.942
21
-168.044
0
LINE
5
2C3
100
AcDbEntity
8
inside-cut
6
ByLayer
62
256
370
-1
100
AcDbLine
10
-63.942
20
-168.044
11
-63.544
21
-168.442
0
LINE
5
2C4
100
AcDbEntity
8
inside-cut
6
ByLayer
62
256
370
-1
100
AcDbLine
10
-63.544
20
-168.442
11
-63.288
21
-168.944
0
LINE
5
2C5
100
AcDbEntity
8
inside-cut
6
ByLayer
62
256
370
-1
100
AcDbLine
10
-63.288
20
-168.944
11
-63.2
21
-169.5
0
LINE
5
2C6
100
AcDbEntity
8
inside-cut
6
ByLayer
62
256
370
-1
100
AcDbLine
10
-63.2
20
-169.5
11
-63.288
21
-170.056
0
LINE
5
2C7
100
AcDbEntity
8
inside-cut
6
ByLayer
62
256
370
-1
100
AcDbLine
10
-63.288
20
-170.056
11
-63.544
21
-170.558
0
LINE
5
2C8
100
AcDbEntity
8
inside-cut
6
ByLayer
62
256
370
-1
100
AcDbLine
10
-63.544
20
-170.558
11
-63.942
21
-170.956
0
LINE
5
2C9
100
AcDbEntity
8
inside-cut
6
ByLayer
62
256
370
-1
100
AcDbLine
10
-63.942
20
-170.956
11
-64.444
21
-171.212
0
LINE
5
2CA
100
AcDbEntity
8
inside-cut
6
ByLayer
62
256
370
-1
100
AcDbLine
10
-64.444
20
-171.212
11
-65
21
-171.3
0
LINE
5
2CB
100
AcDbEntity
8
inside-cut
6
ByLayer
62
256
370
-1
100
AcDbLine
10
-65
20
-171.3
11
-65.556
21
-171.212
0
LINE
5
2CC
100
AcDbEntity
8
inside-cut
6
ByLayer
62
256
370
-1
100
AcDbLine
10
-65.556
20
-171.212
11
-66.058
21
-170.956
0
LINE
5
2CD
100
AcDbEntity
8
inside-cut
6
ByLayer
62
256
370
-1
100
AcDbLine
10
-66.058
20
-170.956
11
-66.456
21
-170.558
0
LINE
5
2CE
100
AcDbEntity
8
inside-cut
6
ByLayer
62
256
370
-1
100
AcDbLine
10
-66.456
20
-170.558
11
-66.712
21
-170.056
0
LINE
5
2CF
100
AcDbEntity
8
inside-cut
6
ByLayer
62
256
370
-1
100
AcDbLine
10
-66.712
20
-170.056
11
-66.8
21
-169.5
0
LINE
5
2D0
100
AcDbEntity
8
inside-cut
6
ByLayer
62
256
370
-1
100
AcDbLine
10
-31.006
20
-37.615
11
-31.006
21
-31.853
0
LINE
5
2D1
100
AcDbEntity
8
inside-cut
6
ByLayer
62
256
370
-1
100
AcDbLine
10
-31.006
20
-31.853
11
-24.994
21
-31.853
0
LINE
5
2D2
100
AcDbEntity
8
inside-cut
6
ByLayer
62
256
370
-1
100
AcDbLine
10
-24.994
20
-31.853
11
-24.994
21
-37.615
0
LINE
5
2D3
100
AcDbEntity
8
inside-cut
6
ByLayer
62
256
370
-1
100
AcDbLine
10
-24.994
20
-37.615
11
-31.006
21
-37.615
0
LINE
5
2D4
100
AcDbEntity
8
inside-cut
6
ByLayer
62
256
370
-1
100
AcDbLine
10
-31.006
20
-20.33
11
-31.006
21
-8.807
0
LINE
5
2D5
100
AcDbEntity
8
inside-cut
6
ByLayer
62
256
370
-1
100
AcDbLine
10
-31.006
20
-8.807
11
-24.994
21
-8.807
0
LINE
5
2D6
100
AcDbEntity
8
inside-cut
6
ByLayer
62
256
370
-1
100
AcDbLine
10
-24.994
20
-8.807
11
-24.994
21
-20.33
0
LINE
5
2D7
100
AcDbEntity
8
inside-cut
6
ByLayer
62
256
370
-1
100
AcDbLine
10
-24.994
20
-20.33
11
-31.006
21
-20.33
0
LINE
5
2D8
100
AcDbEntity
8
inside-cut
6
ByLayer
62
256
370
-1
100
AcDbLine
10
-31.006
20
2.716
11
-31.006
21
14.239
0
LINE
5
2D9
100
AcDbEntity
8
inside-cut
6
ByLayer
62
256
370
-1
100
AcDbLine
10
-31.006
20
14.239
11
-24.994
21
14.239
0
LINE
5
2DA
100
AcDbEntity
8
inside-cut
6
ByLayer
62
256
370
-1
100
AcDbLine
10
-24.994
20
14.239
11
-24.994
21
2.716
0
LINE
5
2DB
100
AcDbEntity
8
inside-cut
6
ByLayer
62
256
370
-1
100
AcDbLine
10
-24.994
20
2.716
11
-31.006
21
2.716
0
LINE
5
2DC
100
AcDbEntity
8
inside-cut
6
ByLayer
62
256
370
-1
100
AcDbLine
10
-31.006
20
25.762
11
-31.006
21
37.285
0
LINE
5
2DD
100
AcDbEntity
8
inside-cut
6
ByLayer
62
256
370
-1
100
AcDbLine
10
-31.006
20
37.285
11
-24.994
21
37.285
0
LINE
5
2DE
100
AcDbEntity
8
inside-cut
6
ByLayer
62
256
370
-1
100
AcDbLine
10
-24.994
20
37.285
11
-24.994
21
25.762
0
LINE
5
2DF
100
AcDbEntity
8
inside-cut
6
ByLayer
62
256
370
-1
100
AcDbLine
10
-24.994
20
25.762
11
-31.006
21
25.762
0
LINE
5
2E0
100
AcDbEntity
8
inside-cut
6
ByLayer
62
256
370
-1
100
AcDbLine
10
-31.006
20
48.808
11
-31.006
21
60.331
0
LINE
5
2E1
100
AcDbEntity
8
inside-cut
6
ByLayer
62
256
370
-1
100
AcDbLine
10
-31.006
20
60.331
11
-24.994
21
60.331
0
LINE
5
2E2
100
AcDbEntity
8
inside-cut
6
ByLayer
62
256
370
-1
100
AcDbLine
10
-24.994
20
60.331
11
-24.994
21
48.808
0
LINE
5
2E3
100
AcDbEntity
8
inside-cut
6
ByLayer
62
256
370
-1
100
AcDbLine
10
-24.994
20
48.808
11
-31.006
21
48.808
0
LINE
5
2E4
100
AcDbEntity
8
inside-cut
6
ByLayer
62
256
370
-1
100
AcDbLine
10
-31.006
20
71.854
11
-31.006
21
77.615
0
LINE
5
2E5
100
AcDbEntity
8
inside-cut
6
ByLayer
62
256
370
-1
100
AcDbLine
10
-31.006
20
77.615
11
-24.994
21
77.615
0
LINE
5
2E6
100
AcDbEntity
8
inside-cut
6
ByLayer
62
256
370
-1
100
AcDbLine
10
-24.994
20
77.615
11
-24.994
21
71.854
0
LINE
5
2E7
100
AcDbEntity
8
inside-cut
6
ByLayer
62
256
370
-1
100
AcDbLine
10
-24.994
20
71.854
11
-31.006
21
71.854
0
LINE
5
2E8
100
AcDbEntity
8
inside-cut
6
ByLayer
62
256
370
-1
100
AcDbLine
10
-29.48
20
-111.875
11
-29.48
21
-110.125
0
LINE
5
2E9
100
AcDbEntity
8
inside-cut
6
ByLayer
62
256
370
-1
100
AcDbLine
10
-29.48
20
-110.125
11
-29.324
21
-108.382
0
LINE
5
2EA
100
AcDbEntity
8
inside-cut
6
ByLayer
62
256
370
-1
100
AcDbLine
10
-29.324
20
-108.382
11
-29.011
21
-106.661
0
LINE
5
2EB
100
AcDbEntity
8
inside-cut
6
ByLayer
62
256
370
-1
100
AcDbLine
10
-29.011
20
-106.661
11
-28.546
21
-104.974
0
LINE
5
2EC
100
AcDbEntity
8
inside-cut
6
ByLayer
62
256
370
-1
100
AcDbLine
10
-28.546
20
-104.974
11
-27.931
21
-103.336
0
LINE
5
2ED
100
AcDbEntity
8
inside-cut
6
ByLayer
62
256
370
-1
100
AcDbLine
10
-27.931
20
-103.336
11
-27.172
21
-101.76
0
LINE
5
2EE
100
AcDbEntity
8
inside-cut
6
ByLayer
62
256
370
-1
100
AcDbLine
10
-27.172
20
-101.76
11
-26.274
21
-100.258
0
LINE
5
2EF
100
AcDbEntity
8
inside-cut
6
ByLayer
62
256
370
-1
100
AcDbLine
10
-26.274
20
-100.258
11
-25.246
21
-98.842
0
LINE
5
2F0
100
AcDbEntity
8
inside-cut
6
ByLayer
62
256
370
-1
100
AcDbLine
10
-25.246
20
-98.842
11
-24.095
21
-97.524
0
LINE
5
2F1
100
AcDbEntity
8
inside-cut
6
ByLayer
62
256
370
-1
100
AcDbLine
10
-24.095
20
-97.524
11
-22.83
21
-96.315
0
LINE
5
2F2
100
AcDbEntity
8
inside-cut
6
ByLayer
62
256
370
-1
100
AcDbLine
10
-22.83
20
-96.315
11
-21.462
21
-95.224
0
LINE
5
2F3
100
AcDbEntity
8
inside-cut
6
ByLayer
62
256
370
-1
100
AcDbLine
10
-21.462
20
-95.224
11
-20.002
21
-94.26
0
LINE
5
2F4
100
AcDbEntity
8
inside-cut
6
ByLayer
62
256
370
-1
100
AcDbLine
10
-20.002
20
-94.26
11
-18.461
21
-93.431
0
LINE
5
2F5
100
AcDbEntity
8
inside-cut
6
ByLayer
62
256
370
-1
100
AcDbLine
10
-18.461
20
-93.431
11
-16.852
21
-92.743
0
LINE
5
2F6
100
AcDbEntity
8
inside-cut
6
ByLayer
62
256
370
-1
100
AcDbLine
10
-16.852
20
-92.743
11
-15.188
21
-92.203
0
LINE
5
2F7
100
AcDbEntity
8
inside-cut
6
ByLayer
62
256
370
-1
100
AcDbLine
10
-15.188
20
-92.203
11
-13.482
21
-91.813
0
LINE
5
2F8
100
AcDbEntity
8
inside-cut
6
ByLayer
62
256
370
-1
100
AcDbLine
10
-13.482
20
-91.813
11
-11.748
21
-91.579
0
LINE
5
2F9
100
AcDbEntity
8
inside-cut
6
ByLayer
62
256
370
-1
100
AcDbLine
10
-11.748
20
-91.579
11
-10
21
-91.5
0
LINE
5
2FA
100
AcDbEntity
8
inside-cut
6
ByLayer
62
256
370
-1
100
AcDbLine
10
-10
20
-91.5
11
-8.252
21
-91.579
0
LINE
5
2FB
100
AcDbEntity
8
inside-cut
6
ByLayer
62
256
370
-1
100
AcDbLine
10
-8.252
20
-91.579
11
-6.518
21
-91.813
0
LINE
5
2FC
100
AcDbEntity
8
inside-cut
6
ByLayer
62
256
370
-1
100
AcDbLine
10
-6.518
20
-91.813
11
-4.812
21
-92.203
0
LINE
5
2FD
100
AcDbEntity
8
inside-cut
6
ByLayer
62
256
370
-1
100
AcDbLine
10
-4.812
20
-92.203
11
-3.148
21
-92.743
0
LINE
5
2FE
100
AcDbEntity
8
inside-cut
6
ByLayer
62
256
370
-1
100
AcDbLine
10
-3.148
20
-92.743
11
-1.539
21
-93.431
0
LINE
5
2FF
100
AcDbEntity
8
inside-cut
6
ByLayer
62
256
370
-1
100
AcDbLine
10
-1.539
20
-93.431
11
0.002
21
-94.26
0
LINE
5
300
100
AcDbEntity
8
inside-cut
6
ByLayer
62
256
370
-1
100
AcDbLine
10
0.002
20
-94.26
11
1.462
21
-95.224
0
LINE
5
301
100
AcDbEntity
8
inside-cut
6
ByLayer
62
256
370
-1
100
AcDbLine
10
1.462
20
-95.224
11
2.83
21
-96.315
0
LINE
5
302
100
AcDbEntity
8
inside-cut
6
ByLayer
62
256
370
-1
100
AcDbLine
10
2.83
20
-96.315
11
4.094
21
-97.524
0
LINE
5
303
100
AcDbEntity
8
inside-cut
6
ByLayer
62
256
370
-1
100
AcDbLine
10
4.094
20
-97.524
11
5.246
21
-98.842
0
LINE
5
304
100
AcDbEntity
8
inside-cut
6
ByLayer
62
256
370
-1
100
AcDbLine
10
5.246
20
-98.842
11
6.274
21
-100.258
0
LINE
5
305
100
AcDbEntity
8
inside-cut
6
ByLayer
62
256
370
-1
100
AcDbLine
10
6.274
20
-100.258
11
7.172
21
-101.76
0
LINE
5
306
100
AcDbEntity
8
inside-cut
6
ByLayer
62
256
370
-1
100
AcDbLine
10
7.172
20
-101.76
11
7.931
21
-103.336
0
LINE
5
307
100
AcDbEntity
8
inside-cut
6
ByLayer
62
256
370
-1
100
AcDbLine
10
7.931
20
-103.336
11
8.546
21
-104.974
0
LINE
5
308
100
AcDbEntity
8
inside-cut
6
ByLayer
62
256
370
-1
100
AcDbLine
10
8.546
20
-104.974
11
9.011
21
-106.661
0
LINE
5
309
100
AcDbEntity
8
inside-cut
6
ByLayer
62
256
370
-1
100
AcDbLine
10
9.011
20
-106.661
11
9.324
21
-108.382
0
LINE
5
30A
100
AcDbEntity
8
inside-cut
6
ByLayer
62
256
370
-1
100
AcDbLine
10
9.324
20
-108.382
11
9.48
21
-110.125
0
LINE
5
30B
100
AcDbEntity
8
inside-cut
6
ByLayer
62
256
370
-1
100
AcDbLine
10
9.48
20
-110.125
11
9.48
21
-111.875
0
LINE
5
30C
100
AcDbEntity
8
inside-cut
6
ByLayer
62
256
370
-1
100
AcDbLine
10
9.48
20
-111.875
11
9.324
21
-113.618
0
LINE
5
30D
100
AcDbEntity
8
inside-cut
6
ByLayer
62
256
370
-1
100
AcDbLine
10
9.324
20
-113.618
11
9.011
21
-115.339
0
LINE
5
30E
100
AcDbEntity
8
inside-cut
6
ByLayer
62
256
370
-1
100
AcDbLine
10
9.011
20
-115.339
11
8.546
21
-117.026
0
LINE
5
30F
100
AcDbEntity
8
inside-cut
6
ByLayer
62
256
370
-1
100
AcDbLine
10
8.546
20
-117.026
11
7.931
21
-118.664
0
LINE
5
310
100
AcDbEntity
8
inside-cut
6
ByLayer
62
256
370
-1
100
AcDbLine
10
7.931
20
-118.664
11
7.172
21
-120.24
0
LINE
5
311
100
AcDbEntity
8
inside-cut
6
ByLayer
62
256
370
-1
100
AcDbLine
10
7.172
20
-120.24
11
6.274
21
-121.742
0
LINE
5
312
100
AcDbEntity
8
inside-cut
6
ByLayer
62
256
370
-1
100
AcDbLine
10
6.274
20
-121.742
11
5.246
21
-123.158
0
LINE
5
313
100
AcDbEntity
8
inside-cut
6
ByLayer
62
256
370
-1
100
AcDbLine
10
5.246
20
-123.158
11
4.094
21
-124.476
0
LINE
5
314
100
AcDbEntity
8
inside-cut
6
ByLayer
62
256
370
-1
100
AcDbLine
10
4.094
20
-124.476
11
2.83
21
-125.685
0
LINE
5
315
100
AcDbEntity
8
inside-cut
6
ByLayer
62
256
370
-1
100
AcDbLine
10
2.83
20
-125.685
11
1.462
21
-126.776
0
LINE
5
316
100
AcDbEntity
8
inside-cut
6
ByLayer
62
256
370
-1
100
AcDbLine
10
1.462
20
-126.776
11
0.002
21
-127.74
0
LINE
5
317
100
AcDbEntity
8
inside-cut
6
ByLayer
62
256
370
-1
100
AcDbLine
10
0.002
20
-127.74
11
-1.539
21
-128.569
0
LINE
5
318
100
AcDbEntity
8
inside-cut
6
ByLayer
62
256
370
-1
100
AcDbLine
10
-1.539
20
-128.569
11
-3.148
21
-129.257
0
LINE
5
319
100
AcDbEntity
8
inside-cut
6
ByLayer
62
256
370
-1
100
AcDbLine
10
-3.148
20
-129.257
11
-4.812
21
-129.797
0
LINE
5
31A
100
AcDbEntity
8
inside-cut
6
ByLayer
62
256
370
-1
100
AcDbLine
10
-4.812
20
-129.797
11
-6.518
21
-130.187
0
LINE
5
31B
100
AcDbEntity
8
inside-cut
6
ByLayer
62
256
370
-1
100
AcDbLine
10
-6.518
20
-130.187
11
-8.252
21
-130.421
0
LINE
5
31C
100
AcDbEntity
8
inside-cut
6
ByLayer
62
256
370
-1
100
AcDbLine
10
-8.252
20
-130.421
11
-10
21
-130.5
0
LINE
5
31D
100
AcDbEntity
8
inside-cut
6
ByLayer
62
256
370
-1
100
AcDbLine
10
-10
20
-130.5
11
-11.748
21
-130.421
0
LINE
5
31E
100
AcDbEntity
8
inside-cut
6
ByLayer
62
256
370
-1
100
AcDbLine
10
-11.748
20
-130.421
11
-13.482
21
-130.187
0
LINE
5
31F
100
AcDbEntity
8
inside-cut
6
ByLayer
62
256
370
-1
100
AcDbLine
10
-13.482
20
-130.187
11
-15.188
21
-129.797
0
LINE
5
320
100
AcDbEntity
8
inside-cut
6
ByLayer
62
256
370
-1
100
AcDbLine
10
-15.188
20
-129.797
11
-16.852
21
-129.257
0
LINE
5
321
100
AcDbEntity
8
inside-cut
6
ByLayer
62
256
370
-1
100
AcDbLine
10
-16.852
20
-129.257
11
-18.461
21
-128.569
0
LINE
5
322
100
AcDbEntity
8
inside-cut
6
ByLayer
62
256
370
-1
100
AcDbLine
10
-18.461
20
-128.569
11
-20.002
21
-127.74
0
LINE
5
323
100
AcDbEntity
8
inside-cut
6
ByLayer
62
256
370
-1
100
AcDbLine
10
-20.002
20
-127.74
11
-21.462
21
-126.776
0
LINE
5
324
100
AcDbEntity
8
inside-cut
6
ByLayer
62
256
370
-1
100
AcDbLine
10
-21.462
20
-126.776
11
-22.83
21
-125.685
0
LINE
5
325
100
AcDbEntity
8
inside-cut
6
ByLayer
62
256
370
-1
100
AcDbLine
10
-22.83
20
-125.685
11
-24.095
21
-124.476
0
LINE
5
326
100
AcDbEntity
8
inside-cut
6
ByLayer
62
256
370
-1
100
AcDbLine
10
-24.095
20
-124.476
11
-25.246
21
-123.158
0
LINE
5
327
100
AcDbEntity
8
inside-cut
6
ByLayer
62
256
370
-1
100
AcDbLine
10
-25.246
20
-123.158
11
-26.274
21
-121.742
0
LINE
5
328
100
AcDbEntity
8
inside-cut
6
ByLayer
62
256
370
-1
100
AcDbLine
10
-26.274
20
-121.742
11
-27.172
21
-120.24
0
LINE
5
329
100
AcDbEntity
8
inside-cut
6
ByLayer
62
256
370
-1
100
AcDbLine
10
-27.172
20
-120.24
11
-27.931
21
-118.664
0
LINE
5
32A
100
AcDbEntity
8
inside-cut
6
ByLayer
62
256
370
-1
100
AcDbLine
10
-27.931
20
-118.664
11
-28.546
21
-117.026
0
LINE
5
32B
100
AcDbEntity
8
inside-cut
6
ByLayer
62
256
370
-1
100
AcDbLine
10
-28.546
20
-117.026
11
-29.011
21
-115.339
0
LINE
5
32C
100
AcDbEntity
8
inside-cut
6
ByLayer
62
256
370
-1
100
AcDbLine
10
-29.011
20
-115.339
11
-29.324
21
-113.618
0
LINE
5
32D
100
AcDbEntity
8
inside-cut
6
ByLayer
62
256
370
-1
100
AcDbLine
10
-29.324
20
-113.618
11
-29.48
21
-111.875
0
LINE
5
32E
100
AcDbEntity
8
inside-cut
6
ByLayer
62
256
370
-1
100
AcDbLine
10
-29.48
20
150.125
11
-29.48
21
151.875
0
LINE
5
32F
100
AcDbEntity
8
inside-cut
6
ByLayer
62
256
370
-1
100
AcDbLine
10
-29.48
20
151.875
11
-29.324
21
153.618
0
LINE
5
330
100
AcDbEntity
8
inside-cut
6
ByLayer
62
256
370
-1
100
AcDbLine
10
-29.324
20
153.618
11
-29.011
21
155.339
0
LINE
5
331
100
AcDbEntity
8
inside-cut
6
ByLayer
62
256
370
-1
100
AcDbLine
10
-29.011
20
155.339
11
-28.546
21
157.026
0
LINE
5
332
100
AcDbEntity
8
inside-cut
6
ByLayer
62
256
370
-1
100
AcDbLine
10
-28.546
20
157.026
11
-27.931
21
158.664
0
LINE
5
333
100
AcDbEntity
8
inside-cut
6
ByLayer
62
256
370
-1
100
AcDbLine
10
-27.931
20
158.664
11
-27.172
21
160.24
0
LINE
5
334
100
AcDbEntity
8
inside-cut
6
ByLayer
62
256
370
-1
100
AcDbLine
10
-27.172
20
160.24
11
-26.274
21
161.742
0
LINE
5
335
100
AcDbEntity
8
inside-cut
6
ByLayer
62
256
370
-1
100
AcDbLine
10
-26.274
20
161.742
11
-25.246
21
163.158
0
LINE
5
336
100
AcDbEntity
8
inside-cut
6
ByLayer
62
256
370
-1
100
AcDbLine
10
-25.246
20
163.158
11
-24.094
21
164.476
0
LINE
5
337
100
AcDbEntity
8
inside-cut
6
ByLayer
62
256
370
-1
100
AcDbLine
10
-24.094
20
164.476
11
-22.83
21
165.685
0
LINE
5
338
100
AcDbEntity
8
inside-cut
6
ByLayer
62
256
370
-1
100
AcDbLine
10
-22.83
20
165.685
11
-21.462
21
166.776
0
LINE
5
339
100
AcDbEntity
8
inside-cut
6
ByLayer
62
256
370
-1
100
AcDbLine
10
-21.462
20
166.776
11
-20.002
21
167.74
0
LINE
5
33A
100
AcDbEntity
8
inside-cut
6
ByLayer
62
256
370
-1
100
AcDbLine
10
-20.002
20
167.74
11
-18.461
21
168.569
0
LINE
5
33B
100
AcDbEntity
8
inside-cut
6
ByLayer
62
256
370
-1
100
AcDbLine
10
-18.461
20
168.569
11
-16.852
21
169.257
0
LINE
5
33C
100
AcDbEntity
8
inside-cut
6
ByLayer
62
256
370
-1
100
AcDbLine
10
-16.852
20
169.257
11
-15.188
21
169.797
0
LINE
5
33D
100
AcDbEntity
8
inside-cut
6
ByLayer
62
256
370
-1
100
AcDbLine
10
-15.188
20
169.797
11
-13.482
21
170.187
0
LINE
5
33E
100
AcDbEntity
8
inside-cut
6
ByLayer
62
256
370
-1
100
AcDbLine
10
-13.482
20
170.187
11
-11.748
21
170.421
0
LINE
5
33F
100
AcDbEntity
8
inside-cut
6
ByLayer
62
256
370
-1
100
AcDbLine
10
-11.748
20
170.421
11
-10
21
170.5
0
LINE
5
340
100
AcDbEntity
8
inside-cut
6
ByLayer
62
256
370
-1
100
AcDbLine
10
-10
20
170.5
11
-8.252
21
170.421
0
LINE
5
341
100
AcDbEntity
8
inside-cut
6
ByLayer
62
256
370
-1
100
AcDbLine
10
-8.252
20
170.421
11
-6.518
21
170.187
0
LINE
5
342
100
AcDbEntity
8
inside-cut
6
ByLayer
62
256
370
-1
100
AcDbLine
10
-6.518
20
170.187
11
-4.812
21
169.797
0
LINE
5
343
100
AcDbEntity
8
inside-cut
6
ByLayer
62
256
370
-1
100
AcDbLine
10
-4.812
20
169.797
11
-3.148
21
169.257
0
LINE
5
344
100
AcDbEntity
8
inside-cut
6
ByLayer
62
256
370
-1
100
AcDbLine
10
-3.148
20
169.257
11
-1.539
21
168.569
0
LINE
5
345
100
AcDbEntity
8
inside-cut
6
ByLayer
62
256
370
-1
100
AcDbLine
10
-1.539
20
168.569
11
0.002
21
167.74
0
LINE
5
346
100
AcDbEntity
8
inside-cut
6
ByLayer
62
256
370
-1
100
AcDbLine
10
0.002
20
167.74
11
1.462
21
166.776
0
LINE
5
347
100
AcDbEntity
8
inside-cut
6
ByLayer
62
256
370
-1
100
AcDbLine
10
1.462
20
166.776
11
2.83
21
165.685
0
LINE
5
348
100
AcDbEntity
8
inside-cut
6
ByLayer
62
256
370
-1
100
AcDbLine
10
2.83
20
165.685
11
4.095
21
164.476
0
LINE
5
349
100
AcDbEntity
8
inside-cut
6
ByLayer
62
256
370
-1
100
AcDbLine
10
4.095
20
164.476
11
5.246
21
163.158
0
LINE
5
34A
100
AcDbEntity
8
inside-cut
6
ByLayer
62
256
370
-1
100
AcDbLine
10
5.246
20
163.158
11
6.274
21
161.742
0
LINE
5
34B
100
AcDbEntity
8
inside-cut
6
ByLayer
62
256
370
-1
100
AcDbLine
10
6.274
20
161.742
11
7.172
21
160.24
0
LINE
5
34C
100
AcDbEntity
8
inside-cut
6
ByLayer
62
256
370
-1
100
AcDbLine
10
7.172
20
160.24
11
7.931
21
158.664
0
LINE
5
34D
100
AcDbEntity
8
inside-cut
6
ByLayer
62
256
370
-1
100
AcDbLine
10
7.931
20
158.664
11
8.546
21
157.026
0
LINE
5
34E
100
AcDbEntity
8
inside-cut
6
ByLayer
62
256
370
-1
100
AcDbLine
10
8.546
20
157.026
11
9.011
21
155.339
0
LINE
5
34F
100
AcDbEntity
8
inside-cut
6
ByLayer
62
256
370
-1
100
AcDbLine
10
9.011
20
155.339
11
9.324
21
153.618
0
LINE
5
350
100
AcDbEntity
8
inside-cut
6
ByLayer
62
256
370
-1
100
AcDbLine
10
9.324
20
153.618
11
9.48
21
151.875
0
LINE
5
351
100
AcDbEntity
8
inside-cut
6
ByLayer
62
256
370
-1
100
AcDbLine
10
9.48
20
151.875
11
9.48
21
150.125
0
LINE
5
352
100
AcDbEntity
8
inside-cut
6
ByLayer
62
256
370
-1
100
AcDbLine
10
9.48
20
150.125
11
9.324
21
148.382
0
LINE
5
353
100
AcDbEntity
8
inside-cut
6
ByLayer
62
256
370
-1
100
AcDbLine
10
9.324
20
148.382
11
9.011
21
146.661
0
LINE
5
354
100
AcDbEntity
8
inside-cut
6
ByLayer
62
256
370
-1
100
AcDbLine
10
9.011
20
146.661
11
8.546
21
144.974
0
LINE
5
355
100
AcDbEntity
8
inside-cut
6
ByLayer
62
256
370
-1
100
AcDbLine
10
8.546
20
144.974
11
7.931
21
143.336
0
LINE
5
356
100
AcDbEntity
8
inside-cut
6
ByLayer
62
256
370
-1
100
AcDbLine
10
7.931
20
143.336
11
7.172
21
141.76
0
LINE
5
357
100
AcDbEntity
8
inside-cut
6
ByLayer
62
256
370
-1
100
AcDbLine
10
7.172
20
141.76
11
6.274
21
140.258
0
LINE
5
358
100
AcDbEntity
8
inside-cut
6
ByLayer
62
256
370
-1
100
AcDbLine
10
6.274
20
140.258
11
5.246
21
138.842
0
LINE
5
359
100
AcDbEntity
8
inside-cut
6
ByLayer
62
256
370
-1
100
AcDbLine
10
5.246
20
138.842
11
4.095
21
137.524
0
LINE
5
35A
100
AcDbEntity
8
inside-cut
6
ByLayer
62
256
370
-1
100
AcDbLine
10
4.095
20
137.524
11
2.83
21
136.315
0
LINE
5
35B
100
AcDbEntity
8
inside-cut
6
ByLayer
62
256
370
-1
100
AcDbLine
10
2.83
20
136.315
11
1.462
21
135.224
0
LINE
5
35C
100
AcDbEntity
8
inside-cut
6
ByLayer
62
256
370
-1
100
AcDbLine
10
1.462
20
135.224
11
0.002
21
134.26
0
LINE
5
35D
100
AcDbEntity
8
inside-cut
6
ByLayer
62
256
370
-1
100
AcDbLine
10
0.002
20
134.26
11
-1.539
21
133.431
0
LINE
5
35E
100
AcDbEntity
8
inside-cut
6
ByLayer
62
256
370
-1
100
AcDbLine
10
-1.539
20
133.431
11
-3.148
21
132.743
0
LINE
5
35F
100
AcDbEntity
8
inside-cut
6
ByLayer
62
256
370
-1
100
AcDbLine
10
-3.148
20
132.743
11
-4.812
21
132.203
0
LINE
5
360
100
AcDbEntity
8
inside-cut
6
ByLayer
62
256
370
-1
100
AcDbLine
10
-4.812
20
132.203
11
-6.518
21
131.813
0
LINE
5
361
100
AcDbEntity
8
inside-cut
6
ByLayer
62
256
370
-1
100
AcDbLine
10
-6.518
20
131.813
11
-8.252
21
131.579
0
LINE
5
362
100
AcDbEntity
8
inside-cut
6
ByLayer
62
256
370
-1
100
AcDbLine
10
-8.252
20
131.579
11
-10
21
131.5
0
LINE
5
363
100
AcDbEntity
8
inside-cut
6
ByLayer
62
256
370
-1
100
AcDbLine
10
-10
20
131.5
11
-11.748
21
131.579
0
LINE
5
364
100
AcDbEntity
8
inside-cut
6
ByLayer
62
256
370
-1
100
AcDbLine
10
-11.748
20
131.579
11
-13.482
21
131.813
0
LINE
5
365
100
AcDbEntity
8
inside-cut
6
ByLayer
62
256
370
-1
100
AcDbLine
10
-13.482
20
131.813
11
-15.188
21
132.203
0
LINE
5
366
100
AcDbEntity
8
inside-cut
6
ByLayer
62
256
370
-1
100
AcDbLine
10
-15.188
20
132.203
11
-16.852
21
132.743
0
LINE
5
367
100
AcDbEntity
8
inside-cut
6
ByLayer
62
256
370
-1
100
AcDbLine
10
-16.852
20
132.743
11
-18.461
21
133.431
0
LINE
5
368
100
AcDbEntity
8
inside-cut
6
ByLayer
62
256
370
-1
100
AcDbLine
10
-18.461
20
133.431
11
-20.002
21
134.26
0
LINE
5
369
100
AcDbEntity
8
inside-cut
6
ByLayer
62
256
370
-1
100
AcDbLine
10
-20.002
20
134.26
11
-21.462
21
135.224
0
LINE
5
36A
100
AcDbEntity
8
inside-cut
6
ByLayer
62
256
370
-1
100
AcDbLine
10
-21.462
20
135.224
11
-22.83
21
136.315
0
LINE
5
36B
100
AcDbEntity
8
inside-cut
6
ByLayer
62
256
370
-1
100
AcDbLine
10
-22.83
20
136.315
11
-24.094
21
137.524
0
LINE
5
36C
100
AcDbEntity
8
inside-cut
6
ByLayer
62
256
370
-1
100
AcDbLine
10
-24.094
20
137.524
11
-25.246
21
138.842
0
LINE
5
36D
100
AcDbEntity
8
inside-cut
6
ByLayer
62
256
370
-1
100
AcDbLine
10
-25.246
20
138.842
11
-26.274
21
140.258
0
LINE
5
36E
100
AcDbEntity
8
inside-cut
6
ByLayer
62
256
370
-1
100
AcDbLine
10
-26.274
20
140.258
11
-27.172
21
141.76
0
LINE
5
36F
100
AcDbEntity
8
inside-cut
6
ByLayer
62
256
370
-1
100
AcDbLine
10
-27.172
20
141.76
11
-27.931
21
143.336
0
LINE
5
370
100
AcDbEntity
8
inside-cut
6
ByLayer
62
256
370
-1
100
AcDbLine
10
-27.931
20
143.336
11
-28.546
21
144.974
0
LINE
5
371
100
AcDbEntity
8
inside-cut
6
ByLayer
62
256
370
-1
100
AcDbLine
10
-28.546
20
144.974
11
-29.011
21
146.661
0
LINE
5
372
100
AcDbEntity
8
inside-cut
6
ByLayer
62
256
370
-1
100
AcDbLine
10
-29.011
20
146.661
11
-29.324
21
148.382
0
LINE
5
373
100
AcDbEntity
8
inside-cut
6
ByLayer
62
256
370
-1
100
AcDbLine
10
-29.324
20
148.382
11
-29.48
21
150.125
0
LINE
5
374
100
AcDbEntity
8
inside-cut
6
ByLayer
62
256
370
-1
100
AcDbLine
10
-24.3
20
-169.5
11
-24.212
21
-168.944
0
LINE
5
375
100
AcDbEntity
8
inside-cut
6
ByLayer
62
256
370
-1
100
AcDbLine
10
-24.212
20
-168.944
11
-23.956
21
-168.442
0
LINE
5
376
100
AcDbEntity
8
inside-cut
6
ByLayer
62
256
370
-1
100
AcDbLine
10
-23.956
20
-168.442
11
-23.558
21
-168.044
0
LINE
5
377
100
AcDbEntity
8
inside-cut
6
ByLayer
62
256
370
-1
100
AcDbLine
10
-23.558
20
-168.044
11
-23.056
21
-167.788
0
LINE
5
378
100
AcDbEntity
8
inside-cut
6
ByLayer
62
256
370
-1
100
AcDbLine
10
-23.056
20
-167.788
11
-22.5
21
-167.7
0
LINE
5
379
100
AcDbEntity
8
inside-cut
6
ByLayer
62
256
370
-1
100
AcDbLine
10
-22.5
20
-167.7
11
-21.944
21
-167.788
0
LINE
5
37A
100
AcDbEntity
8
inside-cut
6
ByLayer
62
256
370
-1
100
AcDbLine
10
-21.944
20
-167.788
11
-21.442
21
-168.044
0
LINE
5
37B
100
AcDbEntity
8
inside-cut
6
ByLayer
62
256
370
-1
100
AcDbLine
10
-21.442
20
-168.044
11
-21.044
21
-168.442
0
LINE
5
37C
100
AcDbEntity
8
inside-cut
6
ByLayer
62
256
370
-1
100
AcDbLine
10
-21.044
20
-168.442
11
-20.788
21
-168.944
0
LINE
5
37D
100
AcDbEntity
8
inside-cut
6
ByLayer
62
256
370
-1
100
AcDbLine
10
-20.788
20
-168.944
11
-20.7
21
-169.5
0
LINE
5
37E
100
AcDbEntity
8
inside-cut
6
ByLayer
62
256
370
-1
100
AcDbLine
10
-20.7
20
-169.5
11
-20.788
21
-170.056
0
LINE
5
37F
100
AcDbEntity
8
inside-cut
6
ByLayer
62
256
370
-1
100
AcDbLine
10
-20.788
20
-170.056
11
-21.044
21
-170.558
0
LINE
5
380
100
AcDbEntity
8
inside-cut
6
ByLayer
62
256
370
-1
100
AcDbLine
10
-21.044
20
-170.558
11
-21.442
21
-170.956
0
LINE
5
381
100
AcDbEntity
8
inside-cut
6
ByLayer
62
256
370
-1
100
AcDbLine
10
-21.442
20
-170.956
11
-21.944
21
-171.212
0
LINE
5
382
100
AcDbEntity
8
inside-cut
6
ByLayer
62
256
370
-1
100
AcDbLine
10
-21.944
20
-171.212
11
-22.5
21
-171.3
0
LINE
5
383
100
AcDbEntity
8
inside-cut
6
ByLayer
62
256
370
-1
100
AcDbLine
10
-22.5
20
-171.3
11
-23.056
21
-171.212
0
LINE
5
384
100
AcDbEntity
8
inside-cut
6
ByLayer
62
256
370
-1
100
AcDbLine
10
-23.056
20
-171.212
11
-23.558
21
-170.956
0
LINE
5
385
100
AcDbEntity
8
inside-cut
6
ByLayer
62
256
370
-1
100
AcDbLine
10
-23.558
20
-170.956
11
-23.956
21
-170.558
0
LINE
5
386
100
AcDbEntity
8
inside-cut
6
ByLayer
62
256
370
-1
100
AcDbLine
10
-23.956
20
-170.558
11
-24.212
21
-170.056
0
LINE
5
387
100
AcDbEntity
8
inside-cut
6
ByLayer
62
256
370
-1
100
AcDbLine
10
-24.212
20
-170.056
11
-24.3
21
-169.5
0
LINE
5
388
100
AcDbEntity
8
inside-cut
6
ByLayer
62
256
370
-1
100
AcDbLine
10
10.7
20
-179.5
11
10.788
21
-178.944
0
LINE
5
389
100
AcDbEntity
8
inside-cut
6
ByLayer
62
256
370
-1
100
AcDbLine
10
10.788
20
-178.944
11
11.044
21
-178.442
0
LINE
5
38A
100
AcDbEntity
8
inside-cut
6
ByLayer
62
256
370
-1
100
AcDbLine
10
11.044
20
-178.442
11
11.442
21
-178.044
0
LINE
5
38B
100
AcDbEntity
8
inside-cut
6
ByLayer
62
256
370
-1
100
AcDbLine
10
11.442
20
-178.044
11
11.944
21
-177.788
0
LINE
5
38C
100
AcDbEntity
8
inside-cut
6
ByLayer
62
256
370
-1
100
AcDbLine
10
11.944
20
-177.788
11
12.5
21
-177.7
0
LINE
5
38D
100
AcDbEntity
8
inside-cut
6
ByLayer
62
256
370
-1
100
AcDbLine
10
12.5
20
-177.7
11
13.056
21
-177.788
0
LINE
5
38E
100
AcDbEntity
8
inside-cut
6
ByLayer
62
256
370
-1
100
AcDbLine
10
13.056
20
-177.788
11
13.558
21
-178.044
0
LINE
5
38F
100
AcDbEntity
8
inside-cut
6
ByLayer
62
256
370
-1
100
AcDbLine
10
13.558
20
-178.044
11
13.956
21
-178.442
0
LINE
5
390
100
AcDbEntity
8
inside-cut
6
ByLayer
62
256
370
-1
100
AcDbLine
10
13.956
20
-178.442
11
14.212
21
-178.944
0
LINE
5
391
100
AcDbEntity
8
inside-cut
6
ByLayer
62
256
370
-1
100
AcDbLine
10
14.212
20
-178.944
11
14.3
21
-179.5
0
LINE
5
392
100
AcDbEntity
8
inside-cut
6
ByLayer
62
256
370
-1
100
AcDbLine
10
14.3
20
-179.5
11
14.212
21
-180.056
0
LINE
5
393
100
AcDbEntity
8
inside-cut
6
ByLayer
62
256
370
-1
100
AcDbLine
10
14.212
20
-180.056
11
13.956
21
-180.558
0
LINE
5
394
100
AcDbEntity
8
inside-cut
6
ByLayer
62
256
370
-1
100
AcDbLine
10
13.956
20
-180.558
11
13.558
21
-180.956
0
LINE
5
395
100
AcDbEntity
8
inside-cut
6
ByLayer
62
256
370
-1
100
AcDbLine
10
13.558
20
-180.956
11
13.056
21
-181.212
0
LINE
5
396
100
AcDbEntity
8
inside-cut
6
ByLayer
62
256
370
-1
100
AcDbLine
10
13.056
20
-181.212
11
12.5
21
-181.3
0
LINE
5
397
100
AcDbEntity
8
inside-cut
6
ByLayer
62
256
370
-1
100
AcDbLine
10
12.5
20
-181.3
11
11.944
21
-181.212
0
LINE
5
398
100
AcDbEntity
8
inside-cut
6
ByLayer
62
256
370
-1
100
AcDbLine
10
11.944
20
-181.212
11
11.442
21
-180.956
0
LINE
5
399
100
AcDbEntity
8
inside-cut
6
ByLayer
62
256
370
-1
100
AcDbLine
10
11.442
20
-180.956
11
11.044
21
-180.558
0
LINE
5
39A
100
AcDbEntity
8
inside-cut
6
ByLayer
62
256
370
-1
100
AcDbLine
10
11.044
20
-180.558
11
10.788
21
-180.056
0
LINE
5
39B
100
AcDbEntity
8
inside-cut
6
ByLayer
62
256
370
-1
100
AcDbLine
10
10.788
20
-180.056
11
10.7
21
-179.5
0
LINE
5
39C
100
AcDbEntity
8
inside-cut
6
ByLayer
62
256
370
-1
100
AcDbLine
10
53.2
20
-179.5
11
53.288
21
-178.944
0
LINE
5
39D
100
AcDbEntity
8
inside-cut
6
ByLayer
62
256
370
-1
100
AcDbLine
10
53.288
20
-178.944
11
53.544
21
-178.442
0
LINE
5
39E
100
AcDbEntity
8
inside-cut
6
ByLayer
62
256
370
-1
100
AcDbLine
10
53.544
20
-178.442
11
53.942
21
-178.044
0
LINE
5
39F
100
AcDbEntity
8
inside-cut
6
ByLayer
62
256
370
-1
100
AcDbLine
10
53.942
20
-178.044
11
54.444
21
-177.788
0
LINE
5
3A0
100
AcDbEntity
8
inside-cut
6
ByLayer
62
256
370
-1
100
AcDbLine
10
54.444
20
-177.788
11
55
21
-177.7
0
LINE
5
3A1
100
AcDbEntity
8
inside-cut
6
ByLayer
62
256
370
-1
100
AcDbLine
10
55
20
-177.7
11
55.556
21
-177.788
0
LINE
5
3A2
100
AcDbEntity
8
inside-cut
6
ByLayer
62
256
370
-1
100
AcDbLine
10
55.556
20
-177.788
11
56.058
21
-178.044
0
LINE
5
3A3
100
AcDbEntity
8
inside-cut
6
ByLayer
62
256
370
-1
100
AcDbLine
10
56.058
20
-178.044
11
56.456
21
-178.442
0
LINE
5
3A4
100
AcDbEntity
8
inside-cut
6
ByLayer
62
256
370
-1
100
AcDbLine
10
56.456
20
-178.442
11
56.712
21
-178.944
0
LINE
5
3A5
100
AcDbEntity
8
inside-cut
6
ByLayer
62
256
370
-1
100
AcDbLine
10
56.712
20
-178.944
11
56.8
21
-179.5
0
LINE
5
3A6
100
AcDbEntity
8
inside-cut
6
ByLayer
62
256
370
-1
100
AcDbLine
10
56.8
20
-179.5
11
56.712
21
-180.056
0
LINE
5
3A7
100
AcDbEntity
8
inside-cut
6
ByLayer
62
256
370
-1
100
AcDbLine
10
56.712
20
-180.056
11
56.456
21
-180.558
0
LINE
5
3A8
100
AcDbEntity
8
inside-cut
6
ByLayer
62
256
370
-1
100
AcDbLine
10
56.456
20
-180.558
11
56.058
21
-180.956
0
LINE
5
3A9
100
AcDbEntity
8
inside-cut
6
ByLayer
62
256
370
-1
100
AcDbLine
10
56.058
20
-180.956
11
55.556
21
-181.212
0
LINE
5
3AA
100
AcDbEntity
8
inside-cut
6
ByLayer
62
256
370
-1
100
AcDbLine
10
55.556
20
-181.212
11
55
21
-181.3
0
LINE
5
3AB
100
AcDbEntity
8
inside-cut
6
ByLayer
62
256
370
-1
100
AcDbLine
10
55
20
-181.3
11
54.444
21
-181.212
0
LINE
5
3AC
100
AcDbEntity
8
inside-cut
6
ByLayer
62
256
370
-1
100
AcDbLine
10
54.444
20
-181.212
11
53.942
21
-180.956
0
LINE
5
3AD
100
AcDbEntity
8
inside-cut
6
ByLayer
62
256
370
-1
100
AcDbLine
10
53.942
20
-180.956
11
53.544
21
-180.558
0
LINE
5
3AE
100
AcDbEntity
8
inside-cut
6
ByLayer
62
256
370
-1
100
AcDbLine
10
53.544
20
-180.558
11
53.288
21
-180.056
0
LINE
5
3AF
100
AcDbEntity
8
inside-cut
6
ByLayer
62
256
370
-1
100
AcDbLine
10
53.288
20
-180.056
11
53.2
21
-179.5
0
LINE
5
3B0
100
AcDbEntity
8
inside-cut
6
ByLayer
62
256
370
-1
100
AcDbLine
10
95.7
20
-179.5
11
95.788
21
-178.944
0
LINE
5
3B1
100
AcDbEntity
8
inside-cut
6
ByLayer
62
256
370
-1
100
AcDbLine
10
95.788
20
-178.944
11
96.044
21
-178.442
0
LINE
5
3B2
100
AcDbEntity
8
inside-cut
6
ByLayer
62
256
370
-1
100
AcDbLine
10
96.044
20
-178.442
11
96.442
21
-178.044
0
LINE
5
3B3
100
AcDbEntity
8
inside-cut
6
ByLayer
62
256
370
-1
100
AcDbLine
10
96.442
20
-178.044
11
96.944
21
-177.788
0
LINE
5
3B4
100
AcDbEntity
8
inside-cut
6
ByLayer
62
256
370
-1
100
AcDbLine
10
96.944
20
-177.788
11
97.5
21
-177.7
0
LINE
5
3B5
100
AcDbEntity
8
inside-cut
6
ByLayer
62
256
370
-1
100
AcDbLine
10
97.5
20
-177.7
11
98.056
21
-177.788
0
LINE
5
3B6
100
AcDbEntity
8
inside-cut
6
ByLayer
62
256
370
-1
100
AcDbLine
10
98.056
20
-177.788
11
98.558
21
-178.044
0
LINE
5
3B7
100
AcDbEntity
8
inside-cut
6
ByLayer
62
256
370
-1
100
AcDbLine
10
98.558
20
-178.044
11
98.956
21
-178.442
0
LINE
5
3B8
100
AcDbEntity
8
inside-cut
6
ByLayer
62
256
370
-1
100
AcDbLine
10
98.956
20
-178.442
11
99.212
21
-178.944
0
LINE
5
3B9
100
AcDbEntity
8
inside-cut
6
ByLayer
62
256
370
-1
100
AcDbLine
10
99.212
20
-178.944
11
99.3
21
-179.5
0
LINE
5
3BA
100
AcDbEntity
8
inside-cut
6
ByLayer
62
256
370
-1
100
AcDbLine
10
99.3
20
-179.5
11
99.212
21
-180.056
0
LINE
5
3BB
100
AcDbEntity
8
inside-cut
6
ByLayer
62
256
370
-1
100
AcDbLine
10
99.212
20
-180.056
11
98.956
21
-180.558
0
LINE
5
3BC
100
AcDbEntity
8
inside-cut
6
ByLayer
62
256
370
-1
100
AcDbLine
10
98.956
20
-180.558
11
98.558
21
-180.956
0
LINE
5
3BD
100
AcDbEntity
8
inside-cut
6
ByLayer
62
256
370
-1
100
AcDbLine
10
98.558
20
-180.956
11
98.056
21
-181.212
0
LINE
5
3BE
100
AcDbEntity
8
inside-cut
6
ByLayer
62
256
370
-1
100
AcDbLine
10
98.056
20
-181.212
11
97.5
21
-181.3
0
LINE
5
3BF
100
AcDbEntity
8
inside-cut
6
ByLayer
62
256
370
-1
100
AcDbLine
10
97.5
20
-181.3
11
96.944
21
-181.212
0
LINE
5
3C0
100
AcDbEntity
8
inside-cut
6
ByLayer
62
256
370
-1
100
AcDbLine
10
96.944
20
-181.212
11
96.442
21
-180.956
0
LINE
5
3C1
100
AcDbEntity
8
inside-cut
6
ByLayer
62
256
370
-1
100
AcDbLine
10
96.442
20
-180.956
11
96.044
21
-180.558
0
LINE
5
3C2
100
AcDbEntity
8
inside-cut
6
ByLayer
62
256
370
-1
100
AcDbLine
10
96.044
20
-180.558
11
95.788
21
-180.056
0
LINE
5
3C3
100
AcDbEntity
8
inside-cut
6
ByLayer
62
256
370
-1
100
AcDbLine
10
95.788
20
-180.056
11
95.7
21
-179.5
0
LINE
5
3C4
100
AcDbEntity
8
inside-cut
6
ByLayer
62
256
370
-1
100
AcDbLine
10
120.5
20
-123.5
11
120.538
21
-122.648
0
LINE
5
3C5
100
AcDbEntity
8
inside-cut
6
ByLayer
62
256
370
-1
100
AcDbLine
10
120.538
20
-122.648
11
120.653
21
-121.804
0
LINE
5
3C6
100
AcDbEntity
8
inside-cut
6
ByLayer
62
256
370
-1
100
AcDbLine
10
120.653
20
-121.804
11
120.842
21
-120.973
0
LINE
5
3C7
100
AcDbEntity
8
inside-cut
6
ByLayer
62
256
370
-1
100
AcDbLine
10
120.842
20
-120.973
11
121.106
21
-120.162
0
LINE
5
3C8
100
AcDbEntity
8
inside-cut
6
ByLayer
62
256
370
-1
100
AcDbLine
10
121.106
20
-120.162
11
121.441
21
-119.378
0
LINE
5
3C9
100
AcDbEntity
8
inside-cut
6
ByLayer
62
256
370
-1
100
AcDbLine
10
121.441
20
-119.378
11
121.845
21
-118.627
0
LINE
5
3CA
100
AcDbEntity
8
inside-cut
6
ByLayer
62
256
370
-1
100
AcDbLine
10
121.845
20
-118.627
11
122.314
21
-117.916
0
LINE
5
3CB
100
AcDbEntity
8
inside-cut
6
ByLayer
62
256
370
-1
100
AcDbLine
10
122.314
20
-117.916
11
122.846
21
-117.25
0
LINE
5
3CC
100
AcDbEntity
8
inside-cut
6
ByLayer
62
256
370
-1
100
AcDbLine
10
122.846
20
-117.25
11
123.435
21
-116.633
0
LINE
5
3CD
100
AcDbEntity
8
inside-cut
6
ByLayer
62
256
370
-1
100
AcDbLine
10
123.435
20
-116.633
11
124.077
21
-116.073
0
LINE
5
3CE
100
AcDbEntity
8
inside-cut
6
ByLayer
62
256
370
-1
100
AcDbLine
10
124.077
20
-116.073
11
124.766
21
-115.572
0
LINE
5
3CF
100
AcDbEntity
8
inside-cut
6
ByLayer
62
256
370
-1
100
AcDbLine
10
124.766
20
-115.572
11
125.498
21
-115.134
0
LINE
5
3D0
100
AcDbEntity
8
inside-cut
6
ByLayer
62
256
370
-1
100
AcDbLine
10
125.498
20
-115.134
11
126.266
21
-114.764
0
LINE
5
3D1
100
AcDbEntity
8
inside-cut
6
ByLayer
62
256
370
-1
100
AcDbLine
10
126.266
20
-114.764
11
127.064
21
-114.465
0
LINE
5
3D2
100
AcDbEntity
8
inside-cut
6
ByLayer
62
256
370
-1
100
AcDbLine
10
127.064
20
-114.465
11
127.886
21
-114.238
0
LINE
5
3D3
100
AcDbEntity
8
inside-cut
6
ByLayer
62
256
370
-1
100
AcDbLine
10
127.886
20
-114.238
11
128.725
21
-114.086
0
LINE
5
3D4
100
AcDbEntity
8
inside-cut
6
ByLayer
62
256
370
-1
100
AcDbLine
10
128.725
20
-114.086
11
129.574
21
-114.01
0
LINE
5
3D5
100
AcDbEntity
8
inside-cut
6
ByLayer
62
256
370
-1
100
AcDbLine
10
129.574
20
-114.01
11
130.426
21
-114.01
0
LINE
5
3D6
100
AcDbEntity
8
inside-cut
6
ByLayer
62
256
370
-1
100
AcDbLine
10
130.426
20
-114.01
11
131.275
21
-114.086
0
LINE
5
3D7
100
AcDbEntity
8
inside-cut
6
ByLayer
62
256
370
-1
100
AcDbLine
10
131.275
20
-114.086
11
132.114
21
-114.238
0
LINE
5
3D8
100
AcDbEntity
8
inside-cut
6
ByLayer
62
256
370
-1
100
AcDbLine
10
132.114
20
-114.238
11
132.936
21
-114.465
0
LINE
5
3D9
100
AcDbEntity
8
inside-cut
6
ByLayer
62
256
370
-1
100
AcDbLine
10
132.936
20
-114.465
11
133.734
21
-114.764
0
LINE
5
3DA
100
AcDbEntity
8
inside-cut
6
ByLayer
62
256
370
-1
100
AcDbLine
10
133.734
20
-114.764
11
134.502
21
-115.134
0
LINE
5
3DB
100
AcDbEntity
8
inside-cut
6
ByLayer
62
256
370
-1
100
AcDbLine
10
134.502
20
-115.134
11
135.234
21
-115.572
0
LINE
5
3DC
100
AcDbEntity
8
inside-cut
6
ByLayer
62
256
370
-1
100
AcDbLine
10
135.234
20
-115.572
11
135.923
21
-116.073
0
LINE
5
3DD
100
AcDbEntity
8
inside-cut
6
ByLayer
62
256
370
-1
100
AcDbLine
10
135.923
20
-116.073
11
136.565
21
-116.633
0
LINE
5
3DE
100
AcDbEntity
8
inside-cut
6
ByLayer
62
256
370
-1
100
AcDbLine
10
136.565
20
-116.633
11
137.154
21
-117.25
0
LINE
5
3DF
100
AcDbEntity
8
inside-cut
6
ByLayer
62
256
370
-1
100
AcDbLine
10
137.154
20
-117.25
11
137.686
21
-117.916
0
LINE
5
3E0
100
AcDbEntity
8
inside-cut
6
ByLayer
62
256
370
-1
100
AcDbLine
10
137.686
20
-117.916
11
138.155
21
-118.627
0
LINE
5
3E1
100
AcDbEntity
8
inside-cut
6
ByLayer
62
256
370
-1
100
AcDbLine
10
138.155
20
-118.627
11
138.559
21
-119.378
0
LINE
5
3E2
100
AcDbEntity
8
inside-cut
6
ByLayer
62
256
370
-1
100
AcDbLine
10
138.559
20
-119.378
11
138.894
21
-120.162
0
LINE
5
3E3
100
AcDbEntity
8
inside-cut
6
ByLayer
62
256
370
-1
100
AcDbLine
10
138.894
20
-120.162
11
139.158
21
-120.973
0
LINE
5
3E4
100
AcDbEntity
8
inside-cut
6
ByLayer
62
256
370
-1
100
AcDbLine
10
139.158
20
-120.973
11
139.347
21
-121.804
0
LINE
5
3E5
100
AcDbEntity
8
inside-cut
6
ByLayer
62
256
370
-1
100
AcDbLine
10
139.347
20
-121.804
11
139.462
21
-122.648
0
LINE
5
3E6
100
AcDbEntity
8
inside-cut
6
ByLayer
62
256
370
-1
100
AcDbLine
10
139.462
20
-122.648
11
139.5
21
-123.5
0
LINE
5
3E7
100
AcDbEntity
8
inside-cut
6
ByLayer
62
256
370
-1
100
AcDbLine
10
139.5
20
-123.5
11
139.462
21
-124.352
0
LINE
5
3E8
100
AcDbEntity
8
inside-cut
6
ByLayer
62
256
370
-1
100
AcDbLine
10
139.462
20
-124.352
11
139.347
21
-125.196
0
LINE
5
3E9
100
AcDbEntity
8
inside-cut
6
ByLayer
62
256
370
-1
100
AcDbLine
10
139.347
20
-125.196
11
139.158
21
-126.027
0
LINE
5
3EA
100
AcDbEntity
8
inside-cut
6
ByLayer
62
256
370
-1
100
AcDbLine
10
139.158
20
-126.027
11
138.894
21
-126.838
0
LINE
5
3EB
100
AcDbEntity
8
inside-cut
6
ByLayer
62
256
370
-1
100
AcDbLine
10
138.894
20
-126.838
11
138.559
21
-127.622
0
LINE
5
3EC
100
AcDbEntity
8
inside-cut
6
ByLayer
62
256
370
-1
100
AcDbLine
10
138.559
20
-127.622
11
138.155
21
-128.373
0
LINE
5
3ED
100
AcDbEntity
8
inside-cut
6
ByLayer
62
256
370
-1
100
AcDbLine
10
138.155
20
-128.373
11
137.686
21
-129.084
0
LINE
5
3EE
100
AcDbEntity
8
inside-cut
6
ByLayer
62
256
370
-1
100
AcDbLine
10
137.686
20
-129.084
11
137.154
21
-129.75
0
LINE
5
3EF
100
AcDbEntity
8
inside-cut
6
ByLayer
62
256
370
-1
100
AcDbLine
10
137.154
20
-129.75
11
136.565
21
-130.367
0
LINE
5
3F0
100
AcDbEntity
8
inside-cut
6
ByLayer
62
256
370
-1
100
AcDbLine
10
136.565
20
-130.367
11
135.923
21
-130.927
0
LINE
5
3F1
100
AcDbEntity
8
inside-cut
6
ByLayer
62
256
370
-1
100
AcDbLine
10
135.923
20
-130.927
11
135.234
21
-131.428
0
LINE
5
3F2
100
AcDbEntity
8
inside-cut
6
ByLayer
62
256
370
-1
100
AcDbLine
10
135.234
20
-131.428
11
134.502
21
-131.866
0
LINE
5
3F3
100
AcDbEntity
8
inside-cut
6
ByLayer
62
256
370
-1
100
AcDbLine
10
134.502
20
-131.866
11
133.734
21
-132.236
0
LINE
5
3F4
100
AcDbEntity
8
inside-cut
6
ByLayer
62
256
370
-1
100
AcDbLine
10
133.734
20
-132.236
11
132.936
21
-132.535
0
LINE
5
3F5
100
AcDbEntity
8
inside-cut
6
ByLayer
62
256
370
-1
100
AcDbLine
10
132.936
20
-132.535
11
132.114
21
-132.762
0
LINE
5
3F6
100
AcDbEntity
8
inside-cut
6
ByLayer
62
256
370
-1
100
AcDbLine
10
132.114
20
-132.762
11
131.275
21
-132.914
0
LINE
5
3F7
100
AcDbEntity
8
inside-cut
6
ByLayer
62
256
370
-1
100
AcDbLine
10
131.275
20
-132.914
11
130.426
21
-132.99
0
LINE
5
3F8
100
AcDbEntity
8
inside-cut
6
ByLayer
62
256
370
-1
100
AcDbLine
10
130.426
20
-132.99
11
129.574
21
-132.99
0
LINE
5
3F9
100
AcDbEntity
8
inside-cut
6
ByLayer
62
256
370
-1
100
AcDbLine
10
129.574
20
-132.99
11
128.725
21
-132.914
0
LINE
5
3FA
100
AcDbEntity
8
inside-cut
6
ByLayer
62
256
370
-1
100
AcDbLine
10
128.725
20
-132.914
11
127.886
21
-132.762
0
LINE
5
3FB
100
AcDbEntity
8
inside-cut
6
ByLayer
62
256
370
-1
100
AcDbLine
10
127.886
20
-132.762
11
127.064
21
-132.535
0
LINE
5
3FC
100
AcDbEntity
8
inside-cut
6
ByLayer
62
256
370
-1
100
AcDbLine
10
127.064
20
-132.535
11
126.266
21
-132.236
0
LINE
5
3FD
100
AcDbEntity
8
inside-cut
6
ByLayer
62
256
370
-1
100
AcDbLine
10
126.266
20
-132.236
11
125.498
21
-131.866
0
LINE
5
3FE
100
AcDbEntity
8
inside-cut
6
ByLayer
62
256
370
-1
100
AcDbLine
10
125.498
20
-131.866
11
124.766
21
-131.428
0
LINE
5
3FF
100
AcDbEntity
8
inside-cut
6
ByLayer
62
256
370
-1
100
AcDbLine
10
124.766
20
-131.428
11
124.077
21
-130.927
0
LINE
5
400
100
AcDbEntity
8
inside-cut
6
ByLayer
62
256
370
-1
100
AcDbLine
10
124.077
20
-130.927
11
123.435
21
-130.367
0
LINE
5
401
100
AcDbEntity
8
inside-cut
6
ByLayer
62
256
370
-1
100
AcDbLine
10
123.435
20
-130.367
11
122.846
21
-129.75
0
LINE
5
402
100
AcDbEntity
8
inside-cut
6
ByLayer
62
256
370
-1
100
AcDbLine
10
122.846
20
-129.75
11
122.314
21
-129.084
0
LINE
5
403
100
AcDbEntity
8
inside-cut
6
ByLayer
62
256
370
-1
100
AcDbLine
10
122.314
20
-129.084
11
121.845
21
-128.373
0
LINE
5
404
100
AcDbEntity
8
inside-cut
6
ByLayer
62
256
370
-1
100
AcDbLine
10
121.845
20
-128.373
11
121.441
21
-127.622
0
LINE
5
405
100
AcDbEntity
8
inside-cut
6
ByLayer
62
256
370
-1
100
AcDbLine
10
121.441
20
-127.622
11
121.106
21
-126.838
0
LINE
5
406
100
AcDbEntity
8
inside-cut
6
ByLayer
62
256
370
-1
100
AcDbLine
10
121.106
20
-126.838
11
120.842
21
-126.027
0
LINE
5
407
100
AcDbEntity
8
inside-cut
6
ByLayer
62
256
370
-1
100
AcDbLine
10
120.842
20
-126.027
11
120.653
21
-125.196
0
LINE
5
408
100
AcDbEntity
8
inside-cut
6
ByLayer
62
256
370
-1
100
AcDbLine
10
120.653
20
-125.196
11
120.538
21
-124.352
0
LINE
5
409
100
AcDbEntity
8
inside-cut
6
ByLayer
62
256
370
-1
100
AcDbLine
10
120.538
20
-124.352
11
120.5
21
-123.5
0
LINE
5
40A
100
AcDbEntity
8
inside-cut
6
ByLayer
62
256
370
-1
100
AcDbLine
10
120.5
20
54.5
11
120.538
21
55.352
0
LINE
5
40B
100
AcDbEntity
8
inside-cut
6
ByLayer
62
256
370
-1
100
AcDbLine
10
120.538
20
55.352
11
120.653
21
56.196
0
LINE
5
40C
100
AcDbEntity
8
inside-cut
6
ByLayer
62
256
370
-1
100
AcDbLine
10
120.653
20
56.196
11
120.842
21
57.027
0
LINE
5
40D
100
AcDbEntity
8
inside-cut
6
ByLayer
62
256
370
-1
100
AcDbLine
10
120.842
20
57.027
11
121.106
21
57.838
0
LINE
5
40E
100
AcDbEntity
8
inside-cut
6
ByLayer
62
256
370
-1
100
AcDbLine
10
121.106
20
57.838
11
121.441
21
58.622
0
LINE
5
40F
100
AcDbEntity
8
inside-cut
6
ByLayer
62
256
370
-1
100
AcDbLine
10
121.441
20
58.622
11
121.845
21
59.373
0
LINE
5
410
100
AcDbEntity
8
inside-cut
6
ByLayer
62
256
370
-1
100
AcDbLine
10
121.845
20
59.373
11
122.314
21
60.084
0
LINE
5
411
100
AcDbEntity
8
inside-cut
6
ByLayer
62
256
370
-1
100
AcDbLine
10
122.314
20
60.084
11
122.846
21
60.75
0
LINE
5
412
100
AcDbEntity
8
inside-cut
6
ByLayer
62
256
370
-1
100
AcDbLine
10
122.846
20
60.75
11
123.435
21
61.367
0
LINE
5
413
100
AcDbEntity
8
inside-cut
6
ByLayer
62
256
370
-1
100
AcDbLine
10
123.435
20
61.367
11
124.077
21
61.927
0
LINE
5
414
100
AcDbEntity
8
inside-cut
6
ByLayer
62
256
370
-1
100
AcDbLine
10
124.077
20
61.927
11
124.766
21
62.428
0
LINE
5
415
100
AcDbEntity
8
inside-cut
6
ByLayer
62
256
370
-1
100
AcDbLine
10
124.766
20
62.428
11
125.498
21
62.866
0
LINE
5
416
100
AcDbEntity
8
inside-cut
6
ByLayer
62
256
370
-1
100
AcDbLine
10
125.498
20
62.866
11
126.266
21
63.236
0
LINE
5
417
100
AcDbEntity
8
inside-cut
6
ByLayer
62
256
370
-1
100
AcDbLine
10
126.266
20
63.236
11
127.064
21
63.535
0
LINE
5
418
100
AcDbEntity
8
inside-cut
6
ByLayer
62
256
370
-1
100
AcDbLine
10
127.064
20
63.535
11
127.886
21
63.762
0
LINE
5
419
100
AcDbEntity
8
inside-cut
6
ByLayer
62
256
370
-1
100
AcDbLine
10
127.886
20
63.762
11
128.725
21
63.914
0
LINE
5
41A
100
AcDbEntity
8
inside-cut
6
ByLayer
62
256
370
-1
100
AcDbLine
10
128.725
20
63.914
11
129.574
21
63.99
0
LINE
5
41B
100
AcDbEntity
8
inside-cut
6
ByLayer
62
256
370
-1
100
AcDbLine
10
129.574
20
63.99
11
130.426
21
63.99
0
LINE
5
41C
100
AcDbEntity
8
inside-cut
6
ByLayer
62
256
370
-1
100
AcDbLine
10
130.426
20
63.99
11
131.275
21
63.914
0
LINE
5
41D
100
AcDbEntity
8
inside-cut
6
ByLayer
62
256
370
-1
100
AcDbLine
10
131.275
20
63.914
11
132.114
21
63.762
0
LINE
5
41E
100
AcDbEntity
8
inside-cut
6
ByLayer
62
256
370
-1
100
AcDbLine
10
132.114
20
63.762
11
132.936
21
63.535
0
LINE
5
41F
100
AcDbEntity
8
inside-cut
6
ByLayer
62
256
370
-1
100
AcDbLine
10
132.936
20
63.535
11
133.734
21
63.236
0
LINE
5
420
100
AcDbEntity
8
inside-cut
6
ByLayer
62
256
370
-1
100
AcDbLine
10
133.734
20
63.236
11
134.502
21
62.866
0
LINE
5
421
100
AcDbEntity
8
inside-cut
6
ByLayer
62
256
370
-1
100
AcDbLine
10
134.502
20
62.866
11
135.234
21
62.428
0
LINE
5
422
100
AcDbEntity
8
inside-cut
6
ByLayer
62
256
370
-1
100
AcDbLine
10
135.234
20
62.428
11
135.923
21
61.927
0
LINE
5
423
100
AcDbEntity
8
inside-cut
6
ByLayer
62
256
370
-1
100
AcDbLine
10
135.923
20
61.927
11
136.565
21
61.367
0
LINE
5
424
100
AcDbEntity
8
inside-cut
6
ByLayer
62
256
370
-1
100
AcDbLine
10
136.565
20
61.367
11
137.154
21
60.75
0
LINE
5
425
100
AcDbEntity
8
inside-cut
6
ByLayer
62
256
370
-1
100
AcDbLine
10
137.154
20
60.75
11
137.686
21
60.084
0
LINE
5
426
100
AcDbEntity
8
inside-cut
6
ByLayer
62
256
370
-1
100
AcDbLine
10
137.686
20
60.084
11
138.155
21
59.373
0
LINE
5
427
100
AcDbEntity
8
inside-cut
6
ByLayer
62
256
370
-1
100
AcDbLine
10
138.155
20
59.373
11
138.559
21
58.622
0
LINE
5
428
100
AcDbEntity
8
inside-cut
6
ByLayer
62
256
370
-1
100
AcDbLine
10
138.559
20
58.622
11
138.894
21
57.838
0
LINE
5
429
100
AcDbEntity
8
inside-cut
6
ByLayer
62
256
370
-1
100
AcDbLine
10
138.894
20
57.838
11
139.158
21
57.027
0
LINE
5
42A
100
AcDbEntity
8
inside-cut
6
ByLayer
62
256
370
-1
100
AcDbLine
10
139.158
20
57.027
11
139.347
21
56.196
0
LINE
5
42B
100
AcDbEntity
8
inside-cut
6
ByLayer
62
256
370
-1
100
AcDbLine
10
139.347
20
56.196
11
139.462
21
55.352
0
LINE
5
42C
100
AcDbEntity
8
inside-cut
6
ByLayer
62
256
370
-1
100
AcDbLine
10
139.462
20
55.352
11
139.5
21
54.5
0
LINE
5
42D
100
AcDbEntity
8
inside-cut
6
ByLayer
62
256
370
-1
100
AcDbLine
10
139.5
20
54.5
11
139.462
21
53.648
0
LINE
5
42E
100
AcDbEntity
8
inside-cut
6
ByLayer
62
256
370
-1
100
AcDbLine
10
139.462
20
53.648
11
139.347
21
52.804
0
LINE
5
42F
100
AcDbEntity
8
inside-cut
6
ByLayer
62
256
370
-1
100
AcDbLine
10
139.347
20
52.804
11
139.158
21
51.973
0
LINE
5
430
100
AcDbEntity
8
inside-cut
6
ByLayer
62
256
370
-1
100
AcDbLine
10
139.158
20
51.973
11
138.894
21
51.162
0
LINE
5
431
100
AcDbEntity
8
inside-cut
6
ByLayer
62
256
370
-1
100
AcDbLine
10
138.894
20
51.162
11
138.559
21
50.378
0
LINE
5
432
100
AcDbEntity
8
inside-cut
6
ByLayer
62
256
370
-1
100
AcDbLine
10
138.559
20
50.378
11
138.155
21
49.627
0
LINE
5
433
100
AcDbEntity
8
inside-cut
6
ByLayer
62
256
370
-1
100
AcDbLine
10
138.155
20
49.627
11
137.686
21
48.916
0
LINE
5
434
100
AcDbEntity
8
inside-cut
6
ByLayer
62
256
370
-1
100
AcDbLine
10
137.686
20
48.916
11
137.154
21
48.25
0
LINE
5
435
100
AcDbEntity
8
inside-cut
6
ByLayer
62
256
370
-1
100
AcDbLine
10
137.154
20
48.25
11
136.565
21
47.633
0
LINE
5
436
100
AcDbEntity
8
inside-cut
6
ByLayer
62
256
370
-1
100
AcDbLine
10
136.565
20
47.633
11
135.923
21
47.073
0
LINE
5
437
100
AcDbEntity
8
inside-cut
6
ByLayer
62
256
370
-1
100
AcDbLine
10
135.923
20
47.073
11
135.234
21
46.572
0
LINE
5
438
100
AcDbEntity
8
inside-cut
6
ByLayer
62
256
370
-1
100
AcDbLine
10
135.234
20
46.572
11
134.502
21
46.134
0
LINE
5
439
100
AcDbEntity
8
inside-cut
6
ByLayer
62
256
370
-1
100
AcDbLine
10
134.502
20
46.134
11
133.734
21
45.764
0
LINE
5
43A
100
AcDbEntity
8
inside-cut
6
ByLayer
62
256
370
-1
100
AcDbLine
10
133.734
20
45.764
11
132.936
21
45.465
0
LINE
5
43B
100
AcDbEntity
8
inside-cut
6
ByLayer
62
256
370
-1
100
AcDbLine
10
132.936
20
45.465
11
132.114
21
45.238
0
LINE
5
43C
100
AcDbEntity
8
inside-cut
6
ByLayer
62
256
370
-1
100
AcDbLine
10
132.114
20
45.238
11
131.275
21
45.086
0
LINE
5
43D
100
AcDbEntity
8
inside-cut
6
ByLayer
62
256
370
-1
100
AcDbLine
10
131.275
20
45.086
11
130.426
21
45.01
0
LINE
5
43E
100
AcDbEntity
8
inside-cut
6
ByLayer
62
256
370
-1
100
AcDbLine
10
130.426
20
45.01
11
129.574
21
45.01
0
LINE
5
43F
100
AcDbEntity
8
inside-cut
6
ByLayer
62
256
370
-1
100
AcDbLine
10
129.574
20
45.01
11
128.725
21
45.086
0
LINE
5
440
100
AcDbEntity
8
inside-cut
6
ByLayer
62
256
370
-1
100
AcDbLine
10
128.725
20
45.086
11
127.886
21
45.238
0
LINE
5
441
100
AcDbEntity
8
inside-cut
6
ByLayer
62
256
370
-1
100
AcDbLine
10
127.886
20
45.238
11
127.064
21
45.465
0
LINE
5
442
100
AcDbEntity
8
inside-cut
6
ByLayer
62
256
370
-1
100
AcDbLine
10
127.064
20
45.465
11
126.266
21
45.764
0
LINE
5
443
100
AcDbEntity
8
inside-cut
6
ByLayer
62
256
370
-1
100
AcDbLine
10
126.266
20
45.764
11
125.498
21
46.134
0
LINE
5
444
100
AcDbEntity
8
inside-cut
6
ByLayer
62
256
370
-1
100
AcDbLine
10
125.498
20
46.134
11
124.766
21
46.572
0
LINE
5
445
100
AcDbEntity
8
inside-cut
6
ByLayer
62
256
370
-1
100
AcDbLine
10
124.766
20
46.572
11
124.077
21
47.073
0
LINE
5
446
100
AcDbEntity
8
inside-cut
6
ByLayer
62
256
370
-1
100
AcDbLine
10
124.077
20
47.073
11
123.435
21
47.633
0
LINE
5
447
100
AcDbEntity
8
inside-cut
6
ByLayer
62
256
370
-1
100
AcDbLine
10
123.435
20
47.633
11
122.846
21
48.25
0
LINE
5
448
100
AcDbEntity
8
inside-cut
6
ByLayer
62
256
370
-1
100
AcDbLine
10
122.846
20
48.25
11
122.314
21
48.916
0
LINE
5
449
100
AcDbEntity
8
inside-cut
6
ByLayer
62
256
370
-1
100
AcDbLine
10
122.314
20
48.916
11
121.845
21
49.627
0
LINE
5
44A
100
AcDbEntity
8
inside-cut
6
ByLayer
62
256
370
-1
100
AcDbLine
10
121.845
20
49.627
11
121.441
21
50.378
0
LINE
5
44B
100
AcDbEntity
8
inside-cut
6
ByLayer
62
256
370
-1
100
AcDbLine
10
121.441
20
50.378
11
121.106
21
51.162
0
LINE
5
44C
100
AcDbEntity
8
inside-cut
6
ByLayer
62
256
370
-1
100
AcDbLine
10
121.106
20
51.162
11
120.842
21
51.973
0
LINE
5
44D
100
AcDbEntity
8
inside-cut
6
ByLayer
62
256
370
-1
100
AcDbLine
10
120.842
20
51.973
11
120.653
21
52.804
0
LINE
5
44E
100
AcDbEntity
8
inside-cut
6
ByLayer
62
256
370
-1
100
AcDbLine
10
120.653
20
52.804
11
120.538
21
53.648
0
LINE
5
44F
100
AcDbEntity
8
inside-cut
6
ByLayer
62
256
370
-1
100
AcDbLine
10
120.538
20
53.648
11
120.5
21
54.5
0
LINE
5
450
100
AcDbEntity
8
inside-cut
6
ByLayer
62
256
370
-1
100
AcDbLine
10
204.994
20
-130.615
11
204.994
21
-124.854
0
LINE
5
451
100
AcDbEntity
8
inside-cut
6
ByLayer
62
256
370
-1
100
AcDbLine
10
204.994
20
-124.854
11
211.006
21
-124.854
0
LINE
5
452
100
AcDbEntity
8
inside-cut
6
ByLayer
62
256
370
-1
100
AcDbLine
10
211.006
20
-124.854
11
211.006
21
-130.615
0
LINE
5
453
100
AcDbEntity
8
inside-cut
6
ByLayer
62
256
370
-1
100
AcDbLine
10
211.006
20
-130.615
11
204.994
21
-130.615
0
LINE
5
454
100
AcDbEntity
8
inside-cut
6
ByLayer
62
256
370
-1
100
AcDbLine
10
204.994
20
-113.33
11
204.994
21
-101.807
0
LINE
5
455
100
AcDbEntity
8
inside-cut
6
ByLayer
62
256
370
-1
100
AcDbLine
10
204.994
20
-101.807
11
211.006
21
-101.807
0
LINE
5
456
100
AcDbEntity
8
inside-cut
6
ByLayer
62
256
370
-1
100
AcDbLine
10
211.006
20
-101.807
11
211.006
21
-113.33
0
LINE
5
457
100
AcDbEntity
8
inside-cut
6
ByLayer
62
256
370
-1
100
AcDbLine
10
211.006
20
-113.33
11
204.994
21
-113.33
0
LINE
5
458
100
AcDbEntity
8
inside-cut
6
ByLayer
62
256
370
-1
100
AcDbLine
10
204.994
20
-90.284
11
204.994
21
-78.762
0
LINE
5
459
100
AcDbEntity
8
inside-cut
6
ByLayer
62
256
370
-1
100
AcDbLine
10
204.994
20
-78.762
11
211.006
21
-78.762
0
LINE
5
45A
100
AcDbEntity
8
inside-cut
6
ByLayer
62
256
370
-1
100
AcDbLine
10
211.006
20
-78.762
11
211.006
21
-90.284
0
LINE
5
45B
100
AcDbEntity
8
inside-cut
6
ByLayer
62
256
370
-1
100
AcDbLine
10
211.006
20
-90.284
11
204.994
21
-90.284
0
LINE
5
45C
100
AcDbEntity
8
inside-cut
6
ByLayer
62
256
370
-1
100
AcDbLine
10
204.994
20
-67.238
11
204.994
21
-55.716
0
LINE
5
45D
100
AcDbEntity
8
inside-cut
6
ByLayer
62
256
370
-1
100
AcDbLine
10
204.994
20
-55.716
11
211.006
21
-55.716
0
LINE
5
45E
100
AcDbEntity
8
inside-cut
6
ByLayer
62
256
370
-1
100
AcDbLine
10
211.006
20
-55.716
11
211.006
21
-67.238
0
LINE
5
45F
100
AcDbEntity
8
inside-cut
6
ByLayer
62
256
370
-1
100
AcDbLine
10
211.006
20
-67.238
11
204.994
21
-67.238
0
LINE
5
460
100
AcDbEntity
8
inside-cut
6
ByLayer
62
256
370
-1
100
AcDbLine
10
204.994
20
-44.192
11
204.994
21
-32.67
0
LINE
5
461
100
AcDbEntity
8
inside-cut
6
ByLayer
62
256
370
-1
100
AcDbLine
10
204.994
20
-32.67
11
211.006
21
-32.67
0
LINE
5
462
100
AcDbEntity
8
inside-cut
6
ByLayer
62
256
370
-1
100
AcDbLine
10
211.006
20
-32.67
11
211.006
21
-44.192
0
LINE
5
463
100
AcDbEntity
8
inside-cut
6
ByLayer
62
256
370
-1
100
AcDbLine
10
211.006
20
-44.192
11
204.994
21
-44.192
0
LINE
5
464
100
AcDbEntity
8
inside-cut
6
ByLayer
62
256
370
-1
100
AcDbLine
10
204.994
20
-21.147
11
204.994
21
-15.385
0
LINE
5
465
100
AcDbEntity
8
inside-cut
6
ByLayer
62
256
370
-1
100
AcDbLine
10
204.994
20
-15.385
11
211.006
21
-15.385
0
LINE
5
466
100
AcDbEntity
8
inside-cut
6
ByLayer
62
256
370
-1
100
AcDbLine
10
211.006
20
-15.385
11
211.006
21
-21.147
0
LINE
5
467
100
AcDbEntity
8
inside-cut
6
ByLayer
62
256
370
-1
100
AcDbLine
10
211.006
20
-21.147
11
204.994
21
-21.147
0
LINE
5
468
100
AcDbEntity
8
inside-cut
6
ByLayer
62
256
370
-1
100
AcDbLine
10
204.994
20
47.385
11
204.994
21
53.146
0
LINE
5
469
100
AcDbEntity
8
inside-cut
6
ByLayer
62
256
370
-1
100
AcDbLine
10
204.994
20
53.146
11
211.006
21
53.146
0
LINE
5
46A
100
AcDbEntity
8
inside-cut
6
ByLayer
62
256
370
-1
100
AcDbLine
10
211.006
20
53.146
11
211.006
21
47.385
0
LINE
5
46B
100
AcDbEntity
8
inside-cut
6
ByLayer
62
256
370
-1
100
AcDbLine
10
211.006
20
47.385
11
204.994
21
47.385
0
LINE
5
46C
100
AcDbEntity
8
inside-cut
6
ByLayer
62
256
370
-1
100
AcDbLine
10
204.994
20
64.67
11
204.994
21
76.193
0
LINE
5
46D
100
AcDbEntity
8
inside-cut
6
ByLayer
62
256
370
-1
100
AcDbLine
10
204.994
20
76.193
11
211.006
21
76.193
0
LINE
5
46E
100
AcDbEntity
8
inside-cut
6
ByLayer
62
256
370
-1
100
AcDbLine
10
211.006
20
76.193
11
211.006
21
64.67
0
LINE
5
46F
100
AcDbEntity
8
inside-cut
6
ByLayer
62
256
370
-1
100
AcDbLine
10
211.006
20
64.67
11
204.994
21
64.67
0
LINE
5
470
100
AcDbEntity
8
inside-cut
6
ByLayer
62
256
370
-1
100
AcDbLine
10
204.994
20
87.715
11
204.994
21
99.238
0
LINE
5
471
100
AcDbEntity
8
inside-cut
6
ByLayer
62
256
370
-1
100
AcDbLine
10
204.994
20
99.238
11
211.006
21
99.238
0
LINE
5
472
100
AcDbEntity
8
inside-cut
6
ByLayer
62
256
370
-1
100
AcDbLine
10
211.006
20
99.238
11
211.006
21
87.715
0
LINE
5
473
100
AcDbEntity
8
inside-cut
6
ByLayer
62
256
370
-1
100
AcDbLine
10
211.006
20
87.715
11
204.994
21
87.715
0
LINE
5
474
100
AcDbEntity
8
inside-cut
6
ByLayer
62
256
370
-1
100
AcDbLine
10
204.994
20
110.762
11
204.994
21
122.284
0
LINE
5
475
100
AcDbEntity
8
inside-cut
6
ByLayer
62
256
370
-1
100
AcDbLine
10
204.994
20
122.284
11
211.006
21
122.284
0
LINE
5
476
100
AcDbEntity
8
inside-cut
6
ByLayer
62
256
370
-1
100
AcDbLine
10
211.006
20
122.284
11
211.006
21
110.762
0
LINE
5
477
100
AcDbEntity
8
inside-cut
6
ByLayer
62
256
370
-1
100
AcDbLine
10
211.006
20
110.762
11
204.994
21
110.762
0
LINE
5
478
100
AcDbEntity
8
inside-cut
6
ByLayer
62
256
370
-1
100
AcDbLine
10
204.994
20
133.807
11
204.994
21
145.33
0
LINE
5
479
100
AcDbEntity
8
inside-cut
6
ByLayer
62
256
370
-1
100
AcDbLine
10
204.994
20
145.33
11
211.006
21
145.33
0
LINE
5
47A
100
AcDbEntity
8
inside-cut
6
ByLayer
62
256
370
-1
100
AcDbLine
10
211.006
20
145.33
11
211.006
21
133.807
0
LINE
5
47B
100
AcDbEntity
8
inside-cut
6
ByLayer
62
256
370
-1
100
AcDbLine
10
211.006
20
133.807
11
204.994
21
133.807
0
LINE
5
47C
100
AcDbEntity
8
inside-cut
6
ByLayer
62
256
370
-1
100
AcDbLine
10
204.994
20
156.854
11
204.994
21
162.615
0
LINE
5
47D
100
AcDbEntity
8
inside-cut
6
ByLayer
62
256
370
-1
100
AcDbLine
10
204.994
20
162.615
11
211.006
21
162.615
0
LINE
5
47E
100
AcDbEntity
8
inside-cut
6
ByLayer
62
256
370
-1
100
AcDbLine
10
211.006
20
162.615
11
211.006
21
156.854
0
LINE
5
47F
100
AcDbEntity
8
inside-cut
6
ByLayer
62
256
370
-1
100
AcDbLine
10
211.006
20
156.854
11
204.994
21
156.854
0
POINT
5
480
100
AcDbEntity
8
befestigung
6
ByLayer
62
256
370
-1
100
AcDbPoint
10
-365.585554286
20
186.268525714
0
POINT
5
481
100
AcDbEntity
8
befestigung
6
ByLayer
62
256
370
-1
100
AcDbPoint
10
-192.114102857
20
174.103405714
0
POINT
5
482
100
AcDbEntity
8
befestigung
6
ByLayer
62
256
370
-1
100
AcDbPoint
10
-52.7681828571
20
156.250697143
0
POINT
5
483
100
AcDbEntity
8
befestigung
6
ByLayer
62
256
370
-1
100
AcDbPoint
10
89.1055542857
20
156.566674286
0
POINT
5
484
100
AcDbEntity
8
befestigung
6
ByLayer
62
256
370
-1
100
AcDbPoint
10
231.453257143
20
157.672594286
0
POINT
5
485
100
AcDbEntity
8
befestigung
6
ByLayer
62
256
370
-1
100
AcDbPoint
10
-368.357142857
20
19.2857142857
0
POINT
5
486
100
AcDbEntity
8
befestigung
6
ByLayer
62
256
370
-1
100
AcDbPoint
10
-193.628571429
20
20.0571428571
0
POINT
5
487
100
AcDbEntity
8
befestigung
6
ByLayer
62
256
370
-1
100
AcDbPoint
10
-52.8428571429
20
60.1714285714
0
POINT
5
488
100
AcDbEntity
8
befestigung
6
ByLayer
62
256
370
-1
100
AcDbPoint
10
91.0285714286
20
50.5285714286
0
POINT
5
489
100
AcDbEntity
8
befestigung
6
ByLayer
62
256
370
-1
100
AcDbPoint
10
232.2
20
16.5857142857
0
POINT
5
48A
100
AcDbEntity
8
befestigung
6
ByLayer
62
256
370
-1
100
AcDbPoint
10
-365.946428571
20
-142.232142857
0
POINT
5
48B
100
AcDbEntity
8
befestigung
6
ByLayer
62
256
370
-1
100
AcDbPoint
10
-192.857142857
20
-140.785714286
0
POINT
5
48C
100
AcDbEntity
8
befestigung
6
ByLayer
62
256
370
-1
100
AcDbPoint
10
8.19642857143
20
-153.803571429
0
POINT
5
48D
100
AcDbEntity
8
befestigung
6
ByLayer
62
256
370
-1
100
AcDbPoint
10
212.142857143
20
-168.267857143
0
POINT
5
48E
100
AcDbEntity
8
befestigung
6
ByLayer
62
256
370
-1
100
AcDbPoint
10
-333.642857143
20
-186.107142857
0
POINT
5
48F
100
AcDbEntity
8
befestigung
6
ByLayer
62
256
370
-1
100
AcDbPoint
10
-83.8928571429
20
-186.107142857
0
ENDSEC
0
SECTION
2
OBJECTS
0
DICTIONARY
5
C
330
0
100
AcDbDictionary
281
1
3
ACAD_GROUP
350
D
0
DICTIONARY
5
D
330
C
100
AcDbDictionary
281
1
0
ENDSEC
0
EOF
